WinkyRough-Italic#12.glyphspackage
{
glyphname = percent;
kernLeft = KO_percent;
layers = (
{
hints = (
{
horizontal = 1;
place = (-10,41);
type = Stem;
},
{
horizontal = 1;
place = (325,41);
type = Stem;
},
{
horizontal = 1;
place = (644,41);
type = Stem;
},
{
place = (3,110);
type = Stem;
},
{
place = (245,110);
type = Stem;
},
{
place = (420,98);
type = Stem;
},
{
place = (650,98);
type = Stem;
},
{
horizontal = 1;
place = (0,21);
target = up;
type = BottomGhost;
},
{
horizontal = 1;
place = (309,41);
type = Stem;
}
);
layerId = m005;
shapes = (
{
closed = 1;
nodes = (
(129,-34,l),
(154,-42,l),
(164,-34,l),
(178,-32,l),
(202,-9,l),
(213,7,l),
(228,17,l),
(223,31,l),
(241,49,l),
(250,63,l),
(255,71,l),
(274,83,l),
(271,97,l),
(289,116,l),
(292,128,l),
(298,136,l),
(310,152,l),
(318,165,l),
(338,181,l),
(345,190,l),
(355,209,l),
(369,216,l),
(372,231,l),
(387,244,l),
(392,253,l),
(408,268,l),
(411,279,l),
(415,294,l),
(436,311,l),
(440,327,l),
(456,333,l),
(465,343,l),
(476,365,l),
(474,370,l),
(496,386,l),
(494,400,l),
(508,411,l),
(519,426,l),
(529,438,l),
(535,450,l),
(557,464,l),
(555,472,l),
(569,488,l),
(589,505,l),
(595,515,l),
(602,525,l),
(612,538,l),
(630,553,l),
(629,570,l),
(636,574,l),
(655,590,l),
(667,600,l),
(680,620,l),
(687,647,l),
(688,663,l),
(696,671,l),
(681,680,l),
(670,694,l),
(647,696,l),
(645,690,l),
(623,686,l),
(601,655,l),
(598,643,l),
(584,631,l),
(578,620,l),
(563,602,l),
(549,592,l),
(539,576,l),
(533,572,l),
(524,558,l),
(513,540,l),
(500,529,l),
(501,518,l),
(492,504,l),
(475,492,l),
(460,475,l),
(459,462,l),
(454,456,l),
(438,438,l),
(423,425,l),
(424,409,l),
(414,397,l),
(396,391,l),
(388,371,l),
(379,362,l),
(364,345,l),
(358,333,l),
(351,326,l),
(339,311,l),
(322,301,l),
(322,287,l),
(309,277,l),
(297,260,l),
(285,249,l),
(283,234,l),
(271,227,l),
(252,196,l),
(239,186,l),
(228,172,l),
(219,160,l),
(199,142,l),
(191,131,l),
(194,123,l),
(171,106,l),
(162,91,l),
(151,82,l),
(142,71,l),
(133,62,l),
(122,49,l),
(109,18,l),
(109,2,l),
(112,-11,l),
(107,-21,l),
(119,-36,l)
);
},
{
closed = 1;
nodes = (
(218,312,l),
(234,321,l),
(245,321,l),
(259,323,l),
(272,337,l),
(296,341,l),
(302,346,l),
(312,362,l),
(333,363,l),
(350,377,l),
(350,390,l),
(358,406,l),
(377,420,l),
(383,427,l),
(381,450,l),
(399,461,l),
(397,479,l),
(400,486,l),
(403,508,l),
(405,522,l),
(409,536,l),
(403,552,l),
(403,567,l),
(402,579,l),
(397,589,l),
(394,603,l),
(393,620,l),
(386,628,l),
(377,649,l),
(370,654,l),
(360,661,l),
(352,666,l),
(341,674,l),
(340,678,l),
(328,685,l),
(318,690,l),
(308,687,l),
(298,697,l),
(282,696,l),
(268,696,l),
(251,695,l),
(238,694,l),
(226,696,l),
(210,691,l),
(193,687,l),
(186,679,l),
(166,668,l),
(153,666,l),
(133,657,l),
(119,643,l),
(121,633,l),
(108,625,l),
(91,611,l),
(79,595,l),
(72,575,l),
(73,563,l),
(65,548,l),
(67,534,l),
(58,524,l),
(50,489,l),
(54,479,l),
(53,464,l),
(58,447,l),
(55,429,l),
(52,420,l),
(55,409,l),
(69,397,l),
(68,386,l),
(68,376,l),
(73,364,l),
(89,353,l),
(93,346,l),
(106,333,l),
(118,328,l),
(123,323,l),
(144,322,l),
(156,321,l),
(171,316,l),
(180,316,l),
(192,317,l)
);
},
{
closed = 1;
nodes = (
(196,378,l),
(181,385,l),
(169,394,l),
(171,405,l),
(158,419,l),
(165,434,l),
(152,448,l),
(165,457,l),
(161,473,l),
(157,488,l),
(166,516,l),
(176,534,l),
(171,553,l),
(182,570,l),
(191,592,l),
(201,614,l),
(203,623,l),
(240,633,l),
(266,629,l),
(289,613,l),
(292,605,l),
(290,588,l),
(300,578,l),
(295,565,l),
(301,545,l),
(298,533,l),
(301,517,l),
(296,493,l),
(295,473,l),
(279,456,l),
(275,446,l),
(276,431,l),
(267,403,l),
(246,389,l),
(218,377,l)
);
},
{
closed = 1;
nodes = (
(560,-19,l),
(575,-22,l),
(591,-20,l),
(605,-16,l),
(620,-7,l),
(639,1,l),
(659,9,l),
(672,14,l),
(684,23,l),
(691,39,l),
(702,46,l),
(717,64,l),
(719,74,l),
(727,90,l),
(730,105,l),
(728,116,l),
(736,132,l),
(734,145,l),
(742,164,l),
(748,176,l),
(754,192,l),
(753,214,l),
(747,229,l),
(743,236,l),
(742,249,l),
(747,270,l),
(740,281,l),
(738,294,l),
(721,305,l),
(718,318,l),
(713,325,l),
(691,333,l),
(677,347,l),
(676,349,l),
(662,350,l),
(642,356,l),
(622,362,l),
(609,359,l),
(595,356,l),
(578,358,l),
(559,353,l),
(550,346,l),
(540,346,l),
(524,338,l),
(509,325,l),
(493,315,l),
(486,311,l),
(475,292,l),
(463,281,l),
(458,272,l),
(449,253,l),
(443,240,l),
(438,232,l),
(433,210,l),
(428,198,l),
(416,187,l),
(420,166,l),
(422,153,l),
(415,137,l),
(414,126,l),
(412,107,l),
(418,92,l),
(425,83,l),
(415,62,l),
(424,51,l),
(427,40,l),
(437,24,l),
(451,20,l),
(465,7,l),
(470,3,l),
(475,-1,l),
(499,-12,l),
(509,-18,l),
(525,-14,l),
(541,-23,l)
);
},
{
closed = 1;
nodes = (
(543,47,l),
(534,50,l),
(530,55,l),
(518,69,l),
(521,86,l),
(514,101,l),
(511,107,l),
(517,121,l),
(515,156,l),
(514,180,l),
(518,202,l),
(520,218,l),
(528,232,l),
(536,249,l),
(539,257,l),
(558,272,l),
(567,287,l),
(584,296,l),
(620,299,l),
(629,291,l),
(640,277,l),
(642,262,l),
(653,249,l),
(644,236,l),
(658,223,l),
(644,206,l),
(650,190,l),
(651,174,l),
(641,143,l),
(632,126,l),
(636,101,l),
(626,81,l),
(613,68,l),
(593,47,l),
(574,45,l)
);
}
);
width = 777;
},
{
hints = (
{
horizontal = 1;
place = (-10,41);
type = Stem;
},
{
horizontal = 1;
place = (325,41);
type = Stem;
},
{
horizontal = 1;
place = (644,41);
type = Stem;
},
{
place = (3,110);
type = Stem;
},
{
place = (245,110);
type = Stem;
},
{
place = (420,98);
type = Stem;
},
{
place = (650,98);
type = Stem;
},
{
horizontal = 1;
place = (0,21);
target = up;
type = BottomGhost;
},
{
horizontal = 1;
place = (309,41);
type = Stem;
}
);
layerId = m002;
shapes = (
{
closed = 1;
nodes = (
(151,-55,l),
(158,-61,l),
(177,-61,l),
(195,-65,l),
(201,-59,l),
(228,-49,l),
(240,-41,l),
(254,-21,l),
(263,-8,l),
(277,8,l),
(284,20,l),
(293,34,l),
(308,45,l),
(314,65,l),
(325,78,l),
(328,92,l),
(343,97,l),
(350,110,l),
(359,131,l),
(372,143,l),
(387,169,l),
(392,184,l),
(415,207,l),
(424,223,l),
(439,231,l),
(459,262,l),
(475,285,l),
(489,297,l),
(489,309,l),
(510,325,l),
(522,333,l),
(531,343,l),
(529,358,l),
(538,377,l),
(547,383,l),
(558,399,l),
(579,421,l),
(589,441,l),
(599,452,l),
(614,460,l),
(618,477,l),
(635,488,l),
(638,501,l),
(650,517,l),
(659,527,l),
(682,542,l),
(693,568,l),
(702,576,l),
(722,586,l),
(722,599,l),
(739,625,l),
(755,638,l),
(753,660,l),
(759,665,l),
(756,682,l),
(738,690,l),
(729,698,l),
(709,710,l),
(692,715,l),
(667,715,l),
(652,705,l),
(635,694,l),
(613,669,l),
(613,660,l),
(601,649,l),
(589,627,l),
(572,621,l),
(577,606,l),
(553,592,l),
(557,581,l),
(534,571,l),
(527,556,l),
(516,541,l),
(516,533,l),
(500,516,l),
(478,490,l),
(466,482,l),
(458,469,l),
(448,454,l),
(449,441,l),
(427,424,l),
(424,412,l),
(418,397,l),
(409,391,l),
(392,375,l),
(387,364,l),
(368,352,l),
(367,338,l),
(351,326,l),
(350,314,l),
(335,295,l),
(321,286,l),
(314,271,l),
(305,266,l),
(297,248,l),
(275,237,l),
(273,222,l),
(266,214,l),
(251,202,l),
(245,184,l),
(231,173,l),
(214,162,l),
(205,145,l),
(191,120,l),
(176,105,l),
(167,94,l),
(160,84,l),
(144,64,l),
(115,29,l),
(109,17,l),
(110,3,l),
(114,-15,l),
(119,-31,l),
(138,-48,l)
);
},
{
closed = 1;
nodes = (
(219,287,l),
(237,298,l),
(251,293,l),
(283,305,l),
(287,316,l),
(302,318,l),
(338,339,l),
(344,342,l),
(358,354,l),
(375,371,l),
(377,378,l),
(391,389,l),
(400,409,l),
(410,423,l),
(409,433,l),
(419,445,l),
(428,456,l),
(430,473,l),
(436,493,l),
(436,522,l),
(444,534,l),
(441,544,l),
(432,568,l),
(441,580,l),
(432,591,l),
(432,610,l),
(420,623,l),
(420,630,l),
(418,644,l),
(401,661,l),
(383,674,l),
(377,689,l),
(360,691,l),
(353,702,l),
(335,704,l),
(324,708,l),
(307,715,l),
(303,720,l),
(287,721,l),
(256,724,l),
(230,722,l),
(227,719,l),
(211,714,l),
(188,706,l),
(181,705,l),
(155,690,l),
(149,683,l),
(131,676,l),
(127,668,l),
(102,654,l),
(100,644,l),
(89,631,l),
(80,622,l),
(73,602,l),
(62,589,l),
(50,573,l),
(48,561,l),
(37,549,l),
(41,537,l),
(29,521,l),
(29,493,l),
(35,475,l),
(34,462,l),
(28,445,l),
(28,425,l),
(34,418,l),
(34,400,l),
(44,387,l),
(45,371,l),
(54,363,l),
(57,345,l),
(68,342,l),
(73,330,l),
(96,318,l),
(98,312,l),
(109,308,l),
(130,294,l),
(158,292,l),
(178,293,l),
(182,285,l)
);
},
{
closed = 1;
nodes = (
(207,405,l),
(194,405,l),
(200,417,l),
(187,433,l),
(190,440,l),
(184,459,l),
(183,479,l),
(186,490,l),
(190,503,l),
(197,525,l),
(205,538,l),
(206,554,l),
(205,569,l),
(214,585,l),
(221,600,l),
(234,607,l),
(245,604,l),
(261,600,l),
(275,589,l),
(271,578,l),
(279,570,l),
(272,552,l),
(275,535,l),
(272,526,l),
(269,515,l),
(268,503,l),
(268,490,l),
(268,472,l),
(272,459,l),
(266,447,l),
(260,438,l),
(251,428,l),
(243,414,l),
(234,410,l),
(222,405,l)
);
},
{
closed = 1;
nodes = (
(632,-47,l),
(648,-41,l),
(652,-37,l),
(666,-41,l),
(695,-32,l),
(721,-25,l),
(741,-11,l),
(743,-4,l),
(764,2,l),
(763,14,l),
(774,28,l),
(790,42,l),
(802,63,l),
(799,69,l),
(807,88,l),
(818,107,l),
(816,114,l),
(828,133,l),
(832,146,l),
(842,180,l),
(837,189,l),
(840,211,l),
(832,224,l),
(838,236,l),
(829,255,l),
(840,270,l),
(828,283,l),
(818,289,l),
(820,317,l),
(810,326,l),
(803,338,l),
(792,348,l),
(781,362,l),
(767,364,l),
(745,371,l),
(735,377,l),
(719,377,l),
(703,385,l),
(694,388,l),
(671,388,l),
(642,383,l),
(619,378,l),
(588,366,l),
(577,357,l),
(562,350,l),
(545,340,l),
(541,327,l),
(516,313,l),
(518,304,l),
(498,290,l),
(497,274,l),
(484,262,l),
(473,242,l),
(479,226,l),
(466,205,l),
(451,180,l),
(461,158,l),
(459,136,l),
(451,128,l),
(458,91,l),
(460,78,l),
(451,70,l),
(465,56,l),
(468,38,l),
(475,25,l),
(491,10,l),
(496,-2,l),
(501,-9,l),
(510,-21,l),
(535,-31,l),
(544,-29,l),
(554,-41,l),
(575,-42,l),
(587,-48,l),
(600,-46,l)
);
},
{
closed = 1;
nodes = (
(649,70,l),
(636,69,l),
(621,67,l),
(611,66,l),
(611,80,l),
(605,98,l),
(600,108,l),
(601,127,l),
(598,143,l),
(599,151,l),
(602,165,l),
(604,177,l),
(606,187,l),
(614,201,l),
(615,214,l),
(619,236,l),
(626,244,l),
(640,261,l),
(647,266,l),
(660,266,l),
(679,265,l),
(679,252,l),
(691,244,l),
(690,228,l),
(686,211,l),
(687,192,l),
(690,178,l),
(685,168,l),
(676,147,l),
(682,137,l),
(681,118,l),
(677,102,l),
(674,95,l),
(668,84,l),
(660,71,l)
);
}
);
width = 853;
},
{
hints = (
{
horizontal = 1;
place = (-10,41);
type = Stem;
},
{
horizontal = 1;
place = (325,41);
type = Stem;
},
{
horizontal = 1;
place = (644,41);
type = Stem;
},
{
place = (3,110);
type = Stem;
},
{
place = (245,110);
type = Stem;
},
{
place = (420,98);
type = Stem;
},
{
place = (650,98);
type = Stem;
},
{
horizontal = 1;
place = (0,21);
target = up;
type = BottomGhost;
},
{
horizontal = 1;
place = (309,41);
type = Stem;
}
);
layerId = m003;
shapes = (
{
closed = 1;
nodes = (
(141,-27,l),
(152,-32,l),
(171,-24,l),
(191,-6,l),
(201,12,l),
(216,21,l),
(223,35,l),
(228,48,l),
(233,64,l),
(247,80,l),
(261,93,l),
(274,109,l),
(273,122,l),
(282,134,l),
(289,140,l),
(301,149,l),
(302,157,l),
(318,173,l),
(324,187,l),
(338,194,l),
(350,212,l),
(348,222,l),
(357,235,l),
(376,250,l),
(382,266,l),
(389,279,l),
(406,288,l),
(410,305,l),
(429,319,l),
(431,332,l),
(447,340,l),
(451,356,l),
(460,370,l),
(471,381,l),
(481,395,l),
(495,408,l),
(501,421,l),
(515,428,l),
(526,447,l),
(539,458,l),
(539,472,l),
(564,493,l),
(568,503,l),
(588,515,l),
(594,530,l),
(609,542,l),
(614,558,l),
(628,575,l),
(636,588,l),
(646,597,l),
(653,610,l),
(665,617,l),
(670,632,l),
(673,643,l),
(676,651,l),
(681,659,l),
(664,680,l),
(660,681,l),
(643,681,l),
(628,672,l),
(616,652,l),
(599,643,l),
(592,629,l),
(575,611,l),
(573,601,l),
(561,585,l),
(549,574,l),
(542,562,l),
(536,548,l),
(515,535,l),
(506,525,l),
(500,516,l),
(488,502,l),
(485,485,l),
(471,475,l),
(467,458,l),
(458,450,l),
(446,433,l),
(432,422,l),
(415,408,l),
(406,391,l),
(401,388,l),
(389,371,l),
(375,359,l),
(373,343,l),
(361,329,l),
(357,323,l),
(349,314,l),
(337,298,l),
(328,278,l),
(322,273,l),
(311,266,l),
(299,258,l),
(292,247,l),
(283,235,l),
(271,222,l),
(262,201,l),
(244,188,l),
(244,179,l),
(235,169,l),
(226,155,l),
(213,142,l),
(204,125,l),
(190,121,l),
(184,101,l),
(176,94,l),
(164,77,l),
(157,63,l),
(145,49,l),
(131,41,l),
(119,17,l),
(109,2,l),
(120,-14,l),
(119,-20,l)
);
},
{
closed = 1;
nodes = (
(206,326,l),
(217,327,l),
(227,328,l),
(243,334,l),
(260,342,l),
(282,346,l),
(291,348,l),
(303,361,l),
(315,370,l),
(322,377,l),
(333,391,l),
(346,401,l),
(354,409,l),
(364,419,l),
(366,433,l),
(373,449,l),
(378,458,l),
(387,474,l),
(385,489,l),
(386,502,l),
(388,513,l),
(389,523,l),
(395,532,l),
(390,548,l),
(398,568,l),
(393,577,l),
(384,597,l),
(388,610,l),
(379,613,l),
(372,616,l),
(366,634,l),
(358,643,l),
(349,654,l),
(347,665,l),
(331,671,l),
(313,675,l),
(305,675,l),
(288,680,l),
(280,682,l),
(264,683,l),
(246,679,l),
(228,680,l),
(216,680,l),
(215,683,l),
(191,675,l),
(184,670,l),
(167,660,l),
(153,657,l),
(146,656,l),
(134,641,l),
(128,632,l),
(115,624,l),
(106,609,l),
(90,596,l),
(85,576,l),
(81,564,l),
(73,547,l),
(73,539,l),
(72,531,l),
(68,516,l),
(63,506,l),
(58,498,l),
(53,487,l),
(63,475,l),
(61,455,l),
(66,445,l),
(63,429,l),
(69,415,l),
(65,398,l),
(77,384,l),
(76,376,l),
(85,360,l),
(98,354,l),
(107,349,l),
(117,346,l),
(128,334,l),
(134,335,l),
(149,325,l),
(170,323,l),
(183,321,l)
);
},
{
closed = 1;
nodes = (
(190,367,l),
(162,375,l),
(160,393,l),
(148,399,l),
(149,420,l),
(143,431,l),
(140,443,l),
(150,458,l),
(142,485,l),
(160,517,l),
(154,537,l),
(155,548,l),
(167,571,l),
(161,579,l),
(167,593,l),
(194,619,l),
(205,630,l),
(235,646,l),
(255,638,l),
(270,641,l),
(293,621,l),
(307,605,l),
(303,596,l),
(300,576,l),
(306,560,l),
(302,532,l),
(303,518,l),
(300,464,l),
(285,443,l),
(281,434,l),
(276,414,l),
(266,393,l),
(244,385,l),
(235,372,l),
(223,370,l)
);
},
{
closed = 1;
nodes = (
(555,-10,l),
(567,-13,l),
(586,-9,l),
(595,-9,l),
(615,-6,l),
(630,-1,l),
(646,6,l),
(655,21,l),
(668,26,l),
(681,37,l),
(686,46,l),
(692,59,l),
(701,77,l),
(704,85,l),
(710,95,l),
(716,105,l),
(721,120,l),
(720,134,l),
(721,144,l),
(733,163,l),
(740,175,l),
(741,198,l),
(732,207,l),
(736,225,l),
(728,235,l),
(732,258,l),
(723,264,l),
(731,280,l),
(714,294,l),
(715,302,l),
(705,321,l),
(694,326,l),
(688,330,l),
(678,338,l),
(654,347,l),
(643,348,l),
(624,345,l),
(610,347,l),
(596,349,l),
(582,350,l),
(574,350,l),
(557,348,l),
(551,340,l),
(533,337,l),
(513,327,l),
(511,315,l),
(492,302,l),
(477,294,l),
(471,280,l),
(460,273,l),
(453,252,l),
(450,246,l),
(441,225,l),
(437,217,l),
(423,196,l),
(433,180,l),
(428,170,l),
(422,155,l),
(414,137,l),
(418,122,l),
(427,108,l),
(418,97,l),
(432,82,l),
(426,70,l),
(437,50,l),
(439,42,l),
(446,27,l),
(462,20,l),
(466,11,l),
(486,5,l),
(489,-1,l),
(501,-2,l),
(515,-4,l),
(529,-6,l),
(543,-7,l)
);
},
{
closed = 1;
nodes = (
(542,27,l),
(527,36,l),
(525,44,l),
(497,65,l),
(506,77,l),
(494,94,l),
(491,111,l),
(498,122,l),
(498,143,l),
(498,182,l),
(510,198,l),
(505,211,l),
(518,231,l),
(523,244,l),
(525,263,l),
(542,270,l),
(544,284,l),
(557,294,l),
(576,303,l),
(629,305,l),
(648,281,l),
(660,252,l),
(652,234,l),
(659,219,l),
(662,206,l),
(651,194,l),
(660,181,l),
(648,148,l),
(648,135,l),
(636,99,l),
(626,85,l),
(617,65,l),
(599,44,l),
(581,32,l),
(576,36,l)
);
}
);
width = 781;
}
);
metricLeft = "=S";
metricRight = "=S";
note = percent;
unicode = 37;
userData = {
KernOnSpecialSpacing = {
L = "spaced-off";
};
};
}
{
glyphname = quotesingle;
kernLeft = KO_quotedbl;
kernRight = KO_quotedbl;
layers = (
{
hints = (
{
horizontal = 1;
place = (500,200);
type = Stem;
},
{
place = (-15,62.5);
type = Stem;
}
);
layerId = m005;
shapes = (
{
closed = 1;
nodes = (
(127,504,l),
(146,501,l),
(160,515,l),
(167,524,l),
(171,537,l),
(174,550,l),
(178,565,l),
(180,574,l),
(193,581,l),
(195,600,l),
(199,615,l),
(191,630,l),
(197,646,l),
(201,657,l),
(201,673,l),
(187,685,l),
(180,692,l),
(165,694,l),
(151,697,l),
(134,689,l),
(126,683,l),
(115,673,l),
(112,659,l),
(108,645,l),
(103,627,l),
(104,620,l),
(97,601,l),
(97,584,l),
(99,574,l),
(97,566,l),
(92,552,l),
(95,539,l),
(101,520,l),
(101,510,l),
(114,506,l)
);
}
);
width = 174;
},
{
hints = (
{
horizontal = 1;
place = (500,200);
type = Stem;
},
{
place = (-12,62.5);
type = Stem;
}
);
layerId = m002;
shapes = (
{
closed = 1;
nodes = (
(185,458,l),
(196,458,l),
(210,470,l),
(239,490,l),
(249,506,l),
(260,521,l),
(264,547,l),
(274,563,l),
(278,582,l),
(272,595,l),
(283,624,l),
(276,640,l),
(279,660,l),
(267,680,l),
(254,684,l),
(236,705,l),
(225,715,l),
(208,711,l),
(166,712,l),
(154,704,l),
(121,693,l),
(112,676,l),
(111,664,l),
(92,655,l),
(93,642,l),
(84,621,l),
(82,589,l),
(86,564,l),
(77,555,l),
(71,523,l),
(85,511,l),
(84,496,l),
(97,474,l),
(134,457,l),
(147,452,l)
);
}
);
width = 198;
},
{
hints = (
{
horizontal = 1;
place = (500,200);
type = Stem;
},
{
place = (-15,62.5);
type = Stem;
}
);
layerId = m003;
shapes = (
{
closed = 1;
nodes = (
(145,500,l),
(158,499,l),
(171,499,l),
(183,508,l),
(192,516,l),
(193,533,l),
(193,544,l),
(200,562,l),
(196,574,l),
(209,590,l),
(207,606,l),
(212,617,l),
(218,629,l),
(215,644,l),
(217,654,l),
(218,666,l),
(218,676,l),
(216,687,l),
(199,692,l),
(175,697,l),
(157,692,l),
(151,675,l),
(149,660,l),
(147,645,l),
(143,633,l),
(137,620,l),
(133,611,l),
(136,591,l),
(134,582,l),
(134,570,l),
(134,557,l),
(134,544,l),
(135,530,l),
(135,516,l),
(135,500,l)
);
}
);
width = 182;
}
);
metricLeft = "=period";
metricRight = "=period";
note = quotesingle;
unicode = 39;
userData = {
KernOnSpecialSpacing = {
L = quotes;
R = quotes;
};
};
}
{
glyphname = asterisk;
layers = (
{
hints = (
{
horizontal = 1;
place = (350,400);
type = Stem;
},
{
place = (156,65);
type = Stem;
}
);
layerId = m005;
shapes = (
{
closed = 1;
nodes = (
(237,354,l),
(255,362,l),
(264,375,l),
(263,393,l),
(261,405,l),
(273,425,l),
(273,442,l),
(295,436,l),
(300,426,l),
(317,422,l),
(332,412,l),
(348,411,l),
(363,422,l),
(381,447,l),
(389,461,l),
(389,480,l),
(383,493,l),
(369,511,l),
(351,512,l),
(344,524,l),
(339,532,l),
(356,542,l),
(369,550,l),
(383,560,l),
(393,568,l),
(405,579,l),
(413,587,l),
(409,598,l),
(407,629,l),
(395,631,l),
(384,636,l),
(373,641,l),
(356,633,l),
(341,627,l),
(335,614,l),
(318,610,l),
(298,596,l),
(295,608,l),
(292,621,l),
(295,631,l),
(305,652,l),
(296,679,l),
(300,686,l),
(286,695,l),
(253,694,l),
(236,690,l),
(224,687,l),
(216,671,l),
(216,649,l),
(217,632,l),
(206,617,l),
(207,610,l),
(208,595,l),
(196,604,l),
(189,609,l),
(176,613,l),
(167,619,l),
(145,631,l),
(128,628,l),
(121,628,l),
(101,596,l),
(99,578,l),
(102,569,l),
(129,551,l),
(137,549,l),
(148,534,l),
(155,522,l),
(147,512,l),
(127,501,l),
(113,492,l),
(98,486,l),
(80,478,l),
(76,469,l),
(80,453,l),
(81,428,l),
(96,416,l),
(110,409,l),
(126,415,l),
(139,419,l),
(152,432,l),
(159,441,l),
(175,443,l),
(185,425,l),
(179,415,l),
(171,402,l),
(173,392,l),
(177,379,l),
(176,360,l),
(183,360,l),
(202,349,l)
);
}
);
width = 393;
},
{
hints = (
{
horizontal = 1;
place = (350,400);
type = Stem;
},
{
place = (156,65);
type = Stem;
}
);
layerId = m002;
shapes = (
{
closed = 1;
nodes = (
(222,327,l),
(241,325,l),
(253,325,l),
(265,339,l),
(287,347,l),
(293,359,l),
(300,376,l),
(310,389,l),
(314,401,l),
(326,394,l),
(338,382,l),
(352,381,l),
(359,388,l),
(371,392,l),
(388,405,l),
(399,413,l),
(419,435,l),
(433,454,l),
(434,468,l),
(435,487,l),
(430,502,l),
(403,525,l),
(399,533,l),
(398,541,l),
(427,548,l),
(437,555,l),
(440,570,l),
(450,587,l),
(450,601,l),
(454,611,l),
(439,640,l),
(436,644,l),
(422,655,l),
(411,667,l),
(398,665,l),
(370,660,l),
(357,651,l),
(339,649,l),
(345,661,l),
(335,679,l),
(338,694,l),
(332,701,l),
(327,718,l),
(311,724,l),
(295,720,l),
(265,718,l),
(263,720,l),
(246,713,l),
(228,705,l),
(209,693,l),
(208,673,l),
(199,656,l),
(199,641,l),
(192,649,l),
(180,649,l),
(167,658,l),
(156,661,l),
(130,654,l),
(117,642,l),
(111,633,l),
(84,608,l),
(80,595,l),
(89,584,l),
(85,575,l),
(96,557,l),
(95,549,l),
(110,530,l),
(132,525,l),
(109,517,l),
(92,503,l),
(84,489,l),
(75,481,l),
(68,463,l),
(62,447,l),
(60,440,l),
(70,412,l),
(87,401,l),
(96,388,l),
(111,380,l),
(115,386,l),
(136,382,l),
(149,393,l),
(166,402,l),
(159,394,l),
(155,372,l),
(161,361,l),
(167,350,l),
(179,332,l),
(191,334,l),
(210,328,l)
);
}
);
width = 374;
},
{
hints = (
{
horizontal = 1;
place = (350,400);
type = Stem;
},
{
place = (156,65);
type = Stem;
}
);
layerId = m003;
shapes = (
{
closed = 1;
nodes = (
(265,349,l),
(285,359,l),
(300,391,l),
(292,404,l),
(300,418,l),
(307,429,l),
(298,442,l),
(312,464,l),
(325,459,l),
(337,443,l),
(341,441,l),
(358,428,l),
(368,421,l),
(391,406,l),
(405,423,l),
(430,440,l),
(433,459,l),
(426,475,l),
(402,489,l),
(396,491,l),
(382,502,l),
(377,511,l),
(363,521,l),
(344,523,l),
(362,543,l),
(380,543,l),
(395,553,l),
(407,564,l),
(420,573,l),
(439,589,l),
(456,605,l),
(441,634,l),
(428,635,l),
(410,634,l),
(395,620,l),
(382,609,l),
(360,610,l),
(340,594,l),
(326,584,l),
(321,603,l),
(322,616,l),
(332,630,l),
(325,638,l),
(336,654,l),
(332,682,l),
(327,698,l),
(287,698,l),
(273,691,l),
(267,659,l),
(273,641,l),
(269,626,l),
(259,616,l),
(262,596,l),
(252,581,l),
(249,593,l),
(228,601,l),
(220,605,l),
(199,608,l),
(202,624,l),
(172,635,l),
(154,628,l),
(131,598,l),
(140,593,l),
(162,568,l),
(175,565,l),
(186,557,l),
(188,551,l),
(207,539,l),
(224,524,l),
(216,514,l),
(203,507,l),
(185,502,l),
(172,486,l),
(153,483,l),
(141,481,l),
(115,457,l),
(116,445,l),
(117,417,l),
(129,406,l),
(163,425,l),
(185,433,l),
(199,441,l),
(221,459,l),
(237,467,l),
(235,452,l),
(232,434,l),
(231,416,l),
(225,393,l),
(220,365,l),
(232,356,l)
);
}
);
width = 424;
}
);
metricLeft = "=period";
metricRight = period;
note = asterisk;
unicode = 42;
userData = {
KernOnSpecialSpacing = {
L = quotes;
R = quotes;
};
};
}
{
glyphname = slash;
kernLeft = KO_slash;
kernRight = KO_slash;
layers = (
{
hints = (
{
horizontal = 1;
place = (0,21);
target = up;
type = BottomGhost;
},
{
place = (-38,405);
type = Stem;
}
);
layerId = m005;
shapes = (
{
closed = 1;
nodes = (
(29,-93,l),
(47,-93,l),
(65,-84,l),
(66,-72,l),
(86,-67,l),
(95,-42,l),
(105,-23,l),
(108,4,l),
(125,18,l),
(127,38,l),
(124,45,l),
(139,62,l),
(135,74,l),
(143,92,l),
(155,111,l),
(154,126,l),
(160,138,l),
(176,154,l),
(171,170,l),
(183,175,l),
(195,199,l),
(195,212,l),
(209,224,l),
(212,237,l),
(219,250,l),
(220,263,l),
(224,282,l),
(237,297,l),
(237,314,l),
(240,321,l),
(252,342,l),
(263,359,l),
(258,370,l),
(265,387,l),
(272,395,l),
(274,415,l),
(291,431,l),
(298,445,l),
(305,452,l),
(312,470,l),
(318,489,l),
(320,503,l),
(326,518,l),
(331,526,l),
(335,543,l),
(347,559,l),
(343,569,l),
(350,589,l),
(367,601,l),
(360,617,l),
(370,649,l),
(374,659,l),
(370,672,l),
(357,682,l),
(326,694,l),
(307,683,l),
(302,679,l),
(289,669,l),
(270,640,l),
(262,626,l),
(262,616,l),
(246,598,l),
(247,586,l),
(236,566,l),
(228,549,l),
(230,540,l),
(219,524,l),
(214,510,l),
(213,493,l),
(199,481,l),
(194,468,l),
(186,446,l),
(193,438,l),
(177,416,l),
(180,404,l),
(170,392,l),
(163,378,l),
(151,364,l),
(143,349,l),
(150,333,l),
(131,315,l),
(128,308,l),
(126,289,l),
(113,270,l),
(111,265,l),
(100,245,l),
(107,232,l),
(90,215,l),
(88,199,l),
(86,190,l),
(68,178,l),
(63,154,l),
(64,145,l),
(56,127,l),
(44,120,l),
(46,98,l),
(27,82,l),
(32,75,l),
(15,54,l),
(19,46,l),
(11,31,l),
(2,3,l),
(-4,-12,l),
(-22,-43,l),
(-18,-57,l),
(-15,-77,l),
(8,-83,l)
);
}
);
width = 365;
},
{
hints = (
{
horizontal = 1;
place = (0,21);
target = up;
type = BottomGhost;
},
{
place = (-38,405);
type = Stem;
}
);
layerId = m002;
shapes = (
{
closed = 1;
nodes = (
(19,-103,l),
(32,-101,l),
(44,-108,l),
(66,-103,l),
(70,-98,l),
(98,-82,l),
(119,-65,l),
(135,-57,l),
(144,-43,l),
(146,-13,l),
(163,16,l),
(165,29,l),
(175,40,l),
(184,59,l),
(187,76,l),
(194,89,l),
(194,106,l),
(207,115,l),
(216,135,l),
(229,157,l),
(230,174,l),
(234,189,l),
(249,209,l),
(252,222,l),
(261,229,l),
(268,247,l),
(271,261,l),
(273,279,l),
(289,291,l),
(292,304,l),
(303,332,l),
(304,349,l),
(317,362,l),
(319,374,l),
(332,392,l),
(346,425,l),
(345,440,l),
(362,469,l),
(374,481,l),
(372,498,l),
(379,507,l),
(393,520,l),
(391,538,l),
(405,549,l),
(409,568,l),
(413,600,l),
(426,613,l),
(423,642,l),
(410,652,l),
(411,663,l),
(400,688,l),
(385,693,l),
(373,702,l),
(340,701,l),
(331,708,l),
(321,701,l),
(294,695,l),
(266,687,l),
(262,677,l),
(246,672,l),
(230,643,l),
(218,616,l),
(204,592,l),
(194,571,l),
(199,562,l),
(192,549,l),
(182,532,l),
(170,512,l),
(168,500,l),
(163,473,l),
(150,458,l),
(151,449,l),
(137,429,l),
(134,411,l),
(124,403,l),
(116,387,l),
(106,373,l),
(93,341,l),
(91,327,l),
(81,315,l),
(83,307,l),
(64,290,l),
(64,271,l),
(55,249,l),
(45,236,l),
(37,217,l),
(36,203,l),
(18,186,l),
(6,162,l),
(-2,144,l),
(-3,132,l),
(-9,120,l),
(-26,101,l),
(-20,89,l),
(-38,77,l),
(-37,62,l),
(-46,53,l),
(-52,34,l),
(-57,7,l),
(-66,-22,l),
(-65,-38,l),
(-67,-50,l),
(-58,-64,l),
(-39,-69,l),
(-32,-86,l),
(-25,-91,l),
(-9,-91,l)
);
}
);
width = 365;
},
{
hints = (
{
horizontal = 1;
place = (0,21);
target = up;
type = BottomGhost;
},
{
place = (-37,405);
type = Stem;
}
);
layerId = m003;
shapes = (
{
closed = 1;
nodes = (
(36,-94,l),
(53,-84,l),
(64,-82,l),
(67,-73,l),
(88,-43,l),
(90,-29,l),
(99,-14,l),
(108,1,l),
(113,16,l),
(117,28,l),
(123,39,l),
(121,53,l),
(124,69,l),
(135,84,l),
(149,98,l),
(149,113,l),
(151,128,l),
(158,141,l),
(158,155,l),
(173,177,l),
(171,191,l),
(192,208,l),
(190,213,l),
(202,229,l),
(195,248,l),
(212,263,l),
(216,275,l),
(223,289,l),
(226,305,l),
(232,323,l),
(232,331,l),
(245,349,l),
(248,361,l),
(262,383,l),
(260,392,l),
(274,405,l),
(269,427,l),
(279,436,l),
(278,452,l),
(298,464,l),
(304,480,l),
(308,493,l),
(314,513,l),
(312,528,l),
(324,536,l),
(331,550,l),
(330,570,l),
(346,581,l),
(342,594,l),
(359,611,l),
(363,631,l),
(362,662,l),
(363,676,l),
(352,688,l),
(334,693,l),
(308,685,l),
(301,682,l),
(280,654,l),
(268,630,l),
(273,623,l),
(261,603,l),
(252,593,l),
(249,575,l),
(240,558,l),
(239,549,l),
(229,529,l),
(229,521,l),
(231,505,l),
(212,487,l),
(210,472,l),
(206,464,l),
(200,447,l),
(199,431,l),
(191,417,l),
(184,401,l),
(173,391,l),
(175,372,l),
(158,364,l),
(165,342,l),
(155,329,l),
(150,314,l),
(138,305,l),
(133,287,l),
(126,268,l),
(124,258,l),
(118,240,l),
(110,225,l),
(108,211,l),
(97,198,l),
(96,185,l),
(80,169,l),
(73,160,l),
(79,147,l),
(61,129,l),
(64,117,l),
(60,97,l),
(46,84,l),
(35,69,l),
(32,62,l),
(24,45,l),
(19,32,l),
(14,15,l),
(6,4,l),
(3,-12,l),
(1,-27,l),
(-11,-63,l),
(-4,-75,l)
);
}
);
width = 365;
}
);
note = slash;
unicode = 47;
userData = {
KernOnSpecialSpacing = {
L = slash;
R = slash;
};
};
}
{
glyphname = zero;
kernLeft = KO_zero;
kernRight = KO_zero;
layers = (
{
hints = (
{
horizontal = 1;
place = (-10,80);
type = Stem;
},
{
horizontal = 1;
place = (597,80);
type = Stem;
},
{
place = (-13,110);
type = Stem;
},
{
place = (377,110);
type = Stem;
}
);
layerId = m005;
shapes = (
{
closed = 1;
nodes = (
(264,-5,l),
(277,-10,l),
(302,-8,l),
(315,0,l),
(333,5,l),
(333,6,l),
(359,14,l),
(362,20,l),
(380,29,l),
(390,36,l),
(411,45,l),
(423,55,l),
(428,66,l),
(438,86,l),
(456,99,l),
(458,109,l),
(473,119,l),
(473,135,l),
(488,147,l),
(485,161,l),
(501,183,l),
(506,193,l),
(514,211,l),
(506,224,l),
(516,257,l),
(516,270,l),
(522,288,l),
(527,317,l),
(521,327,l),
(529,343,l),
(522,361,l),
(528,373,l),
(527,390,l),
(525,406,l),
(525,418,l),
(523,430,l),
(518,445,l),
(526,465,l),
(520,482,l),
(521,494,l),
(513,508,l),
(503,519,l),
(501,529,l),
(491,537,l),
(489,553,l),
(479,562,l),
(462,576,l),
(450,585,l),
(442,592,l),
(440,599,l),
(414,595,l),
(395,606,l),
(376,604,l),
(358,614,l),
(326,607,l),
(298,606,l),
(278,602,l),
(265,596,l),
(250,588,l),
(235,587,l),
(222,585,l),
(203,574,l),
(186,569,l),
(181,553,l),
(170,550,l),
(150,539,l),
(144,523,l),
(124,515,l),
(113,503,l),
(117,492,l),
(97,478,l),
(98,457,l),
(88,443,l),
(78,430,l),
(69,421,l),
(68,401,l),
(71,386,l),
(57,376,l),
(60,357,l),
(54,341,l),
(55,330,l),
(43,319,l),
(36,286,l),
(37,265,l),
(44,255,l),
(43,241,l),
(40,224,l),
(42,204,l),
(30,193,l),
(32,182,l),
(35,159,l),
(35,147,l),
(43,131,l),
(50,121,l),
(42,103,l),
(55,97,l),
(67,84,l),
(66,74,l),
(80,57,l),
(91,51,l),
(91,37,l),
(105,34,l),
(109,21,l),
(122,15,l),
(129,5,l),
(143,5,l),
(171,1,l),
(184,0,l),
(191,-11,l),
(210,-11,l),
(222,-12,l),
(247,-14,l)
);
},
{
closed = 1;
nodes = (
(190,84,l),
(174,91,l),
(170,99,l),
(162,108,l),
(151,125,l),
(153,139,l),
(141,153,l),
(140,169,l),
(133,181,l),
(137,196,l),
(131,208,l),
(143,223,l),
(132,241,l),
(143,257,l),
(134,274,l),
(148,285,l),
(154,318,l),
(145,329,l),
(152,342,l),
(156,364,l),
(158,376,l),
(163,398,l),
(175,410,l),
(171,425,l),
(182,443,l),
(196,448,l),
(195,471,l),
(209,483,l),
(217,491,l),
(235,500,l),
(242,512,l),
(258,519,l),
(283,519,l),
(302,528,l),
(335,535,l),
(348,534,l),
(370,528,l),
(375,519,l),
(397,521,l),
(406,500,l),
(411,488,l),
(428,478,l),
(421,462,l),
(431,448,l),
(436,427,l),
(428,420,l),
(429,399,l),
(435,390,l),
(438,369,l),
(430,363,l),
(432,344,l),
(432,331,l),
(427,319,l),
(416,289,l),
(424,271,l),
(420,253,l),
(410,239,l),
(405,226,l),
(402,190,l),
(394,176,l),
(387,162,l),
(377,150,l),
(372,138,l),
(363,129,l),
(348,119,l),
(338,104,l),
(319,97,l),
(303,88,l),
(282,80,l),
(263,82,l),
(235,74,l),
(212,74,l)
);
}
);
width = 570;
},
{
hints = (
{
horizontal = 1;
place = (-10,80);
type = Stem;
},
{
horizontal = 1;
place = (597,80);
type = Stem;
},
{
place = (-11,110);
type = Stem;
},
{
place = (379,110);
type = Stem;
}
);
layerId = m002;
shapes = (
{
closed = 1;
nodes = (
(275,-25,l),
(295,-19,l),
(313,-17,l),
(320,-15,l),
(348,-8,l),
(350,-2,l),
(367,-2,l),
(380,4,l),
(400,16,l),
(410,18,l),
(427,34,l),
(438,36,l),
(457,47,l),
(474,59,l),
(474,72,l),
(489,81,l),
(495,95,l),
(515,112,l),
(514,128,l),
(529,151,l),
(546,162,l),
(545,179,l),
(552,192,l),
(557,228,l),
(568,238,l),
(571,254,l),
(571,276,l),
(575,285,l),
(573,316,l),
(575,336,l),
(572,348,l),
(575,361,l),
(574,373,l),
(573,394,l),
(579,411,l),
(573,422,l),
(566,433,l),
(571,444,l),
(561,464,l),
(557,479,l),
(556,493,l),
(534,499,l),
(536,512,l),
(526,526,l),
(515,534,l),
(503,542,l),
(501,549,l),
(480,560,l),
(474,566,l),
(462,577,l),
(442,584,l),
(436,590,l),
(419,596,l),
(412,594,l),
(398,601,l),
(382,596,l),
(362,595,l),
(347,602,l),
(309,598,l),
(299,597,l),
(293,596,l),
(266,590,l),
(257,589,l),
(245,580,l),
(226,574,l),
(202,570,l),
(202,566,l),
(172,556,l),
(145,543,l),
(144,540,l),
(129,532,l),
(116,516,l),
(109,508,l),
(96,498,l),
(80,479,l),
(68,471,l),
(52,443,l),
(45,431,l),
(40,413,l),
(27,401,l),
(15,370,l),
(15,364,l),
(0,334,l),
(-4,319,l),
(-10,284,l),
(-13,266,l),
(-3,253,l),
(-11,235,l),
(-9,225,l),
(-5,207,l),
(-2,178,l),
(-3,168,l),
(-9,152,l),
(-1,128,l),
(4,115,l),
(19,93,l),
(16,88,l),
(38,58,l),
(55,42,l),
(63,30,l),
(72,24,l),
(88,12,l),
(103,8,l),
(114,-4,l),
(132,-12,l),
(147,-12,l),
(157,-22,l),
(177,-19,l),
(196,-20,l),
(208,-24,l),
(223,-23,l),
(267,-26,l)
);
},
{
closed = 1;
nodes = (
(234,170,l),
(221,174,l),
(213,176,l),
(201,182,l),
(202,193,l),
(203,199,l),
(197,203,l),
(189,207,l),
(193,215,l),
(199,225,l),
(194,235,l),
(190,241,l),
(195,252,l),
(197,256,l),
(196,267,l),
(196,275,l),
(196,285,l),
(197,296,l),
(199,307,l),
(200,314,l),
(205,327,l),
(206,344,l),
(209,356,l),
(214,364,l),
(220,373,l),
(233,382,l),
(238,392,l),
(243,400,l),
(254,400,l),
(263,401,l),
(269,401,l),
(274,409,l),
(279,415,l),
(287,416,l),
(299,418,l),
(310,418,l),
(322,417,l),
(330,417,l),
(342,418,l),
(347,407,l),
(356,398,l),
(363,389,l),
(368,383,l),
(379,376,l),
(381,368,l),
(384,357,l),
(382,344,l),
(377,334,l),
(374,327,l),
(372,311,l),
(371,302,l),
(372,292,l),
(372,279,l),
(369,271,l),
(372,262,l),
(374,254,l),
(367,243,l),
(362,235,l),
(352,224,l),
(346,217,l),
(352,209,l),
(343,201,l),
(337,195,l),
(323,184,l),
(314,181,l),
(307,178,l),
(298,173,l),
(287,166,l),
(278,167,l),
(270,168,l),
(259,165,l),
(248,162,l)
);
}
);
width = 570;
},
{
hints = (
{
horizontal = 1;
place = (-10,80);
type = Stem;
},
{
horizontal = 1;
place = (597,80);
type = Stem;
},
{
place = (-12,110);
type = Stem;
},
{
place = (378,110);
type = Stem;
}
);
layerId = m003;
shapes = (
{
closed = 1;
nodes = (
(287,-1,l),
(293,2,l),
(320,4,l),
(326,5,l),
(337,14,l),
(353,19,l),
(378,22,l),
(390,33,l),
(396,43,l),
(405,53,l),
(429,69,l),
(433,78,l),
(450,91,l),
(451,104,l),
(465,121,l),
(466,135,l),
(476,144,l),
(477,162,l),
(484,173,l),
(488,190,l),
(492,205,l),
(496,220,l),
(501,236,l),
(514,249,l),
(511,267,l),
(519,284,l),
(515,318,l),
(515,326,l),
(518,342,l),
(519,361,l),
(528,380,l),
(515,395,l),
(514,405,l),
(519,427,l),
(519,442,l),
(520,449,l),
(508,471,l),
(513,484,l),
(510,496,l),
(507,509,l),
(493,524,l),
(488,539,l),
(483,544,l),
(473,560,l),
(460,562,l),
(456,573,l),
(453,581,l),
(428,593,l),
(422,593,l),
(402,604,l),
(398,604,l),
(387,610,l),
(367,610,l),
(357,607,l),
(324,604,l),
(306,600,l),
(285,605,l),
(272,602,l),
(255,590,l),
(244,585,l),
(233,581,l),
(211,574,l),
(203,571,l),
(182,564,l),
(182,555,l),
(158,537,l),
(144,533,l),
(135,522,l),
(125,503,l),
(118,492,l),
(117,479,l),
(109,459,l),
(99,445,l),
(93,439,l),
(90,424,l),
(84,405,l),
(69,390,l),
(72,376,l),
(72,356,l),
(63,342,l),
(59,330,l),
(60,316,l),
(51,287,l),
(50,268,l),
(53,250,l),
(42,242,l),
(49,218,l),
(41,209,l),
(48,189,l),
(42,176,l),
(54,166,l),
(57,148,l),
(51,136,l),
(57,116,l),
(56,103,l),
(57,87,l),
(67,76,l),
(70,68,l),
(83,53,l),
(95,43,l),
(107,32,l),
(110,31,l),
(122,19,l),
(141,14,l),
(157,6,l),
(161,0,l),
(176,3,l),
(193,-5,l),
(211,-7,l),
(215,-3,l),
(248,-8,l),
(271,-11,l)
);
},
{
closed = 1;
nodes = (
(240,66,l),
(212,65,l),
(190,62,l),
(174,69,l),
(164,79,l),
(161,92,l),
(149,102,l),
(143,111,l),
(130,127,l),
(138,136,l),
(137,157,l),
(131,184,l),
(126,196,l),
(119,213,l),
(130,226,l),
(122,256,l),
(128,271,l),
(129,286,l),
(142,313,l),
(136,332,l),
(142,347,l),
(139,356,l),
(146,377,l),
(161,388,l),
(164,408,l),
(161,423,l),
(173,436,l),
(180,459,l),
(189,473,l),
(211,489,l),
(229,515,l),
(237,516,l),
(256,529,l),
(281,534,l),
(297,546,l),
(332,548,l),
(354,542,l),
(375,540,l),
(392,534,l),
(397,523,l),
(417,501,l),
(422,497,l),
(428,478,l),
(436,466,l),
(436,438,l),
(450,422,l),
(439,403,l),
(448,388,l),
(440,378,l),
(437,360,l),
(436,342,l),
(442,331,l),
(438,319,l),
(427,285,l),
(426,269,l),
(433,254,l),
(420,234,l),
(421,224,l),
(414,205,l),
(414,186,l),
(397,179,l),
(400,157,l),
(384,143,l),
(380,131,l),
(365,123,l),
(362,109,l),
(354,94,l),
(341,91,l),
(310,73,l),
(299,71,l),
(271,67,l),
(259,61,l)
);
}
);
width = 570;
}
);
note = O;
unicode = 48;
}
{
glyphname = one;
kernLeft = KO_one;
kernRight = KO_one;
layers = (
{
hints = (
{
horizontal = 1;
place = (0,70);
type = Stem;
},
{
place = (131,107);
type = Stem;
}
);
layerId = m005;
shapes = (
{
closed = 1;
nodes = (
(37,-5,l),
(62,-7,l),
(66,-10,l),
(95,-2,l),
(110,-9,l),
(116,-4,l),
(139,-5,l),
(147,-3,l),
(164,2,l),
(172,-6,l),
(201,0,l),
(212,-1,l),
(231,-3,l),
(242,1,l),
(258,1,l),
(265,-5,l),
(305,0,l),
(317,3,l),
(324,12,l),
(338,25,l),
(345,54,l),
(336,64,l),
(332,82,l),
(309,83,l),
(279,82,l),
(263,79,l),
(244,74,l),
(237,78,l),
(210,78,l),
(219,95,l),
(210,118,l),
(212,126,l),
(221,139,l),
(229,163,l),
(225,172,l),
(226,190,l),
(225,201,l),
(240,217,l),
(234,236,l),
(234,246,l),
(244,261,l),
(246,278,l),
(246,296,l),
(245,305,l),
(250,325,l),
(258,339,l),
(251,353,l),
(256,362,l),
(265,382,l),
(265,396,l),
(263,416,l),
(276,423,l),
(273,437,l),
(278,457,l),
(274,471,l),
(276,487,l),
(278,505,l),
(287,517,l),
(292,531,l),
(291,541,l),
(290,575,l),
(293,587,l),
(279,601,l),
(268,595,l),
(249,596,l),
(233,591,l),
(202,570,l),
(189,570,l),
(180,561,l),
(159,550,l),
(153,545,l),
(133,541,l),
(119,532,l),
(97,530,l),
(71,522,l),
(58,515,l),
(60,503,l),
(54,491,l),
(47,477,l),
(45,458,l),
(62,445,l),
(63,437,l),
(75,437,l),
(85,437,l),
(99,436,l),
(118,439,l),
(124,450,l),
(145,453,l),
(168,468,l),
(164,442,l),
(172,428,l),
(165,417,l),
(164,402,l),
(165,387,l),
(157,367,l),
(150,357,l),
(149,340,l),
(145,327,l),
(139,306,l),
(147,289,l),
(139,281,l),
(144,263,l),
(131,248,l),
(138,237,l),
(136,218,l),
(128,205,l),
(121,189,l),
(120,172,l),
(125,160,l),
(116,145,l),
(122,128,l),
(117,117,l),
(108,102,l),
(111,74,l),
(88,79,l),
(64,70,l),
(57,78,l),
(29,72,l),
(7,70,l),
(-2,67,l),
(-16,56,l),
(-23,19,l),
(-27,8,l),
(-6,-4,l),
(2,-3,l),
(16,-14,l)
);
}
);
width = 385;
},
{
hints = (
{
horizontal = 1;
place = (0,70);
type = Stem;
},
{
place = (130,107);
type = Stem;
}
);
layerId = m002;
shapes = (
{
closed = 1;
nodes = (
(159,-6,l),
(166,-3,l),
(206,-2,l),
(223,1,l),
(246,-1,l),
(256,-1,l),
(271,-6,l),
(285,-1,l),
(309,2,l),
(324,-2,l),
(363,1,l),
(377,11,l),
(394,10,l),
(422,39,l),
(444,61,l),
(448,71,l),
(454,100,l),
(451,118,l),
(441,133,l),
(439,141,l),
(437,154,l),
(415,165,l),
(414,175,l),
(400,176,l),
(386,182,l),
(343,182,l),
(327,198,l),
(333,210,l),
(337,219,l),
(339,234,l),
(340,244,l),
(342,257,l),
(348,263,l),
(345,274,l),
(342,284,l),
(345,298,l),
(347,303,l),
(353,314,l),
(349,327,l),
(350,340,l),
(356,352,l),
(359,360,l),
(365,369,l),
(369,376,l),
(359,386,l),
(364,395,l),
(370,403,l),
(367,414,l),
(365,421,l),
(374,439,l),
(383,451,l),
(381,461,l),
(378,469,l),
(386,478,l),
(379,495,l),
(387,512,l),
(395,530,l),
(388,543,l),
(381,561,l),
(381,571,l),
(373,580,l),
(353,590,l),
(340,598,l),
(324,608,l),
(303,603,l),
(280,602,l),
(269,598,l),
(253,588,l),
(227,565,l),
(211,561,l),
(204,550,l),
(186,552,l),
(138,529,l),
(118,530,l),
(93,520,l),
(86,507,l),
(54,484,l),
(44,477,l),
(36,444,l),
(42,411,l),
(40,394,l),
(53,388,l),
(50,374,l),
(66,366,l),
(70,356,l),
(87,348,l),
(105,339,l),
(130,336,l),
(145,331,l),
(144,321,l),
(142,312,l),
(141,306,l),
(141,299,l),
(141,294,l),
(142,286,l),
(143,278,l),
(142,269,l),
(142,261,l),
(141,255,l),
(141,251,l),
(139,244,l),
(134,237,l),
(133,232,l),
(130,226,l),
(126,217,l),
(128,213,l),
(129,205,l),
(125,200,l),
(122,195,l),
(124,188,l),
(117,185,l),
(107,181,l),
(88,176,l),
(73,177,l),
(46,166,l),
(28,159,l),
(-5,130,l),
(-4,120,l),
(-15,98,l),
(-16,56,l),
(-6,39,l),
(0,15,l),
(9,10,l),
(23,-3,l),
(113,-7,l),
(119,-12,l)
);
}
);
width = 478;
},
{
hints = (
{
horizontal = 1;
place = (0,70);
type = Stem;
},
{
place = (130,107);
type = Stem;
}
);
layerId = m003;
shapes = (
{
closed = 1;
nodes = (
(-15,-6,l),
(15,-8,l),
(43,-8,l),
(55,-3,l),
(65,-5,l),
(82,-5,l),
(94,-3,l),
(111,-1,l),
(123,-6,l),
(140,1,l),
(160,-1,l),
(173,1,l),
(194,-1,l),
(204,3,l),
(219,2,l),
(235,-4,l),
(255,3,l),
(279,-5,l),
(295,4,l),
(309,18,l),
(300,44,l),
(308,53,l),
(289,61,l),
(258,60,l),
(244,63,l),
(226,58,l),
(216,60,l),
(195,57,l),
(174,54,l),
(184,72,l),
(183,93,l),
(184,106,l),
(185,134,l),
(193,152,l),
(189,164,l),
(199,185,l),
(199,193,l),
(201,215,l),
(208,230,l),
(207,242,l),
(214,252,l),
(217,268,l),
(209,284,l),
(225,305,l),
(227,316,l),
(224,332,l),
(225,345,l),
(224,364,l),
(235,374,l),
(239,386,l),
(234,401,l),
(247,420,l),
(242,433,l),
(247,454,l),
(240,461,l),
(242,475,l),
(255,491,l),
(255,513,l),
(262,526,l),
(262,536,l),
(269,557,l),
(260,584,l),
(260,593,l),
(251,604,l),
(233,599,l),
(214,590,l),
(201,573,l),
(182,567,l),
(171,560,l),
(155,556,l),
(135,551,l),
(128,541,l),
(116,534,l),
(97,538,l),
(76,528,l),
(48,519,l),
(38,507,l),
(36,494,l),
(34,481,l),
(37,466,l),
(50,454,l),
(62,455,l),
(77,456,l),
(82,456,l),
(94,463,l),
(121,468,l),
(123,482,l),
(137,484,l),
(149,485,l),
(165,488,l),
(160,475,l),
(152,452,l),
(155,437,l),
(159,421,l),
(143,396,l),
(140,382,l),
(151,365,l),
(145,346,l),
(143,331,l),
(131,323,l),
(142,307,l),
(130,286,l),
(126,272,l),
(131,255,l),
(129,241,l),
(116,227,l),
(128,218,l),
(118,201,l),
(117,184,l),
(109,166,l),
(112,154,l),
(112,126,l),
(104,107,l),
(95,94,l),
(103,77,l),
(95,57,l),
(73,58,l),
(57,54,l),
(42,59,l),
(34,53,l),
(15,53,l),
(-17,50,l),
(-34,44,l),
(-42,18,l),
(-25,0,l),
(-19,-12,l)
);
}
);
width = 365;
}
);
metricLeft = "=H/2";
metricRight = "=O/3";
note = one;
unicode = 49;
}
{
glyphname = two;
kernLeft = KO_two;
kernRight = KO_two;
layers = (
{
hints = (
{
horizontal = 1;
place = (0,70);
type = Stem;
},
{
horizontal = 1;
place = (535,75);
type = Stem;
},
{
place = (-34,118);
type = Stem;
},
{
place = (294,122);
type = Stem;
}
);
layerId = m005;
shapes = (
{
closed = 1;
nodes = (
(55,-10,l),
(71,-7,l),
(78,-11,l),
(98,-10,l),
(114,-4,l),
(137,-1,l),
(152,-4,l),
(160,-3,l),
(178,-6,l),
(197,-2,l),
(210,3,l),
(218,1,l),
(231,2,l),
(256,1,l),
(264,3,l),
(277,4,l),
(293,1,l),
(307,4,l),
(328,0,l),
(336,-3,l),
(351,-2,l),
(376,-1,l),
(404,1,l),
(427,13,l),
(430,19,l),
(445,54,l),
(436,64,l),
(438,77,l),
(433,85,l),
(418,93,l),
(380,91,l),
(371,93,l),
(350,90,l),
(341,86,l),
(319,83,l),
(312,85,l),
(298,86,l),
(286,83,l),
(268,84,l),
(253,85,l),
(228,78,l),
(219,81,l),
(210,78,l),
(184,78,l),
(175,80,l),
(151,75,l),
(139,79,l),
(135,77,l),
(115,79,l),
(96,78,l),
(95,98,l),
(106,114,l),
(104,130,l),
(112,136,l),
(126,152,l),
(130,166,l),
(141,176,l),
(161,186,l),
(170,189,l),
(184,198,l),
(210,215,l),
(249,230,l),
(264,229,l),
(273,237,l),
(280,239,l),
(298,255,l),
(316,260,l),
(329,266,l),
(347,274,l),
(357,276,l),
(367,286,l),
(391,298,l),
(398,299,l),
(409,308,l),
(427,324,l),
(446,333,l),
(458,347,l),
(464,362,l),
(475,371,l),
(474,381,l),
(483,399,l),
(483,411,l),
(494,442,l),
(489,462,l),
(500,475,l),
(487,486,l),
(495,506,l),
(490,519,l),
(482,530,l),
(474,542,l),
(465,548,l),
(456,565,l),
(450,575,l),
(439,583,l),
(417,585,l),
(400,596,l),
(393,593,l),
(376,597,l),
(361,602,l),
(343,608,l),
(330,606,l),
(315,605,l),
(307,606,l),
(281,614,l),
(263,610,l),
(246,604,l),
(226,602,l),
(207,604,l),
(194,605,l),
(185,596,l),
(168,597,l),
(144,587,l),
(129,584,l),
(114,583,l),
(97,570,l),
(78,561,l),
(64,548,l),
(56,534,l),
(65,509,l),
(73,496,l),
(85,486,l),
(94,485,l),
(112,489,l),
(137,501,l),
(149,502,l),
(161,513,l),
(182,520,l),
(200,524,l),
(217,530,l),
(231,527,l),
(244,530,l),
(264,530,l),
(288,532,l),
(305,530,l),
(315,528,l),
(336,528,l),
(349,525,l),
(362,512,l),
(376,507,l),
(391,503,l),
(393,491,l),
(396,476,l),
(410,459,l),
(403,446,l),
(394,417,l),
(397,405,l),
(384,384,l),
(374,374,l),
(370,367,l),
(355,356,l),
(335,349,l),
(326,340,l),
(310,332,l),
(303,328,l),
(286,322,l),
(271,308,l),
(252,305,l),
(239,299,l),
(228,291,l),
(207,284,l),
(186,273,l),
(168,265,l),
(147,258,l),
(134,247,l),
(123,241,l),
(101,230,l),
(92,228,l),
(79,209,l),
(66,206,l),
(61,188,l),
(47,184,l),
(31,167,l),
(28,158,l),
(20,137,l),
(4,124,l),
(5,108,l),
(-9,98,l),
(-5,78,l),
(-18,64,l),
(-15,34,l),
(-21,25,l),
(-5,13,l),
(0,0,l),
(8,-7,l),
(38,-14,l)
);
}
);
width = 504;
},
{
hints = (
{
horizontal = 1;
place = (0,70);
type = Stem;
},
{
horizontal = 1;
place = (535,75);
type = Stem;
},
{
place = (-34,118);
type = Stem;
},
{
place = (294,122);
type = Stem;
}
);
layerId = m002;
shapes = (
{
closed = 1;
nodes = (
(79,-10,l),
(105,-13,l),
(115,-4,l),
(136,-8,l),
(142,-9,l),
(163,-6,l),
(172,-6,l),
(196,-3,l),
(207,-2,l),
(216,-5,l),
(239,2,l),
(252,-1,l),
(267,-4,l),
(272,-4,l),
(290,-6,l),
(308,-5,l),
(330,4,l),
(341,1,l),
(350,2,l),
(366,-1,l),
(403,4,l),
(446,0,l),
(457,8,l),
(468,4,l),
(494,18,l),
(506,19,l),
(517,34,l),
(518,45,l),
(535,58,l),
(541,72,l),
(540,97,l),
(545,118,l),
(536,130,l),
(528,148,l),
(535,155,l),
(514,173,l),
(506,180,l),
(492,190,l),
(484,192,l),
(467,197,l),
(433,189,l),
(424,196,l),
(416,190,l),
(399,190,l),
(382,187,l),
(357,188,l),
(346,182,l),
(336,185,l),
(315,183,l),
(306,181,l),
(285,184,l),
(261,179,l),
(247,189,l),
(246,201,l),
(261,209,l),
(276,218,l),
(308,234,l),
(327,233,l),
(341,240,l),
(360,245,l),
(362,242,l),
(384,249,l),
(396,260,l),
(408,260,l),
(424,263,l),
(440,273,l),
(454,275,l),
(489,288,l),
(496,295,l),
(521,309,l),
(529,322,l),
(533,329,l),
(553,342,l),
(565,352,l),
(571,367,l),
(571,386,l),
(583,398,l),
(587,429,l),
(585,445,l),
(579,460,l),
(580,470,l),
(583,484,l),
(574,505,l),
(565,513,l),
(565,524,l),
(549,534,l),
(551,552,l),
(535,563,l),
(532,565,l),
(521,573,l),
(511,588,l),
(487,594,l),
(472,593,l),
(470,606,l),
(453,611,l),
(441,612,l),
(426,617,l),
(414,614,l),
(396,619,l),
(376,620,l),
(360,623,l),
(356,624,l),
(316,623,l),
(305,619,l),
(297,626,l),
(273,617,l),
(249,615,l),
(233,615,l),
(213,611,l),
(196,609,l),
(192,603,l),
(173,602,l),
(157,592,l),
(142,592,l),
(114,573,l),
(101,564,l),
(88,562,l),
(76,543,l),
(56,529,l),
(55,518,l),
(47,509,l),
(46,489,l),
(51,460,l),
(59,447,l),
(63,435,l),
(73,419,l),
(96,404,l),
(99,402,l),
(137,398,l),
(148,405,l),
(165,406,l),
(196,421,l),
(204,426,l),
(218,431,l),
(240,435,l),
(249,447,l),
(258,442,l),
(285,451,l),
(299,452,l),
(319,447,l),
(341,445,l),
(351,448,l),
(361,442,l),
(375,440,l),
(386,426,l),
(388,397,l),
(376,390,l),
(352,383,l),
(336,379,l),
(329,368,l),
(314,366,l),
(289,353,l),
(260,349,l),
(254,343,l),
(238,332,l),
(206,317,l),
(196,311,l),
(181,311,l),
(163,296,l),
(152,298,l),
(136,289,l),
(116,277,l),
(107,275,l),
(89,264,l),
(83,253,l),
(71,247,l),
(56,235,l),
(39,229,l),
(34,210,l),
(29,201,l),
(9,185,l),
(-1,161,l),
(-11,148,l),
(-8,130,l),
(-11,112,l),
(-8,89,l),
(-12,65,l),
(-21,50,l),
(-12,40,l),
(-12,23,l),
(0,18,l),
(15,1,l),
(26,1,l),
(45,-7,l),
(56,-15,l)
);
}
);
width = 568;
},
{
hints = (
{
horizontal = 1;
place = (0,70);
type = Stem;
},
{
horizontal = 1;
place = (535,75);
type = Stem;
},
{
place = (-34,118);
type = Stem;
},
{
place = (294,122);
type = Stem;
}
);
layerId = m003;
shapes = (
{
closed = 1;
nodes = (
(30,-4,l),
(38,-5,l),
(51,-7,l),
(75,-5,l),
(89,-7,l),
(102,-2,l),
(116,-7,l),
(128,0,l),
(167,0,l),
(179,-5,l),
(193,-2,l),
(205,-1,l),
(220,-4,l),
(235,0,l),
(253,-4,l),
(269,1,l),
(282,-2,l),
(298,0,l),
(319,3,l),
(325,-2,l),
(347,-3,l),
(380,6,l),
(391,14,l),
(395,38,l),
(405,50,l),
(398,67,l),
(377,69,l),
(357,71,l),
(346,75,l),
(321,68,l),
(313,67,l),
(293,72,l),
(282,62,l),
(265,62,l),
(253,64,l),
(229,64,l),
(226,65,l),
(199,63,l),
(197,58,l),
(175,62,l),
(164,60,l),
(145,53,l),
(121,51,l),
(107,57,l),
(102,52,l),
(81,51,l),
(64,51,l),
(45,61,l),
(45,71,l),
(48,90,l),
(58,106,l),
(66,118,l),
(69,127,l),
(80,148,l),
(97,156,l),
(103,167,l),
(113,182,l),
(123,187,l),
(149,196,l),
(156,203,l),
(173,212,l),
(189,221,l),
(219,238,l),
(224,245,l),
(239,247,l),
(255,254,l),
(278,263,l),
(290,271,l),
(299,269,l),
(310,281,l),
(336,283,l),
(350,293,l),
(356,306,l),
(370,317,l),
(386,327,l),
(396,337,l),
(419,346,l),
(419,362,l),
(427,374,l),
(445,384,l),
(449,397,l),
(450,417,l),
(463,448,l),
(465,458,l),
(454,477,l),
(456,484,l),
(459,500,l),
(458,520,l),
(455,533,l),
(433,537,l),
(427,551,l),
(427,563,l),
(418,570,l),
(400,582,l),
(384,585,l),
(379,595,l),
(359,596,l),
(353,597,l),
(338,604,l),
(328,606,l),
(306,608,l),
(292,610,l),
(276,606,l),
(248,614,l),
(235,604,l),
(222,607,l),
(197,604,l),
(183,605,l),
(172,601,l),
(158,594,l),
(134,589,l),
(123,593,l),
(112,587,l),
(99,584,l),
(68,569,l),
(55,561,l),
(48,545,l),
(50,513,l),
(63,505,l),
(77,507,l),
(98,513,l),
(114,518,l),
(116,520,l),
(136,529,l),
(146,538,l),
(163,540,l),
(174,543,l),
(190,544,l),
(204,547,l),
(224,555,l),
(241,550,l),
(270,557,l),
(281,553,l),
(296,553,l),
(312,551,l),
(329,538,l),
(344,540,l),
(341,527,l),
(365,522,l),
(369,514,l),
(372,503,l),
(381,485,l),
(392,475,l),
(394,461,l),
(386,440,l),
(382,417,l),
(382,400,l),
(361,384,l),
(360,376,l),
(339,358,l),
(333,350,l),
(326,344,l),
(305,328,l),
(285,324,l),
(274,314,l),
(259,307,l),
(244,302,l),
(236,298,l),
(214,295,l),
(198,288,l),
(186,280,l),
(152,263,l),
(146,255,l),
(120,251,l),
(116,243,l),
(98,236,l),
(84,222,l),
(67,214,l),
(62,208,l),
(45,189,l),
(39,176,l),
(25,165,l),
(23,157,l),
(5,142,l),
(5,131,l),
(-9,113,l),
(-9,96,l),
(-18,88,l),
(-33,67,l),
(-29,52,l),
(-37,26,l),
(-35,9,l),
(-26,4,l),
(-19,-8,l),
(11,-13,l)
);
}
);
width = 495;
}
);
metricLeft = "=H/2";
metricRight = "=O";
note = two;
unicode = 50;
}
{
glyphname = five;
kernLeft = KO_five;
kernRight = KO_five;
layers = (
{
hints = (
{
horizontal = 1;
place = (-78,70);
type = Stem;
},
{
horizontal = 1;
place = (297,72);
type = Stem;
},
{
horizontal = 1;
place = (530,70);
type = Stem;
},
{
place = (-14,97);
type = Stem;
},
{
place = (297,116);
type = Stem;
}
);
layerId = m005;
shapes = (
{
closed = 1;
nodes = (
(214,-75,l),
(233,-72,l),
(257,-76,l),
(267,-69,l),
(285,-69,l),
(302,-61,l),
(317,-58,l),
(325,-55,l),
(348,-42,l),
(355,-42,l),
(375,-29,l),
(385,-18,l),
(400,-10,l),
(409,6,l),
(424,12,l),
(424,28,l),
(440,40,l),
(439,55,l),
(449,68,l),
(464,85,l),
(462,104,l),
(475,116,l),
(471,133,l),
(477,165,l),
(480,173,l),
(484,191,l),
(482,202,l),
(475,216,l),
(482,236,l),
(476,249,l),
(469,266,l),
(457,271,l),
(448,290,l),
(444,296,l),
(434,306,l),
(430,325,l),
(419,328,l),
(400,340,l),
(395,350,l),
(383,358,l),
(373,362,l),
(360,367,l),
(349,372,l),
(326,369,l),
(305,375,l),
(294,373,l),
(285,369,l),
(252,376,l),
(242,369,l),
(223,372,l),
(201,363,l),
(189,370,l),
(186,392,l),
(192,408,l),
(199,418,l),
(199,438,l),
(194,451,l),
(200,473,l),
(198,487,l),
(209,510,l),
(231,509,l),
(243,512,l),
(265,507,l),
(269,510,l),
(285,507,l),
(308,509,l),
(321,510,l),
(332,515,l),
(352,511,l),
(366,511,l),
(383,508,l),
(388,510,l),
(406,513,l),
(432,511,l),
(458,513,l),
(466,513,l),
(478,527,l),
(500,529,l),
(497,548,l),
(515,579,l),
(502,584,l),
(501,597,l),
(489,607,l),
(471,615,l),
(464,618,l),
(428,613,l),
(424,619,l),
(406,616,l),
(389,607,l),
(373,605,l),
(358,603,l),
(334,605,l),
(324,605,l),
(313,602,l),
(293,599,l),
(276,597,l),
(260,601,l),
(255,601,l),
(234,597,l),
(226,599,l),
(208,602,l),
(184,604,l),
(181,596,l),
(161,600,l),
(153,600,l),
(112,598,l),
(92,594,l),
(90,592,l),
(78,575,l),
(71,545,l),
(70,537,l),
(69,523,l),
(86,515,l),
(109,505,l),
(108,483,l),
(94,467,l),
(103,450,l),
(100,434,l),
(91,420,l),
(94,404,l),
(89,392,l),
(85,377,l),
(86,364,l),
(81,342,l),
(78,329,l),
(83,304,l),
(85,291,l),
(100,283,l),
(119,284,l),
(137,283,l),
(157,291,l),
(169,292,l),
(195,296,l),
(203,296,l),
(226,296,l),
(235,290,l),
(264,298,l),
(278,291,l),
(290,289,l),
(307,289,l),
(325,283,l),
(334,270,l),
(341,263,l),
(359,253,l),
(360,241,l),
(369,236,l),
(373,218,l),
(371,203,l),
(385,194,l),
(376,177,l),
(376,159,l),
(370,133,l),
(366,117,l),
(368,105,l),
(352,89,l),
(346,78,l),
(343,61,l),
(325,46,l),
(319,37,l),
(303,29,l),
(299,23,l),
(282,22,l),
(258,21,l),
(242,11,l),
(228,12,l),
(211,13,l),
(186,16,l),
(173,13,l),
(158,17,l),
(140,19,l),
(122,18,l),
(116,28,l),
(107,32,l),
(71,42,l),
(64,42,l),
(48,32,l),
(36,20,l),
(20,12,l),
(15,-16,l),
(23,-38,l),
(39,-44,l),
(63,-56,l),
(65,-66,l),
(83,-70,l),
(99,-67,l),
(130,-68,l),
(143,-76,l),
(153,-73,l),
(168,-80,l),
(183,-82,l)
);
}
);
width = 510;
},
{
hints = (
{
horizontal = 1;
place = (-78,70);
type = Stem;
},
{
horizontal = 1;
place = (297,72);
type = Stem;
},
{
horizontal = 1;
place = (530,70);
type = Stem;
},
{
place = (-14,97);
type = Stem;
},
{
place = (297,116);
type = Stem;
}
);
layerId = m002;
shapes = (
{
closed = 1;
nodes = (
(225,-99,l),
(242,-97,l),
(271,-99,l),
(291,-94,l),
(297,-91,l),
(316,-84,l),
(330,-85,l),
(358,-70,l),
(373,-68,l),
(394,-52,l),
(394,-44,l),
(417,-34,l),
(428,-31,l),
(432,-19,l),
(454,-8,l),
(458,2,l),
(468,12,l),
(484,24,l),
(488,39,l),
(502,50,l),
(498,70,l),
(518,87,l),
(522,93,l),
(526,114,l),
(533,129,l),
(543,154,l),
(535,188,l),
(547,199,l),
(546,212,l),
(549,234,l),
(535,242,l),
(531,258,l),
(536,273,l),
(535,283,l),
(532,302,l),
(514,307,l),
(507,318,l),
(502,331,l),
(497,346,l),
(481,354,l),
(479,358,l),
(462,362,l),
(453,371,l),
(439,379,l),
(429,385,l),
(411,385,l),
(401,392,l),
(375,391,l),
(367,396,l),
(347,398,l),
(333,398,l),
(310,397,l),
(295,394,l),
(266,400,l),
(253,401,l),
(257,413,l),
(256,435,l),
(288,438,l),
(316,434,l),
(338,435,l),
(363,437,l),
(389,434,l),
(410,438,l),
(456,435,l),
(486,444,l),
(493,449,l),
(510,459,l),
(516,471,l),
(534,481,l),
(551,490,l),
(552,509,l),
(559,523,l),
(561,549,l),
(562,568,l),
(566,576,l),
(553,594,l),
(555,599,l),
(540,614,l),
(528,627,l),
(514,631,l),
(507,640,l),
(500,637,l),
(481,643,l),
(466,646,l),
(443,643,l),
(428,639,l),
(409,637,l),
(385,638,l),
(372,633,l),
(364,635,l),
(345,634,l),
(329,631,l),
(305,627,l),
(294,630,l),
(268,625,l),
(254,630,l),
(232,623,l),
(209,629,l),
(177,621,l),
(155,629,l),
(132,619,l),
(120,626,l),
(102,618,l),
(88,618,l),
(76,604,l),
(62,601,l),
(51,586,l),
(44,580,l),
(24,568,l),
(18,548,l),
(24,520,l),
(12,505,l),
(22,496,l),
(22,475,l),
(31,471,l),
(53,440,l),
(44,412,l),
(43,391,l),
(47,380,l),
(43,365,l),
(42,349,l),
(39,328,l),
(33,305,l),
(42,290,l),
(35,275,l),
(43,258,l),
(50,252,l),
(70,243,l),
(80,239,l),
(99,226,l),
(115,226,l),
(132,235,l),
(157,239,l),
(163,237,l),
(184,240,l),
(199,241,l),
(208,246,l),
(226,243,l),
(240,248,l),
(263,245,l),
(284,238,l),
(303,234,l),
(311,231,l),
(321,228,l),
(339,217,l),
(340,198,l),
(333,184,l),
(336,152,l),
(335,141,l),
(322,129,l),
(317,119,l),
(306,104,l),
(284,92,l),
(264,88,l),
(253,90,l),
(231,91,l),
(217,84,l),
(192,93,l),
(186,95,l),
(167,96,l),
(160,100,l),
(145,107,l),
(109,113,l),
(95,119,l),
(73,114,l),
(62,113,l),
(41,105,l),
(29,103,l),
(18,92,l),
(14,78,l),
(-4,65,l),
(-11,52,l),
(-14,35,l),
(-14,6,l),
(-23,-10,l),
(-9,-28,l),
(-8,-41,l),
(-8,-53,l),
(2,-60,l),
(27,-66,l),
(52,-76,l),
(59,-81,l),
(77,-90,l),
(92,-96,l),
(107,-93,l),
(120,-100,l),
(138,-96,l),
(151,-103,l),
(170,-99,l),
(186,-107,l)
);
}
);
width = 558;
},
{
hints = (
{
horizontal = 1;
place = (-78,70);
type = Stem;
},
{
horizontal = 1;
place = (297,72);
type = Stem;
},
{
horizontal = 1;
place = (530,70);
type = Stem;
},
{
place = (-14,97);
type = Stem;
},
{
place = (297,116);
type = Stem;
}
);
layerId = m003;
shapes = (
{
closed = 1;
nodes = (
(224,-75,l),
(242,-81,l),
(260,-71,l),
(266,-68,l),
(289,-72,l),
(300,-68,l),
(308,-63,l),
(330,-49,l),
(344,-49,l),
(362,-35,l),
(369,-30,l),
(376,-16,l),
(396,-6,l),
(411,5,l),
(419,20,l),
(432,29,l),
(428,44,l),
(435,54,l),
(443,72,l),
(454,86,l),
(452,103,l),
(457,120,l),
(459,126,l),
(475,157,l),
(471,178,l),
(479,186,l),
(464,202,l),
(468,223,l),
(469,237,l),
(467,249,l),
(463,261,l),
(452,275,l),
(451,291,l),
(436,303,l),
(434,307,l),
(418,321,l),
(408,325,l),
(402,334,l),
(375,351,l),
(364,356,l),
(348,358,l),
(331,362,l),
(321,367,l),
(296,368,l),
(281,361,l),
(257,365,l),
(237,364,l),
(228,363,l),
(218,359,l),
(204,358,l),
(181,359,l),
(185,377,l),
(180,388,l),
(189,409,l),
(186,422,l),
(192,430,l),
(192,452,l),
(192,468,l),
(195,476,l),
(199,493,l),
(194,507,l),
(204,528,l),
(221,529,l),
(239,530,l),
(254,530,l),
(273,535,l),
(288,527,l),
(295,532,l),
(307,537,l),
(325,536,l),
(339,530,l),
(364,531,l),
(371,534,l),
(384,536,l),
(400,529,l),
(413,533,l),
(427,533,l),
(466,529,l),
(477,532,l),
(482,542,l),
(499,561,l),
(507,585,l),
(496,602,l),
(497,609,l),
(475,615,l),
(464,621,l),
(432,617,l),
(417,617,l),
(405,613,l),
(396,610,l),
(370,604,l),
(364,608,l),
(347,605,l),
(330,601,l),
(318,606,l),
(306,607,l),
(283,605,l),
(263,603,l),
(259,603,l),
(240,603,l),
(219,603,l),
(207,596,l),
(195,603,l),
(181,601,l),
(170,603,l),
(143,597,l),
(109,597,l),
(94,591,l),
(84,589,l),
(83,557,l),
(79,545,l),
(92,532,l),
(102,529,l),
(113,527,l),
(124,506,l),
(114,494,l),
(120,474,l),
(108,467,l),
(107,452,l),
(112,432,l),
(111,416,l),
(97,408,l),
(105,389,l),
(106,375,l),
(101,356,l),
(93,341,l),
(85,335,l),
(90,305,l),
(101,290,l),
(110,291,l),
(153,297,l),
(167,297,l),
(179,297,l),
(190,306,l),
(207,298,l),
(231,299,l),
(247,307,l),
(275,307,l),
(288,307,l),
(303,299,l),
(313,299,l),
(327,292,l),
(346,288,l),
(354,274,l),
(360,272,l),
(375,255,l),
(375,246,l),
(382,228,l),
(388,215,l),
(393,201,l),
(391,188,l),
(386,176,l),
(388,158,l),
(382,130,l),
(384,118,l),
(372,103,l),
(375,87,l),
(370,70,l),
(362,61,l),
(343,41,l),
(340,36,l),
(320,17,l),
(302,13,l),
(279,-2,l),
(264,-8,l),
(242,-10,l),
(228,-5,l),
(203,-11,l),
(181,-3,l),
(170,-9,l),
(155,-2,l),
(133,-3,l),
(126,7,l),
(107,4,l),
(91,12,l),
(67,25,l),
(56,17,l),
(47,16,l),
(40,-3,l),
(35,-30,l),
(43,-44,l),
(60,-53,l),
(78,-64,l),
(94,-64,l),
(114,-75,l),
(129,-69,l),
(143,-75,l),
(165,-74,l),
(182,-81,l),
(191,-80,l)
);
}
);
width = 519;
}
);
metricLeft = "=O";
metricRight = "=S";
note = five;
unicode = 53;
}
{
glyphname = six;
kernLeft = KO_six;
kernRight = KO_six;
layers = (
{
hints = (
{
horizontal = 1;
place = (-10,70);
type = Stem;
},
{
horizontal = 1;
place = (340,70);
type = Stem;
},
{
horizontal = 1;
place = (612,65);
type = Stem;
},
{
place = (-29,117);
type = Stem;
},
{
place = (316,112);
type = Stem;
}
);
layerId = m005;
shapes = (
{
closed = 1;
nodes = (
(183,-6,l),
(212,-8,l),
(230,-7,l),
(261,-3,l),
(280,-5,l),
(291,6,l),
(308,10,l),
(322,10,l),
(341,18,l),
(357,28,l),
(375,35,l),
(387,43,l),
(388,56,l),
(404,60,l),
(419,73,l),
(423,89,l),
(442,100,l),
(452,110,l),
(459,121,l),
(468,140,l),
(463,158,l),
(465,172,l),
(475,185,l),
(485,217,l),
(479,232,l),
(489,250,l),
(481,264,l),
(477,279,l),
(472,289,l),
(467,307,l),
(465,317,l),
(457,331,l),
(453,343,l),
(445,356,l),
(436,360,l),
(418,369,l),
(412,377,l),
(405,392,l),
(394,391,l),
(381,402,l),
(366,400,l),
(343,404,l),
(325,408,l),
(305,409,l),
(276,405,l),
(249,408,l),
(242,399,l),
(220,395,l),
(202,393,l),
(200,392,l),
(169,382,l),
(178,408,l),
(185,425,l),
(196,431,l),
(201,453,l),
(210,466,l),
(210,478,l),
(225,488,l),
(241,500,l),
(250,514,l),
(265,529,l),
(276,538,l),
(284,548,l),
(298,553,l),
(305,562,l),
(320,574,l),
(342,576,l),
(348,586,l),
(366,590,l),
(380,590,l),
(398,596,l),
(410,600,l),
(424,605,l),
(443,605,l),
(457,611,l),
(462,627,l),
(466,646,l),
(468,658,l),
(459,661,l),
(445,667,l),
(442,677,l),
(422,673,l),
(405,670,l),
(394,671,l),
(378,665,l),
(357,658,l),
(349,661,l),
(325,651,l),
(311,646,l),
(304,641,l),
(283,633,l),
(271,623,l),
(257,617,l),
(238,608,l),
(236,600,l),
(211,589,l),
(202,584,l),
(194,568,l),
(184,560,l),
(163,548,l),
(150,523,l),
(138,510,l),
(122,499,l),
(119,486,l),
(109,471,l),
(98,455,l),
(93,427,l),
(77,417,l),
(66,401,l),
(68,382,l),
(54,366,l),
(60,355,l),
(47,338,l),
(43,312,l),
(44,292,l),
(29,281,l),
(29,262,l),
(34,231,l),
(25,218,l),
(30,203,l),
(19,191,l),
(29,179,l),
(22,158,l),
(24,142,l),
(30,133,l),
(28,115,l),
(39,108,l),
(37,87,l),
(50,83,l),
(48,65,l),
(60,47,l),
(69,32,l),
(89,29,l),
(90,21,l),
(109,7,l),
(126,-4,l),
(146,-2,l),
(163,-10,l)
);
},
{
closed = 1;
nodes = (
(205,73,l),
(183,77,l),
(171,88,l),
(166,91,l),
(148,107,l),
(150,117,l),
(144,122,l),
(131,144,l),
(131,153,l),
(136,173,l),
(120,180,l),
(122,211,l),
(127,231,l),
(138,245,l),
(136,268,l),
(143,277,l),
(158,301,l),
(174,314,l),
(190,315,l),
(210,325,l),
(225,326,l),
(241,336,l),
(256,338,l),
(273,338,l),
(293,337,l),
(303,336,l),
(319,324,l),
(328,318,l),
(349,318,l),
(356,310,l),
(366,300,l),
(365,285,l),
(368,274,l),
(384,254,l),
(384,242,l),
(380,230,l),
(378,211,l),
(373,182,l),
(375,173,l),
(367,155,l),
(355,141,l),
(351,127,l),
(335,118,l),
(329,105,l),
(316,95,l),
(296,83,l),
(283,82,l),
(265,82,l),
(255,78,l),
(222,71,l)
);
}
);
width = 531;
},
{
hints = (
{
horizontal = 1;
place = (-10,70);
type = Stem;
},
{
horizontal = 1;
place = (340,70);
type = Stem;
},
{
horizontal = 1;
place = (612,65);
type = Stem;
},
{
place = (-28,117);
type = Stem;
},
{
place = (317,112);
type = Stem;
}
);
layerId = m002;
shapes = (
{
closed = 1;
nodes = (
(177,-23,l),
(188,-22,l),
(195,-28,l),
(239,-21,l),
(246,-18,l),
(268,-22,l),
(281,-17,l),
(293,-17,l),
(319,-3,l),
(340,5,l),
(359,10,l),
(375,12,l),
(379,18,l),
(403,27,l),
(405,37,l),
(431,46,l),
(435,55,l),
(447,61,l),
(458,75,l),
(471,91,l),
(481,97,l),
(493,114,l),
(508,142,l),
(510,156,l),
(519,167,l),
(520,189,l),
(532,210,l),
(535,226,l),
(526,241,l),
(535,263,l),
(528,277,l),
(520,299,l),
(512,313,l),
(505,326,l),
(502,340,l),
(496,354,l),
(489,360,l),
(484,376,l),
(467,381,l),
(460,388,l),
(441,401,l),
(433,405,l),
(422,412,l),
(408,418,l),
(390,421,l),
(379,417,l),
(363,422,l),
(347,423,l),
(323,422,l),
(315,427,l),
(290,425,l),
(273,426,l),
(268,438,l),
(276,449,l),
(296,470,l),
(311,479,l),
(323,494,l),
(336,493,l),
(352,498,l),
(376,506,l),
(386,512,l),
(415,521,l),
(445,525,l),
(447,525,l),
(463,540,l),
(477,549,l),
(497,556,l),
(497,569,l),
(513,593,l),
(512,615,l),
(505,632,l),
(511,648,l),
(493,661,l),
(482,668,l),
(479,681,l),
(456,685,l),
(440,688,l),
(398,691,l),
(378,682,l),
(349,677,l),
(336,670,l),
(323,673,l),
(305,668,l),
(292,660,l),
(280,651,l),
(251,644,l),
(242,632,l),
(228,622,l),
(216,613,l),
(192,609,l),
(176,584,l),
(161,579,l),
(141,567,l),
(128,556,l),
(130,546,l),
(108,529,l),
(95,519,l),
(85,503,l),
(81,490,l),
(63,477,l),
(66,467,l),
(53,458,l),
(50,436,l),
(39,428,l),
(32,416,l),
(29,402,l),
(20,388,l),
(15,374,l),
(8,350,l),
(4,341,l),
(-11,322,l),
(-18,298,l),
(-13,283,l),
(-27,265,l),
(-23,236,l),
(-27,217,l),
(-30,209,l),
(-26,188,l),
(-29,172,l),
(-33,161,l),
(-30,142,l),
(-18,128,l),
(-19,119,l),
(-12,102,l),
(-8,91,l),
(3,82,l),
(3,65,l),
(19,55,l),
(20,47,l),
(37,31,l),
(41,29,l),
(52,15,l),
(61,8,l),
(71,-3,l),
(106,-9,l),
(112,-13,l),
(145,-15,l),
(156,-29,l)
);
},
{
closed = 1;
nodes = (
(241,159,l),
(229,160,l),
(219,159,l),
(210,158,l),
(206,164,l),
(202,168,l),
(199,173,l),
(190,182,l),
(184,194,l),
(179,203,l),
(175,210,l),
(170,219,l),
(173,232,l),
(175,241,l),
(175,251,l),
(175,257,l),
(181,260,l),
(187,264,l),
(196,269,l),
(204,274,l),
(209,277,l),
(217,280,l),
(225,283,l),
(235,282,l),
(243,282,l),
(253,281,l),
(261,283,l),
(272,285,l),
(278,283,l),
(289,281,l),
(297,279,l),
(302,279,l),
(312,270,l),
(317,261,l),
(322,253,l),
(327,246,l),
(332,240,l),
(330,231,l),
(329,221,l),
(327,211,l),
(323,205,l),
(320,199,l),
(313,187,l),
(307,185,l),
(295,180,l),
(290,175,l),
(282,167,l),
(277,165,l),
(265,160,l),
(255,157,l)
);
}
);
width = 547;
},
{
hints = (
{
horizontal = 1;
place = (-10,70);
type = Stem;
},
{
horizontal = 1;
place = (340,70);
type = Stem;
},
{
horizontal = 1;
place = (612,65);
type = Stem;
},
{
place = (-28,117);
type = Stem;
},
{
place = (317,112);
type = Stem;
}
);
layerId = m003;
shapes = (
{
closed = 1;
nodes = (
(180,-7,l),
(204,-10,l),
(227,-10,l),
(244,-6,l),
(266,-7,l),
(288,0,l),
(301,7,l),
(320,11,l),
(335,17,l),
(347,26,l),
(355,37,l),
(377,45,l),
(393,56,l),
(398,58,l),
(406,70,l),
(421,86,l),
(421,102,l),
(432,115,l),
(448,122,l),
(446,144,l),
(452,158,l),
(462,169,l),
(463,183,l),
(461,210,l),
(460,231,l),
(468,247,l),
(471,259,l),
(463,275,l),
(462,284,l),
(455,303,l),
(448,318,l),
(438,327,l),
(430,337,l),
(432,355,l),
(424,357,l),
(408,374,l),
(389,373,l),
(390,384,l),
(371,389,l),
(346,397,l),
(321,402,l),
(316,404,l),
(299,400,l),
(266,396,l),
(245,395,l),
(244,390,l),
(222,389,l),
(201,383,l),
(180,373,l),
(165,367,l),
(147,356,l),
(154,375,l),
(162,391,l),
(160,414,l),
(174,426,l),
(178,434,l),
(184,455,l),
(190,469,l),
(200,481,l),
(215,490,l),
(227,502,l),
(228,517,l),
(241,528,l),
(253,542,l),
(268,557,l),
(273,560,l),
(286,572,l),
(304,585,l),
(316,592,l),
(343,597,l),
(364,605,l),
(388,609,l),
(401,612,l),
(433,619,l),
(441,630,l),
(452,634,l),
(453,663,l),
(451,668,l),
(432,674,l),
(402,670,l),
(394,666,l),
(377,662,l),
(354,664,l),
(336,654,l),
(330,654,l),
(317,643,l),
(303,639,l),
(285,630,l),
(275,623,l),
(256,623,l),
(252,614,l),
(229,597,l),
(217,586,l),
(203,585,l),
(201,569,l),
(185,555,l),
(170,548,l),
(158,537,l),
(144,523,l),
(133,511,l),
(126,496,l),
(120,482,l),
(117,474,l),
(109,458,l),
(89,440,l),
(84,424,l),
(90,410,l),
(75,388,l),
(60,370,l),
(67,357,l),
(61,337,l),
(46,323,l),
(51,310,l),
(36,291,l),
(44,278,l),
(43,267,l),
(32,239,l),
(25,218,l),
(29,199,l),
(29,193,l),
(28,170,l),
(23,158,l),
(28,140,l),
(38,127,l),
(30,110,l),
(32,104,l),
(47,90,l),
(52,64,l),
(64,49,l),
(65,38,l),
(74,31,l),
(95,23,l),
(100,8,l),
(106,10,l),
(121,2,l),
(139,-1,l),
(148,-9,l),
(166,-14,l)
);
},
{
closed = 1;
nodes = (
(219,56,l),
(188,58,l),
(163,62,l),
(155,65,l),
(150,79,l),
(135,85,l),
(128,103,l),
(118,111,l),
(118,127,l),
(120,143,l),
(111,155,l),
(118,172,l),
(115,185,l),
(107,216,l),
(113,227,l),
(115,246,l),
(123,256,l),
(127,270,l),
(132,288,l),
(152,312,l),
(169,322,l),
(178,320,l),
(188,328,l),
(216,339,l),
(255,347,l),
(289,345,l),
(317,338,l),
(328,330,l),
(341,324,l),
(354,322,l),
(353,305,l),
(371,295,l),
(377,284,l),
(386,271,l),
(378,263,l),
(391,240,l),
(390,217,l),
(388,184,l),
(376,172,l),
(370,152,l),
(365,141,l),
(357,122,l),
(344,111,l),
(335,100,l),
(326,87,l),
(299,75,l),
(287,70,l),
(267,65,l),
(257,55,l),
(233,51,l)
);
}
);
width = 529;
}
);
metricLeft = "=O";
metricRight = "=o";
note = six;
unicode = 54;
}
{
glyphname = eight;
kernLeft = KO_eight;
kernRight = KO_eight;
layers = (
{
hints = (
{
horizontal = 1;
place = (-10,70);
type = Stem;
},
{
horizontal = 1;
place = (326,70);
type = Stem;
},
{
horizontal = 1;
place = (608,69);
type = Stem;
},
{
place = (-4,105);
type = Stem;
},
{
place = (311,112);
type = Stem;
},
{
place = (-29,112);
type = Stem;
},
{
place = (292,105);
type = Stem;
}
);
layerId = m005;
shapes = (
{
closed = 1;
nodes = (
(211,-11,l),
(238,-6,l),
(246,-1,l),
(254,-2,l),
(275,-1,l),
(296,10,l),
(305,12,l),
(319,22,l),
(332,31,l),
(353,40,l),
(363,43,l),
(380,60,l),
(381,68,l),
(386,77,l),
(411,90,l),
(413,106,l),
(416,120,l),
(422,137,l),
(437,151,l),
(443,166,l),
(447,180,l),
(448,211,l),
(446,221,l),
(439,235,l),
(434,256,l),
(434,269,l),
(431,276,l),
(419,294,l),
(415,305,l),
(400,315,l),
(391,321,l),
(380,330,l),
(367,339,l),
(361,345,l),
(346,351,l),
(332,357,l),
(359,368,l),
(369,380,l),
(391,391,l),
(407,397,l),
(415,404,l),
(431,415,l),
(433,432,l),
(451,447,l),
(450,461,l),
(451,471,l),
(460,489,l),
(462,518,l),
(462,526,l),
(471,541,l),
(459,558,l),
(463,575,l),
(462,584,l),
(460,599,l),
(444,610,l),
(442,617,l),
(429,635,l),
(420,643,l),
(414,652,l),
(387,660,l),
(384,660,l),
(367,670,l),
(361,674,l),
(343,674,l),
(322,670,l),
(310,680,l),
(275,673,l),
(268,671,l),
(228,670,l),
(212,664,l),
(201,664,l),
(190,651,l),
(180,651,l),
(152,639,l),
(145,629,l),
(133,624,l),
(123,608,l),
(118,602,l),
(101,589,l),
(96,574,l),
(78,557,l),
(84,545,l),
(71,526,l),
(65,515,l),
(62,486,l),
(59,472,l),
(72,451,l),
(76,442,l),
(71,431,l),
(80,420,l),
(90,408,l),
(100,392,l),
(113,387,l),
(126,376,l),
(142,361,l),
(121,352,l),
(102,347,l),
(84,338,l),
(71,329,l),
(57,313,l),
(44,299,l),
(45,292,l),
(31,281,l),
(20,263,l),
(17,257,l),
(-1,242,l),
(-1,220,l),
(-1,205,l),
(-10,176,l),
(-13,165,l),
(-13,148,l),
(-14,131,l),
(-14,117,l),
(-11,102,l),
(-1,97,l),
(3,83,l),
(12,72,l),
(19,56,l),
(28,48,l),
(41,36,l),
(53,31,l),
(58,22,l),
(70,16,l),
(86,10,l),
(103,3,l),
(115,0,l),
(134,0,l),
(139,-10,l),
(160,-12,l),
(177,-10,l),
(195,-14,l)
);
},
{
closed = 1;
nodes = (
(151,83,l),
(146,83,l),
(123,87,l),
(111,103,l),
(106,106,l),
(100,122,l),
(100,131,l),
(96,151,l),
(96,166,l),
(90,183,l),
(101,213,l),
(105,228,l),
(111,244,l),
(116,250,l),
(131,271,l),
(137,278,l),
(155,287,l),
(161,294,l),
(186,307,l),
(203,309,l),
(221,320,l),
(240,311,l),
(252,312,l),
(270,301,l),
(285,299,l),
(287,288,l),
(301,285,l),
(318,275,l),
(319,262,l),
(337,255,l),
(337,239,l),
(340,229,l),
(343,211,l),
(335,175,l),
(336,165,l),
(332,148,l),
(315,137,l),
(312,127,l),
(307,107,l),
(296,106,l),
(272,92,l),
(256,87,l),
(248,83,l),
(224,83,l),
(214,73,l),
(185,78,l),
(165,73,l)
);
},
{
closed = 1;
nodes = (
(236,404,l),
(223,407,l),
(218,413,l),
(203,412,l),
(192,420,l),
(175,427,l),
(170,440,l),
(152,450,l),
(156,468,l),
(155,485,l),
(163,519,l),
(166,532,l),
(165,542,l),
(176,553,l),
(186,574,l),
(212,582,l),
(220,585,l),
(233,591,l),
(256,595,l),
(273,598,l),
(299,604,l),
(309,599,l),
(332,597,l),
(335,592,l),
(343,576,l),
(360,573,l),
(374,558,l),
(368,548,l),
(382,530,l),
(377,517,l),
(366,484,l),
(371,472,l),
(355,451,l),
(350,441,l),
(338,428,l),
(318,420,l),
(301,416,l),
(281,406,l),
(270,402,l),
(255,399,l)
);
}
);
width = 458;
},
{
hints = (
{
horizontal = 1;
place = (-10,70);
type = Stem;
},
{
horizontal = 1;
place = (326,70);
type = Stem;
},
{
horizontal = 1;
place = (608,69);
type = Stem;
},
{
place = (-4,105);
type = Stem;
},
{
place = (311,112);
type = Stem;
},
{
place = (-29,112);
type = Stem;
},
{
place = (292,105);
type = Stem;
}
);
layerId = m002;
shapes = (
{
closed = 1;
nodes = (
(272,-22,l),
(292,-22,l),
(304,-19,l),
(321,-17,l),
(341,-18,l),
(355,-8,l),
(362,-6,l),
(386,-4,l),
(397,4,l),
(403,12,l),
(419,23,l),
(432,30,l),
(451,42,l),
(471,44,l),
(470,57,l),
(482,71,l),
(495,78,l),
(505,93,l),
(515,106,l),
(533,123,l),
(539,133,l),
(541,149,l),
(547,162,l),
(557,181,l),
(556,207,l),
(551,229,l),
(550,243,l),
(548,258,l),
(550,265,l),
(538,283,l),
(537,298,l),
(533,313,l),
(522,322,l),
(524,336,l),
(498,356,l),
(505,369,l),
(516,388,l),
(532,405,l),
(544,411,l),
(558,429,l),
(552,445,l),
(569,457,l),
(570,468,l),
(572,486,l),
(576,515,l),
(573,525,l),
(584,542,l),
(581,557,l),
(571,570,l),
(568,589,l),
(559,600,l),
(547,605,l),
(539,623,l),
(532,633,l),
(527,638,l),
(505,647,l),
(505,659,l),
(485,661,l),
(468,671,l),
(467,676,l),
(447,677,l),
(431,686,l),
(412,687,l),
(406,690,l),
(390,689,l),
(373,687,l),
(344,689,l),
(329,688,l),
(311,693,l),
(301,682,l),
(272,681,l),
(267,674,l),
(248,677,l),
(229,667,l),
(202,651,l),
(194,652,l),
(176,639,l),
(156,626,l),
(145,622,l),
(138,604,l),
(127,597,l),
(107,580,l),
(103,576,l),
(95,561,l),
(87,544,l),
(89,534,l),
(82,514,l),
(75,484,l),
(80,466,l),
(74,448,l),
(82,441,l),
(84,421,l),
(84,407,l),
(111,371,l),
(95,358,l),
(72,336,l),
(66,329,l),
(50,312,l),
(50,293,l),
(35,283,l),
(26,270,l),
(28,252,l),
(10,235,l),
(4,220,l),
(4,213,l),
(4,180,l),
(-6,164,l),
(3,151,l),
(3,135,l),
(-1,124,l),
(7,108,l),
(8,96,l),
(22,79,l),
(23,71,l),
(38,55,l),
(42,46,l),
(64,43,l),
(60,27,l),
(70,19,l),
(86,9,l),
(96,6,l),
(121,0,l),
(129,-2,l),
(136,-11,l),
(149,-16,l),
(163,-15,l),
(186,-25,l),
(205,-18,l),
(214,-22,l),
(225,-25,l),
(265,-26,l)
);
},
{
closed = 1;
nodes = (
(261,161,l),
(254,161,l),
(247,166,l),
(238,164,l),
(230,162,l),
(227,167,l),
(223,173,l),
(220,178,l),
(213,180,l),
(206,181,l),
(206,190,l),
(207,198,l),
(206,207,l),
(205,216,l),
(206,225,l),
(206,231,l),
(213,235,l),
(225,240,l),
(235,247,l),
(243,252,l),
(252,259,l),
(260,264,l),
(268,262,l),
(275,262,l),
(282,261,l),
(294,260,l),
(307,259,l),
(316,256,l),
(323,253,l),
(327,249,l),
(334,242,l),
(337,237,l),
(342,230,l),
(344,226,l),
(348,221,l),
(347,211,l),
(346,199,l),
(341,187,l),
(339,182,l),
(336,173,l),
(325,169,l),
(317,166,l),
(308,163,l),
(301,161,l),
(293,161,l),
(279,160,l),
(270,160,l)
);
},
{
closed = 1;
nodes = (
(315,456,l),
(308,457,l),
(300,457,l),
(293,457,l),
(284,462,l),
(274,468,l),
(269,472,l),
(263,474,l),
(264,481,l),
(267,490,l),
(268,498,l),
(274,501,l),
(278,503,l),
(284,507,l),
(288,509,l),
(294,510,l),
(300,510,l),
(307,511,l),
(308,512,l),
(317,513,l),
(326,514,l),
(335,515,l),
(340,515,l),
(349,515,l),
(355,517,l),
(360,516,l),
(367,514,l),
(371,513,l),
(373,507,l),
(376,501,l),
(378,496,l),
(379,490,l),
(380,484,l),
(380,479,l),
(372,471,l),
(364,466,l),
(358,462,l),
(344,459,l),
(336,457,l),
(326,455,l)
);
}
);
width = 576;
},
{
hints = (
{
horizontal = 1;
place = (-10,70);
type = Stem;
},
{
horizontal = 1;
place = (326,70);
type = Stem;
},
{
horizontal = 1;
place = (608,69);
type = Stem;
},
{
place = (-4,105);
type = Stem;
},
{
place = (311,112);
type = Stem;
},
{
place = (-29,112);
type = Stem;
},
{
place = (292,105);
type = Stem;
}
);
layerId = m003;
shapes = (
{
closed = 1;
nodes = (
(213,-3,l),
(226,-2,l),
(240,-5,l),
(263,2,l),
(266,6,l),
(290,4,l),
(296,16,l),
(325,21,l),
(325,27,l),
(338,34,l),
(353,39,l),
(376,56,l),
(388,70,l),
(400,77,l),
(406,89,l),
(412,109,l),
(417,122,l),
(418,128,l),
(430,147,l),
(442,159,l),
(441,183,l),
(438,205,l),
(446,220,l),
(444,239,l),
(438,246,l),
(437,267,l),
(425,273,l),
(415,292,l),
(404,295,l),
(407,308,l),
(389,313,l),
(380,322,l),
(364,335,l),
(355,341,l),
(336,344,l),
(338,351,l),
(320,362,l),
(336,370,l),
(349,379,l),
(361,387,l),
(378,395,l),
(388,404,l),
(403,409,l),
(423,418,l),
(434,429,l),
(436,445,l),
(450,455,l),
(457,469,l),
(458,480,l),
(463,511,l),
(470,534,l),
(472,548,l),
(469,559,l),
(464,572,l),
(461,590,l),
(447,604,l),
(439,610,l),
(432,628,l),
(420,637,l),
(419,644,l),
(406,647,l),
(385,658,l),
(371,658,l),
(369,669,l),
(347,674,l),
(334,672,l),
(315,673,l),
(294,673,l),
(266,676,l),
(257,673,l),
(235,664,l),
(214,656,l),
(188,647,l),
(177,644,l),
(169,632,l),
(157,628,l),
(136,613,l),
(125,604,l),
(112,585,l),
(112,571,l),
(104,564,l),
(94,545,l),
(90,531,l),
(94,515,l),
(80,480,l),
(76,471,l),
(84,455,l),
(85,438,l),
(90,429,l),
(100,417,l),
(100,407,l),
(116,387,l),
(118,380,l),
(134,376,l),
(148,363,l),
(162,364,l),
(181,351,l),
(163,345,l),
(147,335,l),
(122,331,l),
(112,322,l),
(105,321,l),
(92,311,l),
(75,294,l),
(70,290,l),
(54,280,l),
(45,261,l),
(35,252,l),
(28,238,l),
(18,227,l),
(20,207,l),
(15,182,l),
(4,164,l),
(13,144,l),
(3,129,l),
(13,114,l),
(9,108,l),
(16,86,l),
(19,78,l),
(30,65,l),
(42,51,l),
(44,39,l),
(59,35,l),
(75,22,l),
(74,18,l),
(96,7,l),
(99,3,l),
(124,6,l),
(140,-2,l),
(155,-2,l),
(179,-12,l)
);
},
{
closed = 1;
nodes = (
(178,60,l),
(160,56,l),
(141,67,l),
(126,82,l),
(104,96,l),
(98,113,l),
(100,123,l),
(85,138,l),
(84,161,l),
(88,180,l),
(91,210,l),
(105,224,l),
(104,240,l),
(117,250,l),
(122,262,l),
(126,276,l),
(149,286,l),
(148,296,l),
(171,307,l),
(178,316,l),
(191,319,l),
(211,323,l),
(228,332,l),
(249,327,l),
(251,319,l),
(277,313,l),
(297,308,l),
(304,295,l),
(324,290,l),
(337,268,l),
(344,262,l),
(351,246,l),
(354,235,l),
(365,225,l),
(357,205,l),
(360,181,l),
(359,158,l),
(352,151,l),
(349,129,l),
(328,119,l),
(319,102,l),
(312,93,l),
(291,87,l),
(274,75,l),
(254,66,l),
(217,56,l),
(185,54,l)
);
},
{
closed = 1;
nodes = (
(239,385,l),
(216,397,l),
(212,402,l),
(193,407,l),
(179,419,l),
(160,434,l),
(164,440,l),
(158,454,l),
(151,488,l),
(152,511,l),
(161,526,l),
(165,541,l),
(179,561,l),
(181,573,l),
(191,577,l),
(200,588,l),
(223,605,l),
(244,616,l),
(269,618,l),
(276,613,l),
(303,620,l),
(331,609,l),
(346,610,l),
(369,596,l),
(373,581,l),
(380,568,l),
(392,555,l),
(389,543,l),
(398,514,l),
(391,482,l),
(389,475,l),
(376,454,l),
(372,447,l),
(365,435,l),
(348,422,l),
(334,412,l),
(317,408,l),
(305,398,l),
(268,391,l),
(252,379,l)
);
}
);
width = 474;
}
);
metricLeft = "=|B";
metricRight = "=B";
note = eight;
unicode = 56;
}
{
glyphname = equal;
kernLeft = KO_equal;
kernRight = KO_equal;
layers = (
{
hints = (
{
horizontal = 1;
place = (138,65);
type = Stem;
},
{
horizontal = 1;
place = (298,65);
type = Stem;
},
{
place = (40,400);
type = Stem;
}
);
layerId = m005;
shapes = (
{
closed = 1;
nodes = (
(496,330,l),
(499,347,l),
(498,362,l),
(496,370,l),
(455,373,l),
(445,367,l),
(428,373,l),
(413,371,l),
(407,369,l),
(385,369,l),
(370,368,l),
(354,363,l),
(335,360,l),
(331,367,l),
(308,364,l),
(277,364,l),
(262,360,l),
(244,363,l),
(224,361,l),
(212,364,l),
(207,360,l),
(181,363,l),
(170,360,l),
(149,363,l),
(126,360,l),
(104,352,l),
(99,330,l),
(97,315,l),
(111,303,l),
(112,295,l),
(137,288,l),
(157,289,l),
(168,288,l),
(189,294,l),
(207,293,l),
(214,298,l),
(255,292,l),
(272,298,l),
(282,290,l),
(303,294,l),
(322,294,l),
(338,291,l),
(378,293,l),
(387,297,l),
(399,292,l),
(411,289,l),
(436,292,l),
(452,284,l),
(483,292,l),
(488,301,l),
(491,315,l)
);
},
{
closed = 1;
nodes = (
(502,166,l),
(499,190,l),
(496,204,l),
(482,206,l),
(452,211,l),
(420,212,l),
(393,208,l),
(389,204,l),
(374,212,l),
(353,209,l),
(338,205,l),
(325,207,l),
(303,208,l),
(287,206,l),
(262,212,l),
(245,212,l),
(230,212,l),
(224,208,l),
(199,211,l),
(190,216,l),
(173,209,l),
(146,212,l),
(135,215,l),
(109,212,l),
(88,200,l),
(76,182,l),
(81,168,l),
(74,152,l),
(86,138,l),
(85,133,l),
(113,132,l),
(139,134,l),
(168,127,l),
(181,129,l),
(194,138,l),
(211,135,l),
(241,133,l),
(252,138,l),
(271,137,l),
(288,132,l),
(300,130,l),
(307,136,l),
(333,134,l),
(344,130,l),
(361,138,l),
(372,132,l),
(386,127,l),
(423,133,l),
(428,129,l),
(464,130,l),
(474,140,l),
(498,157,l)
);
}
);
width = 600;
},
{
hints = (
{
horizontal = 1;
place = (138,65);
type = Stem;
},
{
horizontal = 1;
place = (298,65);
type = Stem;
},
{
place = (40,400);
type = Stem;
}
);
layerId = m002;
shapes = (
{
closed = 1;
nodes = (
(523,342,l),
(527,354,l),
(516,367,l),
(517,387,l),
(499,395,l),
(496,401,l),
(448,393,l),
(438,395,l),
(414,391,l),
(392,395,l),
(365,386,l),
(350,388,l),
(312,390,l),
(295,386,l),
(264,392,l),
(232,384,l),
(215,385,l),
(205,391,l),
(187,383,l),
(171,391,l),
(161,385,l),
(126,386,l),
(111,385,l),
(104,371,l),
(76,343,l),
(81,326,l),
(82,320,l),
(75,305,l),
(75,288,l),
(114,260,l),
(135,267,l),
(152,261,l),
(178,271,l),
(183,266,l),
(198,264,l),
(235,270,l),
(254,269,l),
(268,265,l),
(284,271,l),
(324,266,l),
(333,272,l),
(366,267,l),
(389,267,l),
(405,263,l),
(429,269,l),
(447,263,l),
(480,267,l),
(495,273,l),
(507,284,l),
(515,305,l),
(521,315,l)
);
},
{
closed = 1;
nodes = (
(530,172,l),
(517,200,l),
(519,213,l),
(501,222,l),
(496,234,l),
(450,239,l),
(426,233,l),
(425,239,l),
(400,234,l),
(382,237,l),
(372,230,l),
(361,234,l),
(320,237,l),
(300,229,l),
(277,237,l),
(260,239,l),
(234,232,l),
(223,235,l),
(181,234,l),
(160,233,l),
(154,239,l),
(135,238,l),
(105,235,l),
(82,223,l),
(54,194,l),
(47,168,l),
(45,153,l),
(51,130,l),
(69,120,l),
(66,108,l),
(92,100,l),
(131,109,l),
(141,102,l),
(179,108,l),
(192,105,l),
(199,112,l),
(249,105,l),
(267,113,l),
(281,105,l),
(307,111,l),
(330,106,l),
(347,111,l),
(386,104,l),
(406,109,l),
(407,101,l),
(433,104,l),
(455,103,l),
(480,109,l),
(482,119,l),
(499,125,l),
(508,140,l),
(524,153,l)
);
}
);
width = 600;
},
{
hints = (
{
horizontal = 1;
place = (138,65);
type = Stem;
},
{
horizontal = 1;
place = (298,65);
type = Stem;
},
{
place = (41,400);
type = Stem;
}
);
layerId = m003;
shapes = (
{
closed = 1;
nodes = (
(496,331,l),
(489,346,l),
(485,357,l),
(466,357,l),
(448,357,l),
(438,358,l),
(422,359,l),
(405,353,l),
(382,357,l),
(370,357,l),
(359,357,l),
(343,357,l),
(319,357,l),
(313,358,l),
(286,350,l),
(282,356,l),
(257,356,l),
(249,356,l),
(227,353,l),
(216,348,l),
(199,351,l),
(190,348,l),
(166,356,l),
(153,349,l),
(124,347,l),
(108,331,l),
(119,316,l),
(112,301,l),
(145,295,l),
(159,299,l),
(188,299,l),
(204,307,l),
(212,307,l),
(235,300,l),
(248,302,l),
(265,304,l),
(283,306,l),
(296,306,l),
(312,300,l),
(327,306,l),
(329,307,l),
(358,307,l),
(373,307,l),
(380,303,l),
(398,300,l),
(415,305,l),
(416,298,l),
(433,301,l),
(452,297,l),
(482,299,l),
(488,316,l)
);
},
{
closed = 1;
nodes = (
(495,169,l),
(481,190,l),
(479,196,l),
(435,202,l),
(415,202,l),
(406,197,l),
(389,197,l),
(375,194,l),
(361,201,l),
(346,197,l),
(332,201,l),
(308,195,l),
(299,195,l),
(286,203,l),
(271,204,l),
(251,199,l),
(236,201,l),
(217,205,l),
(204,196,l),
(190,200,l),
(170,199,l),
(156,204,l),
(148,205,l),
(136,202,l),
(104,201,l),
(97,183,l),
(83,167,l),
(86,152,l),
(89,148,l),
(124,137,l),
(136,144,l),
(147,145,l),
(162,145,l),
(178,146,l),
(188,147,l),
(204,139,l),
(219,142,l),
(235,148,l),
(253,147,l),
(268,143,l),
(307,146,l),
(314,146,l),
(340,149,l),
(339,141,l),
(359,144,l),
(381,143,l),
(386,144,l),
(408,143,l),
(425,139,l),
(440,134,l),
(464,147,l),
(481,153,l)
);
}
);
width = 600;
}
);
note = equal;
unicode = 61;
userData = {
KernOnSpecialSpacing = {
L = math;
R = math;
};
};
}
{
glyphname = B;
kernLeft = KO_B;
kernRight = KO_B;
layers = (
{
hints = (
{
horizontal = 1;
place = (0,21);
target = up;
type = BottomGhost;
},
{
horizontal = 1;
place = (282,67);
type = Stem;
},
{
horizontal = 1;
place = (598,69);
type = Stem;
},
{
place = (17,100);
type = Stem;
},
{
place = (353,99);
type = Stem;
}
);
layerId = m005;
shapes = (
{
closed = 1;
nodes = (
(166,-4,l),
(186,-2,l),
(189,0,l),
(210,3,l),
(221,0,l),
(251,0,l),
(276,3,l),
(286,2,l),
(306,1,l),
(317,10,l),
(324,4,l),
(340,11,l),
(358,13,l),
(379,19,l),
(399,25,l),
(406,30,l),
(420,39,l),
(442,51,l),
(449,52,l),
(459,70,l),
(476,75,l),
(482,87,l),
(501,101,l),
(510,120,l),
(505,132,l),
(508,149,l),
(522,157,l),
(517,174,l),
(531,208,l),
(517,223,l),
(517,236,l),
(517,254,l),
(511,258,l),
(515,277,l),
(510,291,l),
(496,304,l),
(493,308,l),
(471,316,l),
(460,325,l),
(442,343,l),
(469,352,l),
(485,361,l),
(496,370,l),
(502,389,l),
(520,401,l),
(533,409,l),
(537,422,l),
(537,434,l),
(549,451,l),
(552,471,l),
(549,497,l),
(550,510,l),
(561,533,l),
(553,543,l),
(556,558,l),
(553,566,l),
(552,588,l),
(544,594,l),
(526,604,l),
(521,614,l),
(507,627,l),
(502,638,l),
(482,648,l),
(478,648,l),
(467,657,l),
(450,661,l),
(428,667,l),
(423,672,l),
(409,676,l),
(393,676,l),
(362,678,l),
(328,674,l),
(320,679,l),
(302,676,l),
(287,677,l),
(268,676,l),
(261,677,l),
(249,679,l),
(234,677,l),
(213,669,l),
(196,673,l),
(175,666,l),
(165,667,l),
(145,664,l),
(127,666,l),
(115,652,l),
(91,646,l),
(83,638,l),
(87,624,l),
(83,591,l),
(90,584,l),
(117,578,l),
(128,558,l),
(129,542,l),
(125,533,l),
(121,513,l),
(127,500,l),
(127,490,l),
(114,472,l),
(112,453,l),
(109,442,l),
(116,421,l),
(112,407,l),
(112,391,l),
(106,380,l),
(94,364,l),
(101,355,l),
(92,335,l),
(94,317,l),
(84,309,l),
(89,288,l),
(87,277,l),
(79,260,l),
(79,244,l),
(79,234,l),
(68,211,l),
(74,200,l),
(69,183,l),
(61,168,l),
(65,152,l),
(66,136,l),
(57,127,l),
(59,109,l),
(48,96,l),
(48,75,l),
(37,67,l),
(35,36,l),
(48,24,l),
(55,12,l),
(69,7,l),
(85,4,l),
(113,4,l),
(129,4,l),
(134,-4,l)
);
},
{
closed = 1;
nodes = (
(287,91,l),
(239,89,l),
(206,89,l),
(195,92,l),
(180,89,l),
(167,89,l),
(159,112,l),
(157,127,l),
(175,159,l),
(178,173,l),
(173,183,l),
(176,200,l),
(182,214,l),
(173,231,l),
(187,245,l),
(190,264,l),
(186,276,l),
(188,294,l),
(218,304,l),
(230,300,l),
(247,295,l),
(258,301,l),
(300,299,l),
(316,301,l),
(327,294,l),
(358,292,l),
(374,284,l),
(393,275,l),
(403,270,l),
(405,256,l),
(418,249,l),
(426,237,l),
(425,223,l),
(426,208,l),
(415,179,l),
(414,161,l),
(416,147,l),
(402,132,l),
(389,118,l),
(376,108,l),
(366,107,l),
(332,99,l),
(310,97,l),
(293,88,l)
);
},
{
closed = 1;
nodes = (
(270,383,l),
(262,377,l),
(237,376,l),
(233,384,l),
(209,378,l),
(208,401,l),
(208,423,l),
(209,434,l),
(211,467,l),
(218,486,l),
(210,496,l),
(221,515,l),
(217,531,l),
(222,541,l),
(219,562,l),
(233,584,l),
(253,583,l),
(272,586,l),
(284,582,l),
(306,588,l),
(310,583,l),
(340,585,l),
(366,582,l),
(387,580,l),
(402,574,l),
(420,570,l),
(436,564,l),
(448,552,l),
(450,544,l),
(452,515,l),
(462,501,l),
(453,468,l),
(451,458,l),
(434,437,l),
(437,427,l),
(421,416,l),
(411,403,l),
(398,396,l),
(380,393,l),
(352,380,l),
(335,382,l),
(313,376,l),
(280,375,l)
);
}
);
width = 538;
},
{
hints = (
{
horizontal = 1;
place = (0,21);
target = up;
type = BottomGhost;
},
{
horizontal = 1;
place = (282,67);
type = Stem;
},
{
horizontal = 1;
place = (598,69);
type = Stem;
},
{
place = (17,100);
type = Stem;
},
{
place = (353,99);
type = Stem;
}
);
layerId = m002;
shapes = (
{
closed = 1;
nodes = (
(204,-12,l),
(213,-18,l),
(235,-15,l),
(248,-17,l),
(267,-12,l),
(298,-13,l),
(306,-10,l),
(325,-9,l),
(344,-9,l),
(356,-13,l),
(363,-7,l),
(387,-1,l),
(396,-2,l),
(419,4,l),
(424,8,l),
(443,10,l),
(466,16,l),
(475,27,l),
(489,26,l),
(499,40,l),
(516,48,l),
(525,58,l),
(542,65,l),
(555,75,l),
(572,99,l),
(578,115,l),
(598,125,l),
(602,142,l),
(600,159,l),
(612,167,l),
(617,188,l),
(615,196,l),
(627,215,l),
(626,244,l),
(625,257,l),
(617,287,l),
(613,303,l),
(596,324,l),
(591,337,l),
(587,349,l),
(602,368,l),
(621,393,l),
(626,410,l),
(639,431,l),
(650,459,l),
(640,474,l),
(650,489,l),
(639,508,l),
(645,524,l),
(639,540,l),
(629,547,l),
(626,562,l),
(626,577,l),
(611,583,l),
(613,600,l),
(596,611,l),
(596,616,l),
(585,631,l),
(573,640,l),
(554,640,l),
(547,650,l),
(533,660,l),
(516,664,l),
(502,662,l),
(494,667,l),
(475,669,l),
(462,671,l),
(452,675,l),
(419,683,l),
(400,677,l),
(371,682,l),
(365,686,l),
(339,680,l),
(332,679,l),
(320,677,l),
(296,681,l),
(278,678,l),
(274,679,l),
(253,680,l),
(238,679,l),
(227,679,l),
(212,676,l),
(198,673,l),
(181,672,l),
(164,673,l),
(138,664,l),
(116,661,l),
(98,651,l),
(86,625,l),
(65,606,l),
(65,591,l),
(64,562,l),
(79,545,l),
(75,534,l),
(100,527,l),
(102,515,l),
(112,497,l),
(112,473,l),
(105,447,l),
(95,417,l),
(104,406,l),
(94,392,l),
(88,376,l),
(95,354,l),
(87,340,l),
(92,325,l),
(84,315,l),
(81,295,l),
(79,286,l),
(71,263,l),
(67,249,l),
(67,239,l),
(64,217,l),
(57,211,l),
(65,192,l),
(56,174,l),
(61,159,l),
(50,145,l),
(52,133,l),
(39,116,l),
(39,103,l),
(38,74,l),
(44,60,l),
(34,37,l),
(51,29,l),
(57,18,l),
(64,3,l),
(81,4,l),
(94,-9,l),
(105,-7,l),
(124,-12,l),
(145,-18,l),
(176,-18,l),
(186,-19,l)
);
},
{
closed = 1;
nodes = (
(309,158,l),
(297,159,l),
(287,160,l),
(281,162,l),
(275,172,l),
(273,177,l),
(269,185,l),
(266,194,l),
(262,203,l),
(268,213,l),
(272,220,l),
(279,232,l),
(280,240,l),
(280,248,l),
(294,257,l),
(303,264,l),
(312,270,l),
(322,270,l),
(336,269,l),
(346,271,l),
(355,270,l),
(366,269,l),
(378,267,l),
(384,262,l),
(388,258,l),
(399,258,l),
(410,258,l),
(411,252,l),
(413,240,l),
(417,236,l),
(423,230,l),
(422,222,l),
(422,210,l),
(422,201,l),
(410,189,l),
(401,182,l),
(395,177,l),
(386,169,l),
(373,161,l),
(364,160,l),
(355,159,l),
(344,158,l),
(337,157,l),
(323,157,l)
);
},
{
closed = 1;
nodes = (
(347,409,l),
(333,411,l),
(318,410,l),
(313,418,l),
(310,424,l),
(303,430,l),
(304,440,l),
(305,447,l),
(306,453,l),
(307,462,l),
(308,468,l),
(308,480,l),
(307,488,l),
(306,499,l),
(314,505,l),
(319,509,l),
(325,512,l),
(337,516,l),
(347,518,l),
(356,520,l),
(365,523,l),
(378,522,l),
(386,521,l),
(398,519,l),
(408,517,l),
(414,516,l),
(421,514,l),
(434,511,l),
(439,503,l),
(444,496,l),
(447,483,l),
(444,475,l),
(442,464,l),
(438,453,l),
(436,445,l),
(435,436,l),
(423,431,l),
(414,427,l),
(403,420,l),
(395,414,l),
(387,411,l),
(370,409,l),
(358,407,l)
);
}
);
width = 641;
},
{
hints = (
{
horizontal = 1;
place = (0,21);
target = up;
type = BottomGhost;
},
{
horizontal = 1;
place = (282,67);
type = Stem;
},
{
horizontal = 1;
place = (598,69);
type = Stem;
},
{
place = (17,100);
type = Stem;
},
{
place = (353,99);
type = Stem;
}
);
layerId = m003;
shapes = (
{
closed = 1;
nodes = (
(235,2,l),
(240,1,l),
(263,-1,l),
(268,7,l),
(288,11,l),
(305,15,l),
(313,12,l),
(333,22,l),
(348,22,l),
(368,32,l),
(373,34,l),
(386,45,l),
(405,56,l),
(408,63,l),
(424,77,l),
(440,89,l),
(441,98,l),
(447,117,l),
(464,127,l),
(471,144,l),
(464,158,l),
(468,178,l),
(469,201,l),
(478,221,l),
(473,228,l),
(469,245,l),
(462,265,l),
(460,269,l),
(450,284,l),
(446,296,l),
(443,303,l),
(433,317,l),
(424,322,l),
(398,342,l),
(422,363,l),
(435,372,l),
(448,380,l),
(458,388,l),
(467,404,l),
(483,414,l),
(490,430,l),
(490,440,l),
(494,458,l),
(495,472,l),
(506,496,l),
(512,514,l),
(504,526,l),
(502,544,l),
(509,558,l),
(505,568,l),
(499,582,l),
(488,592,l),
(479,609,l),
(470,615,l),
(468,622,l),
(461,639,l),
(447,638,l),
(426,647,l),
(416,651,l),
(403,660,l),
(384,661,l),
(373,671,l),
(347,669,l),
(336,668,l),
(315,671,l),
(295,675,l),
(268,670,l),
(258,674,l),
(240,672,l),
(238,676,l),
(209,669,l),
(198,668,l),
(190,668,l),
(172,674,l),
(151,672,l),
(148,670,l),
(122,662,l),
(107,665,l),
(88,664,l),
(75,655,l),
(64,643,l),
(52,634,l),
(56,606,l),
(66,592,l),
(82,594,l),
(90,596,l),
(96,566,l),
(97,553,l),
(100,536,l),
(98,527,l),
(91,510,l),
(93,498,l),
(94,482,l),
(88,463,l),
(83,444,l),
(81,430,l),
(72,419,l),
(80,401,l),
(77,389,l),
(65,374,l),
(71,360,l),
(70,339,l),
(65,328,l),
(54,307,l),
(55,300,l),
(59,285,l),
(48,267,l),
(54,253,l),
(46,236,l),
(45,220,l),
(37,206,l),
(44,189,l),
(41,170,l),
(39,155,l),
(37,145,l),
(34,127,l),
(22,114,l),
(13,94,l),
(24,80,l),
(9,64,l),
(12,50,l),
(2,21,l),
(6,10,l),
(27,6,l),
(39,-1,l),
(71,1,l),
(85,1,l),
(101,-2,l),
(121,2,l),
(145,0,l),
(159,1,l),
(172,-3,l),
(185,3,l),
(218,-5,l)
);
},
{
closed = 1;
nodes = (
(145,70,l),
(109,77,l),
(102,101,l),
(113,121,l),
(110,133,l),
(122,150,l),
(118,168,l),
(118,183,l),
(130,199,l),
(126,223,l),
(128,242,l),
(133,255,l),
(129,272,l),
(149,305,l),
(182,309,l),
(205,306,l),
(213,314,l),
(232,313,l),
(263,308,l),
(283,308,l),
(301,304,l),
(325,297,l),
(334,301,l),
(359,286,l),
(363,274,l),
(383,273,l),
(380,260,l),
(392,248,l),
(393,237,l),
(391,205,l),
(392,171,l),
(385,156,l),
(385,145,l),
(369,136,l),
(366,117,l),
(356,106,l),
(319,89,l),
(294,79,l),
(270,71,l),
(259,71,l),
(228,66,l),
(193,74,l),
(186,67,l),
(173,66,l)
);
},
{
closed = 1;
nodes = (
(236,371,l),
(202,373,l),
(181,370,l),
(150,370,l),
(151,407,l),
(160,421,l),
(157,429,l),
(160,447,l),
(166,465,l),
(164,489,l),
(177,528,l),
(170,536,l),
(178,549,l),
(173,570,l),
(189,594,l),
(229,606,l),
(244,599,l),
(262,607,l),
(274,601,l),
(316,602,l),
(341,599,l),
(363,591,l),
(385,594,l),
(394,581,l),
(402,578,l),
(419,569,l),
(417,555,l),
(425,543,l),
(419,525,l),
(434,512,l),
(428,494,l),
(422,466,l),
(423,450,l),
(416,443,l),
(406,427,l),
(398,409,l),
(373,406,l),
(359,388,l),
(344,383,l),
(324,371,l),
(303,377,l),
(277,373,l),
(237,367,l)
);
}
);
width = 506;
}
);
metricLeft = "=H";
metricRight = "=H/4";
note = P;
unicode = 66;
}
{
glyphname = D;
kernLeft = KO_D;
kernRight = KO_D;
layers = (
{
anchors = (
{
name = bottom;
pos = (257,0);
},
{
name = center;
pos = (162,334);
},
{
name = top;
pos = (362,667);
}
);
hints = (
{
horizontal = 1;
place = (-10,80);
type = Stem;
},
{
horizontal = 1;
place = (597,80);
type = Stem;
},
{
place = (-18,110);
type = Stem;
},
{
place = (372,110);
type = Stem;
}
);
layerId = m005;
shapes = (
{
closed = 1;
nodes = (
(129,2,l),
(142,3,l),
(147,-3,l),
(163,-2,l),
(187,-3,l),
(197,4,l),
(207,0,l),
(227,-2,l),
(257,4,l),
(275,-2,l),
(293,5,l),
(314,7,l),
(339,16,l),
(346,21,l),
(363,27,l),
(382,37,l),
(383,46,l),
(396,48,l),
(417,59,l),
(431,71,l),
(446,77,l),
(454,90,l),
(464,107,l),
(476,118,l),
(473,125,l),
(486,148,l),
(501,158,l),
(513,170,l),
(511,186,l),
(519,196,l),
(526,213,l),
(534,232,l),
(541,242,l),
(537,253,l),
(546,275,l),
(557,288,l),
(554,306,l),
(561,318,l),
(567,329,l),
(563,365,l),
(574,380,l),
(577,396,l),
(569,406,l),
(579,428,l),
(576,437,l),
(579,452,l),
(580,470,l),
(572,484,l),
(571,500,l),
(568,511,l),
(570,529,l),
(558,546,l),
(562,552,l),
(549,567,l),
(548,577,l),
(549,598,l),
(541,602,l),
(530,616,l),
(515,626,l),
(493,639,l),
(484,646,l),
(468,652,l),
(467,667,l),
(447,668,l),
(442,670,l),
(421,676,l),
(402,680,l),
(393,672,l),
(363,679,l),
(342,679,l),
(335,674,l),
(318,680,l),
(296,672,l),
(285,677,l),
(263,674,l),
(257,679,l),
(243,674,l),
(228,671,l),
(205,675,l),
(197,667,l),
(175,666,l),
(168,671,l),
(133,668,l),
(125,660,l),
(96,649,l),
(84,640,l),
(90,627,l),
(81,598,l),
(104,590,l),
(112,580,l),
(123,557,l),
(123,540,l),
(127,527,l),
(127,513,l),
(120,497,l),
(110,483,l),
(118,469,l),
(109,457,l),
(108,436,l),
(104,420,l),
(112,413,l),
(103,395,l),
(101,378,l),
(99,368,l),
(97,344,l),
(95,329,l),
(88,321,l),
(83,302,l),
(86,289,l),
(90,272,l),
(87,257,l),
(73,226,l),
(79,213,l),
(72,202,l),
(69,184,l),
(62,170,l),
(64,155,l),
(58,143,l),
(56,122,l),
(47,105,l),
(48,96,l),
(54,80,l),
(42,60,l),
(46,38,l),
(49,18,l),
(56,13,l),
(60,4,l),
(82,-3,l),
(101,-5,l)
);
},
{
closed = 1;
nodes = (
(167,91,l),
(152,97,l),
(160,118,l),
(164,131,l),
(154,149,l),
(169,164,l),
(165,175,l),
(170,190,l),
(173,210,l),
(170,219,l),
(184,240,l),
(179,255,l),
(180,263,l),
(193,284,l),
(190,294,l),
(183,309,l),
(198,331,l),
(191,345,l),
(197,357,l),
(207,372,l),
(200,392,l),
(204,400,l),
(211,415,l),
(215,431,l),
(210,450,l),
(212,468,l),
(217,481,l),
(223,496,l),
(223,512,l),
(226,523,l),
(225,545,l),
(225,559,l),
(223,581,l),
(242,581,l),
(259,581,l),
(270,577,l),
(280,582,l),
(292,577,l),
(314,580,l),
(330,582,l),
(341,582,l),
(356,581,l),
(367,580,l),
(380,579,l),
(384,581,l),
(400,575,l),
(421,573,l),
(423,567,l),
(436,553,l),
(442,547,l),
(457,534,l),
(462,522,l),
(460,508,l),
(475,499,l),
(465,483,l),
(474,470,l),
(477,452,l),
(477,431,l),
(477,425,l),
(477,410,l),
(468,389,l),
(463,381,l),
(464,359,l),
(465,329,l),
(456,314,l),
(454,299,l),
(454,281,l),
(444,273,l),
(435,255,l),
(438,242,l),
(436,221,l),
(430,212,l),
(423,196,l),
(407,178,l),
(401,165,l),
(396,153,l),
(375,142,l),
(364,135,l),
(351,127,l),
(339,111,l),
(324,106,l),
(320,96,l),
(302,98,l),
(288,90,l),
(274,94,l),
(243,93,l),
(223,94,l),
(215,94,l),
(199,89,l),
(181,94,l),
(179,86,l)
);
}
);
width = 582;
},
{
anchors = (
{
name = bottom;
pos = (269,0);
},
{
name = center;
pos = (161,334);
},
{
name = top;
pos = (375,667);
}
);
hints = (
{
horizontal = 1;
place = (-10,80);
type = Stem;
},
{
horizontal = 1;
place = (597,80);
type = Stem;
},
{
place = (-18,110);
type = Stem;
},
{
place = (372,110);
type = Stem;
}
);
layerId = m002;
shapes = (
{
closed = 1;
nodes = (
(147,-23,l),
(159,-29,l),
(176,-27,l),
(197,-28,l),
(210,-21,l),
(219,-30,l),
(237,-21,l),
(258,-26,l),
(296,-21,l),
(326,-26,l),
(344,-17,l),
(363,-18,l),
(377,-9,l),
(395,-2,l),
(417,2,l),
(425,14,l),
(451,17,l),
(463,31,l),
(487,41,l),
(498,51,l),
(509,66,l),
(525,74,l),
(535,92,l),
(548,100,l),
(549,113,l),
(566,130,l),
(576,145,l),
(578,156,l),
(597,167,l),
(603,185,l),
(614,194,l),
(615,211,l),
(615,227,l),
(630,237,l),
(627,255,l),
(634,283,l),
(650,300,l),
(652,317,l),
(659,334,l),
(658,362,l),
(658,380,l),
(662,408,l),
(667,419,l),
(669,436,l),
(659,455,l),
(657,470,l),
(661,485,l),
(664,493,l),
(656,510,l),
(651,526,l),
(651,538,l),
(639,562,l),
(635,582,l),
(621,588,l),
(627,603,l),
(608,611,l),
(607,622,l),
(599,636,l),
(580,647,l),
(566,649,l),
(551,666,l),
(528,670,l),
(509,682,l),
(499,679,l),
(481,689,l),
(470,693,l),
(447,695,l),
(429,696,l),
(398,692,l),
(391,695,l),
(372,693,l),
(350,691,l),
(338,694,l),
(320,686,l),
(313,694,l),
(298,687,l),
(282,692,l),
(258,687,l),
(242,686,l),
(237,680,l),
(225,678,l),
(202,682,l),
(175,670,l),
(168,672,l),
(142,660,l),
(138,661,l),
(111,651,l),
(109,640,l),
(92,630,l),
(75,618,l),
(65,606,l),
(70,598,l),
(74,565,l),
(75,552,l),
(88,534,l),
(101,515,l),
(103,488,l),
(106,469,l),
(98,456,l),
(96,440,l),
(105,424,l),
(104,414,l),
(91,394,l),
(96,363,l),
(87,353,l),
(80,336,l),
(83,307,l),
(83,291,l),
(76,271,l),
(80,264,l),
(67,243,l),
(75,229,l),
(63,218,l),
(61,197,l),
(57,171,l),
(52,152,l),
(44,139,l),
(53,127,l),
(41,103,l),
(41,88,l),
(28,57,l),
(28,48,l),
(35,30,l),
(52,21,l),
(58,2,l),
(67,-13,l),
(93,-13,l),
(94,-26,l),
(115,-29,l)
);
},
{
closed = 1;
nodes = (
(290,165,l),
(285,168,l),
(273,169,l),
(259,171,l),
(258,180,l),
(257,186,l),
(255,198,l),
(257,206,l),
(259,214,l),
(260,219,l),
(266,232,l),
(261,241,l),
(257,248,l),
(264,253,l),
(272,258,l),
(272,266,l),
(273,273,l),
(271,287,l),
(269,294,l),
(274,307,l),
(282,323,l),
(278,332,l),
(275,339,l),
(280,348,l),
(283,354,l),
(284,369,l),
(291,382,l),
(288,393,l),
(285,399,l),
(287,416,l),
(287,424,l),
(289,438,l),
(292,455,l),
(295,470,l),
(297,477,l),
(304,484,l),
(312,493,l),
(316,496,l),
(318,501,l),
(333,501,l),
(350,502,l),
(370,510,l),
(369,503,l),
(384,505,l),
(400,507,l),
(413,508,l),
(418,500,l),
(433,502,l),
(448,495,l),
(456,484,l),
(457,478,l),
(460,466,l),
(464,458,l),
(467,450,l),
(470,437,l),
(465,430,l),
(459,421,l),
(459,413,l),
(459,403,l),
(459,393,l),
(467,382,l),
(461,373,l),
(453,357,l),
(453,352,l),
(453,341,l),
(454,334,l),
(451,314,l),
(445,300,l),
(442,292,l),
(437,282,l),
(434,276,l),
(428,263,l),
(424,252,l),
(429,240,l),
(421,225,l),
(415,220,l),
(408,214,l),
(403,206,l),
(400,202,l),
(394,194,l),
(386,191,l),
(378,188,l),
(370,182,l),
(365,178,l),
(357,177,l),
(351,175,l),
(343,173,l),
(337,172,l),
(329,162,l),
(317,161,l),
(303,160,l)
);
}
);
width = 645;
},
{
anchors = (
{
name = bottom;
pos = (225,0);
},
{
name = center;
pos = (139,334);
},
{
name = top;
pos = (331,667);
}
);
hints = (
{
horizontal = 1;
place = (-10,80);
type = Stem;
},
{
horizontal = 1;
place = (597,80);
type = Stem;
},
{
place = (-18,110);
type = Stem;
},
{
place = (372,110);
type = Stem;
}
);
layerId = m003;
shapes = (
{
closed = 1;
nodes = (
(62,3,l),
(70,-1,l),
(88,0,l),
(104,4,l),
(122,-5,l),
(148,-5,l),
(163,-3,l),
(185,-3,l),
(218,-5,l),
(234,0,l),
(245,2,l),
(256,2,l),
(271,13,l),
(291,14,l),
(302,18,l),
(312,28,l),
(332,38,l),
(351,47,l),
(357,58,l),
(362,66,l),
(375,71,l),
(398,88,l),
(406,98,l),
(408,108,l),
(427,128,l),
(430,138,l),
(442,156,l),
(446,165,l),
(462,184,l),
(465,196,l),
(466,207,l),
(475,228,l),
(485,239,l),
(480,259,l),
(497,272,l),
(491,286,l),
(504,298,l),
(507,318,l),
(497,333,l),
(503,360,l),
(516,376,l),
(506,394,l),
(507,406,l),
(520,428,l),
(513,436,l),
(520,452,l),
(509,473,l),
(521,487,l),
(507,500,l),
(511,517,l),
(511,528,l),
(505,544,l),
(505,561,l),
(490,568,l),
(496,587,l),
(482,601,l),
(471,606,l),
(469,618,l),
(455,634,l),
(449,640,l),
(446,648,l),
(428,656,l),
(420,661,l),
(404,668,l),
(383,665,l),
(378,673,l),
(361,675,l),
(339,669,l),
(311,672,l),
(301,671,l),
(287,675,l),
(262,671,l),
(254,669,l),
(241,675,l),
(217,675,l),
(209,673,l),
(196,671,l),
(183,673,l),
(159,665,l),
(144,670,l),
(130,664,l),
(110,669,l),
(85,664,l),
(68,659,l),
(63,644,l),
(53,634,l),
(47,606,l),
(67,594,l),
(76,598,l),
(90,590,l),
(89,566,l),
(94,554,l),
(87,536,l),
(90,519,l),
(84,502,l),
(77,486,l),
(79,479,l),
(72,461,l),
(75,449,l),
(72,428,l),
(66,417,l),
(63,404,l),
(72,390,l),
(55,367,l),
(59,359,l),
(62,339,l),
(53,326,l),
(47,308,l),
(49,295,l),
(49,283,l),
(44,260,l),
(39,253,l),
(36,237,l),
(42,222,l),
(39,200,l),
(35,191,l),
(24,169,l),
(27,157,l),
(31,147,l),
(21,130,l),
(24,112,l),
(8,95,l),
(10,80,l),
(8,66,l),
(8,53,l),
(6,25,l),
(6,10,l),
(19,5,l),
(29,1,l)
);
},
{
closed = 1;
nodes = (
(90,77,l),
(91,108,l),
(97,122,l),
(104,138,l),
(108,149,l),
(110,169,l),
(115,183,l),
(111,193,l),
(122,214,l),
(122,228,l),
(115,240,l),
(130,256,l),
(129,270,l),
(127,290,l),
(134,307,l),
(133,318,l),
(143,336,l),
(141,354,l),
(143,367,l),
(141,376,l),
(152,396,l),
(155,411,l),
(143,424,l),
(154,443,l),
(150,454,l),
(164,472,l),
(164,486,l),
(167,504,l),
(161,521,l),
(170,528,l),
(163,550,l),
(172,562,l),
(179,588,l),
(199,601,l),
(207,597,l),
(226,598,l),
(246,602,l),
(256,600,l),
(269,601,l),
(295,601,l),
(301,594,l),
(339,603,l),
(349,596,l),
(364,592,l),
(371,587,l),
(393,582,l),
(405,574,l),
(411,566,l),
(410,555,l),
(420,542,l),
(424,525,l),
(435,508,l),
(434,497,l),
(436,484,l),
(434,467,l),
(430,453,l),
(433,442,l),
(437,426,l),
(431,405,l),
(432,397,l),
(430,380,l),
(433,364,l),
(419,332,l),
(415,310,l),
(425,301,l),
(419,282,l),
(408,272,l),
(397,249,l),
(394,235,l),
(386,222,l),
(393,206,l),
(384,188,l),
(371,180,l),
(362,158,l),
(349,150,l),
(349,141,l),
(335,120,l),
(321,118,l),
(314,100,l),
(288,93,l),
(282,89,l),
(268,84,l),
(259,75,l),
(232,71,l),
(224,70,l),
(187,72,l),
(180,70,l),
(157,71,l),
(144,68,l),
(129,70,l),
(116,67,l)
);
}
);
width = 554;
}
);
metricLeft = "=H";
metricRight = "=O";
note = O;
unicode = 68;
userData = {
KernOnName = D;
};
}
{
glyphname = E;
kernLeft = KO_E;
kernRight = KO_E;
layers = (
{
anchors = (
{
name = bottom;
pos = (159,0);
},
{
name = ogonek;
pos = (357,10);
},
{
name = top;
pos = (258,625);
},
{
name = topleft;
pos = (40,667);
}
);
hints = (
{
horizontal = 1;
place = (0,75);
type = Stem;
},
{
horizontal = 1;
place = (305,74);
type = Stem;
},
{
horizontal = 1;
place = (592,75);
type = Stem;
},
{
place = (17,100);
type = Stem;
}
);
layerId = m005;
shapes = (
{
closed = 1;
nodes = (
(24,-1,l),
(44,0,l),
(58,-5,l),
(74,4,l),
(96,-3,l),
(112,-3,l),
(121,-2,l),
(136,1,l),
(145,2,l),
(173,4,l),
(186,3,l),
(196,-3,l),
(211,0,l),
(231,-5,l),
(241,-2,l),
(258,-5,l),
(270,1,l),
(284,-3,l),
(310,-4,l),
(321,3,l),
(346,0,l),
(370,11,l),
(373,20,l),
(382,52,l),
(378,65,l),
(379,78,l),
(359,84,l),
(330,92,l),
(313,87,l),
(306,84,l),
(282,82,l),
(282,88,l),
(262,79,l),
(246,85,l),
(226,84,l),
(221,83,l),
(203,78,l),
(179,84,l),
(162,75,l),
(156,81,l),
(144,82,l),
(120,83,l),
(105,84,l),
(90,86,l),
(89,111,l),
(90,132,l),
(96,148,l),
(97,163,l),
(107,174,l),
(107,193,l),
(103,211,l),
(107,220,l),
(109,243,l),
(120,255,l),
(125,283,l),
(149,293,l),
(162,296,l),
(185,292,l),
(191,295,l),
(216,296,l),
(241,295,l),
(259,304,l),
(278,304,l),
(280,298,l),
(303,295,l),
(321,302,l),
(340,297,l),
(361,305,l),
(376,323,l),
(382,358,l),
(374,369,l),
(366,380,l),
(367,389,l),
(330,391,l),
(323,386,l),
(304,379,l),
(285,378,l),
(276,382,l),
(250,377,l),
(245,380,l),
(233,375,l),
(214,378,l),
(203,372,l),
(186,372,l),
(167,370,l),
(155,374,l),
(140,379,l),
(139,401,l),
(141,422,l),
(141,432,l),
(144,449,l),
(150,468,l),
(145,482,l),
(148,497,l),
(149,521,l),
(156,539,l),
(160,551,l),
(161,570,l),
(162,586,l),
(193,582,l),
(203,583,l),
(217,588,l),
(235,584,l),
(253,585,l),
(272,584,l),
(279,588,l),
(304,587,l),
(313,589,l),
(335,587,l),
(343,578,l),
(366,580,l),
(374,577,l),
(394,577,l),
(406,578,l),
(430,575,l),
(445,588,l),
(460,600,l),
(459,612,l),
(472,637,l),
(468,657,l),
(451,665,l),
(425,671,l),
(399,664,l),
(390,662,l),
(382,669,l),
(363,671,l),
(350,666,l),
(336,670,l),
(321,667,l),
(301,665,l),
(281,664,l),
(265,671,l),
(253,663,l),
(231,663,l),
(221,670,l),
(204,663,l),
(192,666,l),
(184,670,l),
(170,662,l),
(147,665,l),
(135,663,l),
(103,663,l),
(87,658,l),
(74,651,l),
(68,643,l),
(57,610,l),
(57,599,l),
(59,580,l),
(57,566,l),
(65,552,l),
(52,537,l),
(61,526,l),
(55,511,l),
(55,496,l),
(58,481,l),
(55,466,l),
(45,448,l),
(47,434,l),
(45,415,l),
(48,404,l),
(43,383,l),
(35,367,l),
(37,355,l),
(34,338,l),
(24,321,l),
(28,307,l),
(27,296,l),
(23,280,l),
(19,261,l),
(11,251,l),
(15,238,l),
(11,217,l),
(3,200,l),
(5,193,l),
(0,174,l),
(4,164,l),
(-8,148,l),
(-15,133,l),
(-12,115,l),
(-10,95,l),
(-25,81,l),
(-23,66,l),
(-29,55,l),
(-34,26,l),
(-25,14,l),
(-11,10,l),
(1,-3,l)
);
}
);
width = 441;
},
{
anchors = (
{
name = bottom;
pos = (240,0);
},
{
name = ogonek;
pos = (438,10);
},
{
name = top;
pos = (339,625);
},
{
name = topleft;
pos = (121,667);
}
);
hints = (
{
horizontal = 1;
place = (0,75);
type = Stem;
},
{
horizontal = 1;
place = (305,74);
type = Stem;
},
{
horizontal = 1;
place = (592,75);
type = Stem;
},
{
place = (17,100);
type = Stem;
}
);
layerId = m002;
shapes = (
{
closed = 1;
nodes = (
(62,-22,l),
(108,-28,l),
(118,-21,l),
(137,-28,l),
(171,-28,l),
(190,-22,l),
(195,-25,l),
(231,-25,l),
(247,-22,l),
(254,-30,l),
(280,-21,l),
(290,-25,l),
(309,-28,l),
(315,-22,l),
(337,-28,l),
(356,-30,l),
(372,-24,l),
(400,-23,l),
(431,-28,l),
(443,-16,l),
(465,-16,l),
(490,3,l),
(493,22,l),
(503,29,l),
(514,48,l),
(513,83,l),
(523,92,l),
(514,106,l),
(510,120,l),
(500,139,l),
(484,154,l),
(473,164,l),
(453,160,l),
(432,160,l),
(415,160,l),
(409,158,l),
(385,162,l),
(375,154,l),
(360,154,l),
(341,158,l),
(326,152,l),
(312,157,l),
(296,158,l),
(284,159,l),
(266,150,l),
(259,152,l),
(246,154,l),
(226,156,l),
(229,172,l),
(225,183,l),
(228,201,l),
(238,213,l),
(235,230,l),
(250,243,l),
(272,241,l),
(289,248,l),
(293,241,l),
(306,244,l),
(321,247,l),
(351,248,l),
(358,246,l),
(380,246,l),
(390,246,l),
(417,253,l),
(432,258,l),
(449,265,l),
(468,269,l),
(479,283,l),
(485,288,l),
(495,303,l),
(511,322,l),
(504,349,l),
(504,370,l),
(514,386,l),
(505,397,l),
(502,408,l),
(487,417,l),
(475,422,l),
(469,436,l),
(455,433,l),
(442,442,l),
(406,432,l),
(397,437,l),
(384,429,l),
(367,434,l),
(344,428,l),
(329,428,l),
(321,423,l),
(307,421,l),
(293,419,l),
(280,419,l),
(277,433,l),
(272,447,l),
(279,457,l),
(279,463,l),
(268,469,l),
(273,481,l),
(280,495,l),
(284,503,l),
(300,507,l),
(310,510,l),
(319,507,l),
(343,507,l),
(358,514,l),
(363,510,l),
(382,507,l),
(399,512,l),
(407,508,l),
(429,510,l),
(444,503,l),
(450,508,l),
(471,503,l),
(505,501,l),
(517,503,l),
(532,506,l),
(549,521,l),
(571,539,l),
(575,558,l),
(593,571,l),
(598,587,l),
(602,612,l),
(592,631,l),
(599,643,l),
(581,655,l),
(585,665,l),
(577,679,l),
(558,680,l),
(533,690,l),
(511,692,l),
(489,690,l),
(479,696,l),
(462,696,l),
(438,690,l),
(406,692,l),
(382,696,l),
(334,696,l),
(315,692,l),
(287,687,l),
(272,687,l),
(263,696,l),
(241,689,l),
(222,687,l),
(181,694,l),
(177,685,l),
(164,685,l),
(147,671,l),
(122,653,l),
(100,640,l),
(100,632,l),
(93,616,l),
(88,583,l),
(86,571,l),
(88,554,l),
(83,536,l),
(87,518,l),
(83,489,l),
(86,478,l),
(72,460,l),
(71,444,l),
(83,431,l),
(78,417,l),
(69,404,l),
(77,385,l),
(71,375,l),
(66,356,l),
(57,339,l),
(60,327,l),
(64,315,l),
(59,294,l),
(54,284,l),
(50,266,l),
(49,248,l),
(51,240,l),
(42,216,l),
(46,205,l),
(30,175,l),
(22,157,l),
(30,141,l),
(25,128,l),
(14,119,l),
(15,100,l),
(8,81,l),
(2,57,l),
(7,26,l),
(19,4,l),
(27,-6,l),
(47,-13,l)
);
}
);
width = 547;
},
{
anchors = (
{
name = bottom;
pos = (220,0);
},
{
name = ogonek;
pos = (418,10);
},
{
name = top;
pos = (319,625);
},
{
name = topleft;
pos = (101,667);
}
);
hints = (
{
horizontal = 1;
place = (0,75);
type = Stem;
},
{
horizontal = 1;
place = (305,74);
type = Stem;
},
{
horizontal = 1;
place = (592,75);
type = Stem;
},
{
place = (17,100);
type = Stem;
}
);
layerId = m003;
shapes = (
{
closed = 1;
nodes = (
(90,0,l),
(100,0,l),
(114,3,l),
(134,4,l),
(152,2,l),
(167,-3,l),
(180,-1,l),
(194,-1,l),
(218,1,l),
(232,-2,l),
(235,1,l),
(253,0,l),
(277,1,l),
(287,-3,l),
(310,4,l),
(312,1,l),
(327,0,l),
(344,-3,l),
(363,-2,l),
(376,0,l),
(415,3,l),
(427,17,l),
(425,40,l),
(428,52,l),
(413,63,l),
(390,63,l),
(379,64,l),
(366,63,l),
(351,67,l),
(327,66,l),
(315,60,l),
(301,63,l),
(283,65,l),
(269,60,l),
(262,57,l),
(242,58,l),
(230,56,l),
(214,58,l),
(192,62,l),
(187,60,l),
(161,55,l),
(140,68,l),
(138,75,l),
(135,105,l),
(138,125,l),
(144,135,l),
(153,155,l),
(146,161,l),
(156,176,l),
(163,200,l),
(164,215,l),
(162,226,l),
(170,244,l),
(160,258,l),
(169,284,l),
(191,299,l),
(211,299,l),
(229,308,l),
(245,301,l),
(264,305,l),
(272,308,l),
(297,306,l),
(308,305,l),
(322,309,l),
(338,305,l),
(353,311,l),
(372,314,l),
(374,314,l),
(411,316,l),
(418,321,l),
(434,348,l),
(421,369,l),
(427,380,l),
(390,374,l),
(374,380,l),
(360,378,l),
(347,371,l),
(334,370,l),
(326,375,l),
(300,372,l),
(289,368,l),
(276,363,l),
(256,369,l),
(247,364,l),
(232,368,l),
(197,368,l),
(195,375,l),
(192,404,l),
(195,419,l),
(196,435,l),
(198,456,l),
(204,463,l),
(202,486,l),
(204,494,l),
(203,513,l),
(208,534,l),
(213,544,l),
(210,561,l),
(211,589,l),
(231,606,l),
(260,606,l),
(267,605,l),
(283,608,l),
(303,611,l),
(325,604,l),
(332,604,l),
(352,610,l),
(357,601,l),
(382,601,l),
(399,606,l),
(414,601,l),
(430,604,l),
(436,603,l),
(461,596,l),
(474,596,l),
(496,596,l),
(510,613,l),
(510,618,l),
(520,641,l),
(526,657,l),
(509,667,l),
(479,662,l),
(460,671,l),
(448,671,l),
(439,662,l),
(425,666,l),
(398,662,l),
(397,662,l),
(374,666,l),
(360,666,l),
(342,668,l),
(329,671,l),
(313,665,l),
(305,671,l),
(281,668,l),
(269,670,l),
(252,666,l),
(235,662,l),
(230,662,l),
(204,668,l),
(188,667,l),
(170,663,l),
(155,662,l),
(138,654,l),
(138,624,l),
(136,609,l),
(128,589,l),
(136,584,l),
(127,564,l),
(128,553,l),
(121,533,l),
(123,519,l),
(126,509,l),
(117,487,l),
(129,477,l),
(119,457,l),
(119,444,l),
(116,435,l),
(106,412,l),
(107,398,l),
(116,382,l),
(100,368,l),
(110,356,l),
(99,342,l),
(95,326,l),
(96,307,l),
(93,297,l),
(99,284,l),
(84,264,l),
(82,251,l),
(85,233,l),
(90,221,l),
(75,209,l),
(71,196,l),
(67,175,l),
(68,166,l),
(66,146,l),
(66,136,l),
(60,118,l),
(51,99,l),
(50,85,l),
(44,72,l),
(53,55,l),
(39,42,l),
(34,14,l),
(46,2,l),
(56,-4,l)
);
}
);
width = 522;
}
);
metricLeft = "=|H";
metricRight = "=O";
note = E;
unicode = 69;
userData = {
KernOnName = E;
};
}
{
glyphname = G;
kernLeft = KO_O;
kernRight = KO_G;
layers = (
{
anchors = (
{
name = bottom;
pos = (232,0);
},
{
name = top;
pos = (331,625);
}
);
hints = (
{
horizontal = 1;
place = (-10,85);
type = Stem;
},
{
horizontal = 1;
place = (597,80);
type = Stem;
},
{
place = (-18,110);
type = Stem;
},
{
horizontal = 1;
place = (-10,85);
type = Stem;
},
{
horizontal = 1;
place = (597,80);
type = Stem;
},
{
place = (-18,110);
type = Stem;
}
);
layerId = m005;
shapes = (
{
closed = 1;
nodes = (
(256,-6,l),
(269,-10,l),
(302,-3,l),
(319,1,l),
(327,7,l),
(348,8,l),
(366,14,l),
(384,15,l),
(398,31,l),
(410,37,l),
(448,47,l),
(449,54,l),
(463,70,l),
(470,83,l),
(469,109,l),
(475,131,l),
(481,138,l),
(482,153,l),
(471,168,l),
(482,190,l),
(476,198,l),
(485,211,l),
(480,228,l),
(493,242,l),
(487,260,l),
(491,271,l),
(500,287,l),
(518,316,l),
(516,342,l),
(516,359,l),
(503,368,l),
(494,379,l),
(480,375,l),
(457,379,l),
(433,377,l),
(424,384,l),
(401,376,l),
(390,383,l),
(378,380,l),
(356,382,l),
(340,379,l),
(321,378,l),
(296,369,l),
(285,363,l),
(274,352,l),
(269,325,l),
(284,312,l),
(288,303,l),
(303,295,l),
(333,291,l),
(343,297,l),
(361,299,l),
(378,297,l),
(391,296,l),
(410,295,l),
(408,276,l),
(399,255,l),
(405,240,l),
(400,226,l),
(395,208,l),
(399,196,l),
(403,178,l),
(393,156,l),
(396,144,l),
(390,132,l),
(386,121,l),
(365,113,l),
(346,99,l),
(328,95,l),
(314,89,l),
(283,81,l),
(257,78,l),
(232,84,l),
(212,78,l),
(197,88,l),
(190,90,l),
(176,102,l),
(163,113,l),
(157,121,l),
(146,134,l),
(148,143,l),
(145,160,l),
(140,170,l),
(136,189,l),
(127,208,l),
(135,215,l),
(129,232,l),
(136,251,l),
(138,265,l),
(141,279,l),
(135,316,l),
(146,332,l),
(144,361,l),
(156,374,l),
(159,389,l),
(166,405,l),
(157,422,l),
(169,436,l),
(172,456,l),
(173,466,l),
(184,486,l),
(187,496,l),
(198,507,l),
(203,525,l),
(215,533,l),
(230,549,l),
(239,559,l),
(250,573,l),
(271,576,l),
(289,591,l),
(297,588,l),
(313,600,l),
(331,595,l),
(348,590,l),
(361,586,l),
(371,587,l),
(386,574,l),
(406,570,l),
(411,560,l),
(427,570,l),
(452,569,l),
(466,579,l),
(466,598,l),
(475,613,l),
(468,619,l),
(474,636,l),
(444,653,l),
(442,657,l),
(430,660,l),
(407,666,l),
(391,674,l),
(386,678,l),
(366,678,l),
(353,679,l),
(318,674,l),
(312,675,l),
(289,671,l),
(282,664,l),
(258,661,l),
(239,653,l),
(229,649,l),
(214,645,l),
(199,635,l),
(186,610,l),
(171,604,l),
(151,593,l),
(144,575,l),
(131,571,l),
(128,550,l),
(121,541,l),
(115,529,l),
(100,514,l),
(99,497,l),
(83,478,l),
(67,451,l),
(74,441,l),
(57,425,l),
(66,405,l),
(55,393,l),
(57,373,l),
(51,363,l),
(44,333,l),
(34,310,l),
(26,259,l),
(37,248,l),
(33,236,l),
(35,223,l),
(40,207,l),
(30,189,l),
(36,178,l),
(38,159,l),
(38,146,l),
(43,130,l),
(50,119,l),
(58,103,l),
(53,94,l),
(62,74,l),
(76,66,l),
(85,49,l),
(95,35,l),
(107,31,l),
(121,19,l),
(138,15,l),
(149,4,l),
(173,-5,l),
(185,-4,l),
(197,-9,l),
(207,-10,l)
);
}
);
width = 536;
},
{
anchors = (
{
name = bottom;
pos = (227,0);
},
{
name = top;
pos = (333,667);
}
);
hints = (
{
horizontal = 1;
place = (-10,85);
type = Stem;
},
{
horizontal = 1;
place = (597,80);
type = Stem;
},
{
place = (-18,110);
type = Stem;
}
);
layerId = m002;
shapes = (
{
closed = 1;
nodes = (
(236,-23,l),
(265,-25,l),
(291,-18,l),
(313,-21,l),
(329,-14,l),
(350,-12,l),
(373,-2,l),
(393,5,l),
(409,15,l),
(433,18,l),
(465,34,l),
(479,47,l),
(497,66,l),
(510,78,l),
(512,104,l),
(519,125,l),
(528,152,l),
(519,166,l),
(530,189,l),
(526,210,l),
(537,225,l),
(530,242,l),
(543,264,l),
(547,303,l),
(572,325,l),
(575,349,l),
(566,356,l),
(572,375,l),
(553,398,l),
(529,413,l),
(516,425,l),
(490,433,l),
(455,430,l),
(435,429,l),
(427,434,l),
(411,427,l),
(389,426,l),
(374,433,l),
(359,434,l),
(350,429,l),
(314,430,l),
(309,421,l),
(284,418,l),
(280,411,l),
(259,405,l),
(253,394,l),
(237,370,l),
(220,355,l),
(217,322,l),
(218,290,l),
(223,275,l),
(229,252,l),
(243,241,l),
(254,240,l),
(276,243,l),
(307,243,l),
(317,246,l),
(332,242,l),
(344,239,l),
(342,232,l),
(343,225,l),
(343,216,l),
(344,206,l),
(344,200,l),
(343,191,l),
(328,184,l),
(313,178,l),
(298,170,l),
(288,169,l),
(275,168,l),
(256,169,l),
(237,165,l),
(226,170,l),
(205,170,l),
(206,177,l),
(197,185,l),
(191,193,l),
(182,207,l),
(181,224,l),
(185,230,l),
(177,240,l),
(172,247,l),
(188,262,l),
(179,280,l),
(184,295,l),
(189,308,l),
(185,326,l),
(190,344,l),
(194,359,l),
(198,379,l),
(196,399,l),
(212,411,l),
(216,431,l),
(221,446,l),
(228,457,l),
(235,466,l),
(242,477,l),
(247,485,l),
(249,494,l),
(266,499,l),
(276,511,l),
(286,513,l),
(298,515,l),
(307,511,l),
(322,504,l),
(332,503,l),
(341,498,l),
(350,492,l),
(363,484,l),
(374,479,l),
(390,476,l),
(403,481,l),
(423,479,l),
(433,488,l),
(451,498,l),
(467,504,l),
(481,516,l),
(496,524,l),
(505,539,l),
(518,553,l),
(514,566,l),
(520,581,l),
(523,602,l),
(517,617,l),
(510,624,l),
(494,639,l),
(481,655,l),
(461,662,l),
(452,674,l),
(435,676,l),
(416,679,l),
(389,683,l),
(384,689,l),
(365,694,l),
(348,688,l),
(324,692,l),
(311,689,l),
(280,686,l),
(254,678,l),
(225,668,l),
(215,663,l),
(196,660,l),
(190,648,l),
(174,642,l),
(162,631,l),
(137,610,l),
(121,596,l),
(104,585,l),
(103,571,l),
(87,558,l),
(77,554,l),
(73,533,l),
(65,528,l),
(40,494,l),
(32,484,l),
(32,466,l),
(17,451,l),
(16,441,l),
(9,418,l),
(8,403,l),
(-2,376,l),
(3,365,l),
(-13,328,l),
(-19,316,l),
(-23,284,l),
(-19,253,l),
(-25,234,l),
(-16,222,l),
(-25,203,l),
(-24,190,l),
(-7,157,l),
(-11,148,l),
(-6,131,l),
(8,106,l),
(12,91,l),
(21,84,l),
(21,75,l),
(44,50,l),
(45,43,l),
(65,32,l),
(67,19,l),
(79,15,l),
(90,3,l),
(118,-6,l),
(143,-10,l),
(152,-19,l),
(183,-18,l),
(200,-27,l)
);
}
);
width = 559;
},
{
anchors = (
{
name = bottom;
pos = (226,0);
},
{
name = top;
pos = (325,625);
}
);
hints = (
{
horizontal = 1;
place = (-10,85);
type = Stem;
},
{
horizontal = 1;
place = (597,80);
type = Stem;
},
{
place = (-17,110);
type = Stem;
}
);
layerId = m003;
shapes = (
{
closed = 1;
nodes = (
(239,-12,l),
(250,-9,l),
(267,-4,l),
(289,1,l),
(298,0,l),
(315,5,l),
(339,8,l),
(350,13,l),
(365,21,l),
(397,28,l),
(408,40,l),
(429,46,l),
(443,65,l),
(445,78,l),
(457,100,l),
(452,118,l),
(457,139,l),
(463,155,l),
(468,171,l),
(464,184,l),
(470,197,l),
(459,214,l),
(475,230,l),
(472,242,l),
(471,264,l),
(478,273,l),
(478,287,l),
(502,314,l),
(502,352,l),
(491,365,l),
(450,370,l),
(426,374,l),
(416,368,l),
(404,366,l),
(385,367,l),
(371,374,l),
(356,368,l),
(340,370,l),
(310,366,l),
(298,361,l),
(288,352,l),
(276,320,l),
(279,312,l),
(289,297,l),
(319,301,l),
(366,309,l),
(379,309,l),
(407,303,l),
(403,271,l),
(404,260,l),
(410,238,l),
(404,227,l),
(408,211,l),
(401,195,l),
(399,179,l),
(399,163,l),
(392,142,l),
(389,133,l),
(385,120,l),
(377,108,l),
(363,96,l),
(341,82,l),
(317,85,l),
(303,80,l),
(294,74,l),
(285,69,l),
(260,61,l),
(244,66,l),
(218,67,l),
(201,63,l),
(196,67,l),
(178,77,l),
(173,81,l),
(155,84,l),
(141,95,l),
(136,106,l),
(137,123,l),
(134,137,l),
(128,145,l),
(125,159,l),
(115,177,l),
(110,195,l),
(122,208,l),
(111,223,l),
(111,235,l),
(113,250,l),
(110,262,l),
(127,283,l),
(122,309,l),
(132,330,l),
(135,358,l),
(139,374,l),
(140,387,l),
(146,408,l),
(142,426,l),
(154,436,l),
(161,449,l),
(165,479,l),
(173,499,l),
(181,510,l),
(185,518,l),
(193,539,l),
(213,552,l),
(217,556,l),
(226,576,l),
(243,582,l),
(255,587,l),
(261,597,l),
(275,610,l),
(296,615,l),
(305,609,l),
(324,613,l),
(340,616,l),
(354,607,l),
(361,600,l),
(371,596,l),
(385,591,l),
(399,584,l),
(422,585,l),
(441,585,l),
(446,594,l),
(462,611,l),
(466,625,l),
(460,631,l),
(438,651,l),
(421,660,l),
(407,667,l),
(391,664,l),
(383,668,l),
(355,667,l),
(344,672,l),
(296,673,l),
(282,664,l),
(279,662,l),
(259,661,l),
(250,659,l),
(232,649,l),
(209,638,l),
(208,633,l),
(186,622,l),
(171,614,l),
(159,600,l),
(151,592,l),
(146,573,l),
(137,560,l),
(123,552,l),
(110,536,l),
(105,526,l),
(104,513,l),
(98,490,l),
(85,483,l),
(89,468,l),
(74,454,l),
(69,437,l),
(63,419,l),
(68,404,l),
(56,396,l),
(58,380,l),
(51,366,l),
(45,325,l),
(49,315,l),
(40,282,l),
(32,260,l),
(35,253,l),
(42,239,l),
(41,221,l),
(42,208,l),
(30,190,l),
(36,179,l),
(35,159,l),
(33,147,l),
(51,138,l),
(47,118,l),
(49,106,l),
(53,89,l),
(68,83,l),
(76,69,l),
(78,56,l),
(86,51,l),
(98,43,l),
(99,34,l),
(122,25,l),
(140,11,l),
(157,3,l),
(174,1,l),
(186,-3,l),
(196,-7,l),
(207,-12,l)
);
}
);
width = 550;
}
);
metricLeft = "=O";
metricRight = "=O";
note = C;
unicode = 71;
userData = {
KernOnName = G;
};
}
{
glyphname = K;
kernLeft = KO_L;
kernRight = KO_K;
layers = (
{
anchors = (
{
name = bottom;
pos = (189,0);
},
{
name = top;
pos = (288,625);
}
);
hints = (
{
horizontal = 1;
place = (0,21);
target = up;
type = BottomGhost;
},
{
horizontal = 1;
place = (282,67);
type = Stem;
},
{
horizontal = 1;
place = (598,69);
type = Stem;
},
{
place = (17,100);
type = Stem;
},
{
place = (353,99);
type = Stem;
}
);
layerId = m005;
shapes = (
{
closed = 1;
nodes = (
(34,-1,l),
(58,2,l),
(60,16,l),
(76,26,l),
(94,30,l),
(86,60,l),
(96,77,l),
(102,91,l),
(104,111,l),
(106,118,l),
(101,131,l),
(107,150,l),
(103,162,l),
(103,183,l),
(111,190,l),
(109,207,l),
(112,225,l),
(128,243,l),
(142,259,l),
(153,271,l),
(155,279,l),
(170,289,l),
(182,310,l),
(210,293,l),
(211,285,l),
(219,279,l),
(231,263,l),
(249,253,l),
(260,247,l),
(258,229,l),
(273,219,l),
(272,210,l),
(287,195,l),
(283,184,l),
(299,165,l),
(292,160,l),
(302,139,l),
(304,125,l),
(300,109,l),
(311,103,l),
(314,88,l),
(311,74,l),
(317,58,l),
(310,27,l),
(325,13,l),
(343,0,l),
(377,-3,l),
(395,10,l),
(404,16,l),
(417,24,l),
(422,34,l),
(439,43,l),
(434,81,l),
(429,88,l),
(429,110,l),
(418,122,l),
(421,133,l),
(423,144,l),
(415,159,l),
(404,171,l),
(396,185,l),
(398,199,l),
(393,215,l),
(386,231,l),
(381,239,l),
(367,251,l),
(361,264,l),
(348,276,l),
(349,290,l),
(336,298,l),
(330,305,l),
(321,321,l),
(311,332,l),
(302,340,l),
(280,345,l),
(281,351,l),
(260,362,l),
(257,370,l),
(261,397,l),
(276,407,l),
(294,419,l),
(308,426,l),
(307,443,l),
(322,456,l),
(330,468,l),
(352,474,l),
(358,484,l),
(375,503,l),
(380,507,l),
(400,521,l),
(411,538,l),
(422,547,l),
(436,554,l),
(445,570,l),
(460,581,l),
(478,600,l),
(477,615,l),
(484,634,l),
(490,643,l),
(474,657,l),
(446,675,l),
(421,669,l),
(411,664,l),
(398,653,l),
(376,628,l),
(358,611,l),
(350,600,l),
(338,589,l),
(337,578,l),
(314,564,l),
(315,556,l),
(303,541,l),
(286,535,l),
(271,517,l),
(269,513,l),
(264,498,l),
(250,486,l),
(238,473,l),
(217,463,l),
(212,452,l),
(210,441,l),
(188,421,l),
(178,413,l),
(164,397,l),
(158,387,l),
(134,375,l),
(146,401,l),
(141,409,l),
(144,423,l),
(139,437,l),
(142,456,l),
(148,474,l),
(154,489,l),
(161,530,l),
(160,547,l),
(168,562,l),
(164,576,l),
(175,588,l),
(170,599,l),
(166,630,l),
(169,650,l),
(150,654,l),
(143,663,l),
(116,662,l),
(101,658,l),
(92,652,l),
(72,646,l),
(62,630,l),
(56,598,l),
(54,584,l),
(52,573,l),
(52,558,l),
(49,545,l),
(46,529,l),
(52,509,l),
(47,495,l),
(47,482,l),
(40,472,l),
(44,453,l),
(48,441,l),
(45,424,l),
(30,405,l),
(36,394,l),
(30,373,l),
(28,364,l),
(27,352,l),
(24,330,l),
(20,320,l),
(18,305,l),
(19,285,l),
(8,272,l),
(7,254,l),
(11,247,l),
(8,232,l),
(-2,215,l),
(-5,199,l),
(0,179,l),
(-3,164,l),
(-8,154,l),
(-17,139,l),
(-11,123,l),
(-18,112,l),
(-23,98,l),
(-27,81,l),
(-25,60,l),
(-34,38,l),
(-25,24,l),
(-13,12,l),
(-2,3,l),
(15,6,l)
);
}
);
width = 472;
},
{
anchors = (
{
name = bottom;
pos = (268,0);
},
{
name = top;
pos = (367,625);
}
);
hints = (
{
horizontal = 1;
place = (0,21);
target = up;
type = BottomGhost;
},
{
horizontal = 1;
place = (282,67);
type = Stem;
},
{
horizontal = 1;
place = (598,69);
type = Stem;
},
{
place = (17,100);
type = Stem;
},
{
place = (353,99);
type = Stem;
}
);
layerId = m002;
shapes = (
{
closed = 1;
nodes = (
(128,-18,l),
(154,-16,l),
(166,-12,l),
(174,-6,l),
(184,4,l),
(197,20,l),
(216,33,l),
(223,45,l),
(232,65,l),
(225,88,l),
(228,102,l),
(234,120,l),
(229,132,l),
(231,149,l),
(243,166,l),
(236,176,l),
(236,205,l),
(247,219,l),
(253,229,l),
(273,239,l),
(283,232,l),
(300,220,l),
(304,205,l),
(312,192,l),
(331,184,l),
(327,172,l),
(341,152,l),
(343,140,l),
(350,132,l),
(347,116,l),
(344,101,l),
(348,88,l),
(353,67,l),
(356,40,l),
(359,31,l),
(357,11,l),
(372,4,l),
(368,-9,l),
(385,-11,l),
(405,-19,l),
(413,-22,l),
(428,-23,l),
(462,-25,l),
(469,-25,l),
(483,-22,l),
(501,-8,l),
(508,0,l),
(519,5,l),
(538,16,l),
(546,28,l),
(564,42,l),
(561,56,l),
(572,73,l),
(575,82,l),
(569,114,l),
(562,128,l),
(559,141,l),
(557,154,l),
(563,171,l),
(548,185,l),
(559,206,l),
(548,213,l),
(549,231,l),
(531,247,l),
(523,254,l),
(529,271,l),
(513,277,l),
(513,289,l),
(502,301,l),
(493,318,l),
(479,324,l),
(473,331,l),
(463,345,l),
(458,350,l),
(447,360,l),
(438,369,l),
(427,376,l),
(418,382,l),
(410,387,l),
(421,402,l),
(426,411,l),
(436,425,l),
(462,435,l),
(462,437,l),
(472,451,l),
(485,457,l),
(498,468,l),
(515,476,l),
(532,490,l),
(547,502,l),
(554,510,l),
(570,527,l),
(587,549,l),
(589,560,l),
(600,573,l),
(612,593,l),
(612,601,l),
(606,619,l),
(612,631,l),
(604,650,l),
(599,662,l),
(591,670,l),
(567,685,l),
(559,693,l),
(543,693,l),
(523,693,l),
(517,696,l),
(499,687,l),
(487,686,l),
(462,681,l),
(449,664,l),
(440,660,l),
(423,632,l),
(402,618,l),
(400,610,l),
(376,594,l),
(374,576,l),
(353,564,l),
(345,557,l),
(332,548,l),
(323,534,l),
(307,522,l),
(296,516,l),
(296,537,l),
(288,548,l),
(292,567,l),
(306,574,l),
(310,611,l),
(295,628,l),
(294,635,l),
(286,653,l),
(290,659,l),
(278,676,l),
(255,684,l),
(255,687,l),
(235,689,l),
(201,689,l),
(190,685,l),
(166,680,l),
(153,681,l),
(144,664,l),
(128,663,l),
(120,644,l),
(114,637,l),
(105,617,l),
(92,605,l),
(92,571,l),
(83,559,l),
(92,544,l),
(78,529,l),
(76,518,l),
(85,499,l),
(84,485,l),
(78,471,l),
(73,454,l),
(66,435,l),
(69,422,l),
(63,412,l),
(68,389,l),
(69,383,l),
(63,366,l),
(64,344,l),
(50,338,l),
(53,322,l),
(52,307,l),
(56,290,l),
(49,271,l),
(50,255,l),
(37,240,l),
(46,230,l),
(32,213,l),
(29,198,l),
(27,179,l),
(22,169,l),
(29,151,l),
(20,137,l),
(25,119,l),
(10,105,l),
(10,88,l),
(13,63,l),
(15,50,l),
(16,30,l),
(16,16,l),
(32,6,l),
(31,0,l),
(43,-12,l),
(65,-12,l),
(71,-22,l),
(91,-21,l),
(115,-26,l)
);
}
);
width = 610;
},
{
anchors = (
{
name = bottom;
pos = (261,0);
},
{
name = top;
pos = (360,625);
}
);
hints = (
{
horizontal = 1;
place = (0,21);
target = up;
type = BottomGhost;
},
{
horizontal = 1;
place = (282,67);
type = Stem;
},
{
horizontal = 1;
place = (598,69);
type = Stem;
},
{
place = (17,100);
type = Stem;
},
{
place = (353,99);
type = Stem;
}
);
layerId = m003;
shapes = (
{
closed = 1;
nodes = (
(96,2,l),
(107,4,l),
(131,11,l),
(139,28,l),
(138,49,l),
(139,64,l),
(143,79,l),
(157,103,l),
(148,112,l),
(160,134,l),
(148,142,l),
(166,163,l),
(166,172,l),
(169,193,l),
(158,207,l),
(166,236,l),
(192,251,l),
(198,265,l),
(206,277,l),
(214,290,l),
(237,300,l),
(254,322,l),
(274,307,l),
(282,296,l),
(298,283,l),
(303,267,l),
(314,256,l),
(324,250,l),
(336,231,l),
(339,228,l),
(347,212,l),
(349,197,l),
(354,186,l),
(365,175,l),
(374,163,l),
(367,144,l),
(367,129,l),
(377,117,l),
(381,104,l),
(384,91,l),
(389,79,l),
(387,56,l),
(378,46,l),
(384,22,l),
(399,4,l),
(412,1,l),
(447,-2,l),
(464,4,l),
(468,18,l),
(484,37,l),
(484,60,l),
(475,77,l),
(483,89,l),
(481,110,l),
(466,125,l),
(466,131,l),
(462,150,l),
(463,167,l),
(456,180,l),
(452,191,l),
(441,204,l),
(427,210,l),
(423,222,l),
(421,242,l),
(407,250,l),
(410,260,l),
(387,269,l),
(386,287,l),
(374,298,l),
(373,300,l),
(358,316,l),
(354,325,l),
(345,334,l),
(327,344,l),
(313,352,l),
(309,364,l),
(306,378,l),
(314,393,l),
(325,406,l),
(330,412,l),
(344,431,l),
(359,444,l),
(366,452,l),
(383,464,l),
(391,481,l),
(408,485,l),
(420,504,l),
(430,517,l),
(434,522,l),
(444,539,l),
(468,544,l),
(470,558,l),
(483,568,l),
(492,580,l),
(507,599,l),
(538,617,l),
(534,629,l),
(533,647,l),
(538,654,l),
(506,670,l),
(494,674,l),
(482,668,l),
(466,654,l),
(453,635,l),
(432,619,l),
(419,608,l),
(409,594,l),
(403,586,l),
(392,567,l),
(377,561,l),
(374,547,l),
(363,535,l),
(356,521,l),
(341,514,l),
(328,497,l),
(317,491,l),
(312,477,l),
(297,465,l),
(294,450,l),
(274,441,l),
(273,425,l),
(257,416,l),
(244,401,l),
(239,392,l),
(226,378,l),
(211,368,l),
(184,355,l),
(193,385,l),
(193,397,l),
(191,419,l),
(192,429,l),
(199,440,l),
(195,461,l),
(208,472,l),
(200,489,l),
(215,501,l),
(216,518,l),
(207,538,l),
(222,556,l),
(212,564,l),
(214,579,l),
(219,593,l),
(232,616,l),
(235,646,l),
(222,656,l),
(207,663,l),
(180,666,l),
(165,657,l),
(156,649,l),
(134,640,l),
(132,612,l),
(139,596,l),
(138,578,l),
(128,569,l),
(130,549,l),
(129,536,l),
(132,525,l),
(124,511,l),
(125,491,l),
(122,472,l),
(119,462,l),
(107,442,l),
(107,435,l),
(114,418,l),
(106,403,l),
(100,371,l),
(103,353,l),
(92,345,l),
(95,328,l),
(92,306,l),
(90,298,l),
(95,281,l),
(88,264,l),
(81,250,l),
(79,231,l),
(78,216,l),
(70,205,l),
(72,189,l),
(69,171,l),
(67,156,l),
(70,146,l),
(68,132,l),
(57,112,l),
(61,94,l),
(52,80,l),
(52,66,l),
(39,49,l),
(40,29,l),
(51,9,l),
(58,4,l)
);
}
);
width = 536;
}
);
metricLeft = "=|H";
metricRight = "=H/4";
note = P;
unicode = 75;
}
{
glyphname = L;
kernLeft = KO_L;
kernRight = KO_L;
layers = (
{
anchors = (
{
name = bottom;
pos = (118,0);
},
{
name = center;
pos = (171,334);
},
{
name = top;
pos = (224,667);
},
{
name = topright;
pos = (408,667);
}
);
hints = (
{
horizontal = 1;
place = (0,75);
type = Stem;
},
{
horizontal = 1;
place = (305,74);
type = Stem;
},
{
horizontal = 1;
place = (592,75);
type = Stem;
},
{
place = (17,100);
type = Stem;
}
);
layerId = m005;
shapes = (
{
closed = 1;
nodes = (
(75,101,l),
(83,120,l),
(88,139,l),
(93,150,l),
(83,166,l),
(87,180,l),
(90,198,l),
(97,206,l),
(98,229,l),
(102,244,l),
(101,254,l),
(102,275,l),
(111,289,l),
(108,297,l),
(112,313,l),
(119,329,l),
(112,349,l),
(124,364,l),
(119,378,l),
(123,393,l),
(126,409,l),
(134,419,l),
(141,438,l),
(133,454,l),
(142,465,l),
(141,484,l),
(140,497,l),
(143,509,l),
(144,523,l),
(148,543,l),
(155,560,l),
(155,568,l),
(157,583,l),
(169,602,l),
(171,632,l),
(168,645,l),
(163,658,l),
(147,669,l),
(111,662,l),
(100,664,l),
(86,656,l),
(65,641,l),
(63,630,l),
(60,606,l),
(60,583,l),
(56,569,l),
(59,556,l),
(58,545,l),
(50,528,l),
(51,510,l),
(43,499,l),
(41,483,l),
(41,463,l),
(33,452,l),
(37,439,l),
(36,423,l),
(34,412,l),
(29,394,l),
(27,376,l),
(25,359,l),
(17,344,l),
(24,335,l),
(15,323,l),
(23,299,l),
(14,290,l),
(15,276,l),
(16,262,l),
(14,244,l),
(3,233,l),
(-1,212,l),
(-2,196,l),
(0,181,l),
(-2,164,l),
(-3,157,l),
(-14,141,l),
(-11,121,l),
(-22,111,l),
(-25,94,l),
(-19,77,l),
(-27,64,l),
(-30,31,l),
(-28,19,l),
(-17,14,l),
(-10,4,l),
(13,4,l),
(41,-4,l),
(44,0,l),
(60,1,l),
(83,-5,l),
(92,3,l),
(108,2,l),
(127,4,l),
(144,-4,l),
(158,-1,l),
(173,4,l),
(179,-4,l),
(195,-4,l),
(214,4,l),
(224,-4,l),
(248,-5,l),
(253,-3,l),
(296,6,l),
(302,8,l),
(314,15,l),
(333,31,l),
(339,56,l),
(336,75,l),
(334,85,l),
(315,93,l),
(300,94,l),
(271,101,l),
(261,95,l),
(247,97,l),
(224,87,l),
(213,85,l),
(194,87,l),
(183,88,l),
(165,82,l),
(153,78,l),
(136,79,l),
(114,78,l),
(95,83,l),
(77,87,l)
);
}
);
width = 375;
},
{
anchors = (
{
name = bottom;
pos = (201,0);
},
{
name = center;
pos = (254,334);
},
{
name = top;
pos = (307,667);
},
{
name = topright;
pos = (514,667);
}
);
hints = (
{
horizontal = 1;
place = (0,75);
type = Stem;
},
{
horizontal = 1;
place = (305,74);
type = Stem;
},
{
horizontal = 1;
place = (592,75);
type = Stem;
},
{
place = (17,100);
type = Stem;
}
);
layerId = m002;
shapes = (
{
closed = 1;
nodes = (
(245,190,l),
(231,204,l),
(239,222,l),
(232,245,l),
(237,269,l),
(237,276,l),
(248,295,l),
(253,306,l),
(250,324,l),
(248,337,l),
(250,352,l),
(259,367,l),
(264,378,l),
(265,400,l),
(267,427,l),
(278,441,l),
(273,454,l),
(278,475,l),
(272,482,l),
(280,496,l),
(293,516,l),
(287,530,l),
(297,543,l),
(299,561,l),
(305,577,l),
(309,607,l),
(298,616,l),
(307,633,l),
(305,647,l),
(287,653,l),
(278,666,l),
(272,677,l),
(260,679,l),
(251,688,l),
(230,693,l),
(205,686,l),
(182,686,l),
(163,681,l),
(136,671,l),
(121,651,l),
(98,624,l),
(94,608,l),
(93,577,l),
(84,562,l),
(91,542,l),
(86,525,l),
(78,513,l),
(77,498,l),
(80,481,l),
(82,467,l),
(79,441,l),
(79,428,l),
(71,406,l),
(63,390,l),
(60,377,l),
(71,368,l),
(55,346,l),
(54,336,l),
(52,315,l),
(61,307,l),
(52,290,l),
(46,271,l),
(51,255,l),
(43,239,l),
(33,228,l),
(35,215,l),
(37,187,l),
(35,170,l),
(31,154,l),
(15,137,l),
(15,107,l),
(19,92,l),
(13,60,l),
(2,45,l),
(11,31,l),
(24,8,l),
(34,-6,l),
(52,-7,l),
(63,-15,l),
(75,-27,l),
(84,-26,l),
(122,-26,l),
(131,-21,l),
(157,-23,l),
(198,-24,l),
(201,-19,l),
(228,-24,l),
(233,-21,l),
(253,-14,l),
(261,-21,l),
(278,-15,l),
(289,-21,l),
(317,-12,l),
(329,-10,l),
(348,-14,l),
(375,-11,l),
(392,-4,l),
(396,1,l),
(412,0,l),
(436,18,l),
(446,24,l),
(451,40,l),
(462,50,l),
(467,62,l),
(478,74,l),
(491,109,l),
(478,122,l),
(472,134,l),
(478,152,l),
(468,164,l),
(459,175,l),
(448,179,l),
(444,185,l),
(430,192,l),
(414,197,l),
(393,203,l),
(365,202,l),
(358,195,l),
(336,198,l),
(321,192,l),
(303,193,l),
(284,190,l),
(246,184,l)
);
}
);
width = 526;
},
{
anchors = (
{
name = bottom;
pos = (181,0);
},
{
name = center;
pos = (234,334);
},
{
name = top;
pos = (287,667);
},
{
name = topright;
pos = (474,667);
}
);
hints = (
{
horizontal = 1;
place = (0,75);
type = Stem;
},
{
horizontal = 1;
place = (305,74);
type = Stem;
},
{
horizontal = 1;
place = (592,75);
type = Stem;
},
{
place = (17,100);
type = Stem;
}
);
layerId = m003;
shapes = (
{
closed = 1;
nodes = (
(124,78,l),
(133,96,l),
(130,110,l),
(144,129,l),
(140,144,l),
(143,157,l),
(139,173,l),
(147,186,l),
(156,197,l),
(149,215,l),
(154,235,l),
(153,246,l),
(167,265,l),
(162,279,l),
(160,290,l),
(168,306,l),
(168,320,l),
(171,341,l),
(172,352,l),
(170,362,l),
(180,377,l),
(175,393,l),
(187,412,l),
(180,425,l),
(186,443,l),
(199,456,l),
(189,467,l),
(199,486,l),
(204,499,l),
(205,511,l),
(200,526,l),
(203,544,l),
(210,563,l),
(218,574,l),
(213,588,l),
(225,608,l),
(228,619,l),
(225,651,l),
(220,666,l),
(207,676,l),
(178,675,l),
(158,671,l),
(155,662,l),
(142,647,l),
(139,623,l),
(137,608,l),
(139,587,l),
(126,575,l),
(133,562,l),
(129,543,l),
(125,531,l),
(124,518,l),
(123,497,l),
(126,491,l),
(117,468,l),
(113,461,l),
(117,440,l),
(116,424,l),
(107,409,l),
(102,392,l),
(112,378,l),
(105,371,l),
(100,347,l),
(104,334,l),
(102,319,l),
(93,302,l),
(89,296,l),
(95,279,l),
(80,257,l),
(85,251,l),
(77,233,l),
(75,217,l),
(75,203,l),
(67,183,l),
(76,173,l),
(61,161,l),
(65,138,l),
(55,125,l),
(64,114,l),
(50,94,l),
(52,82,l),
(50,63,l),
(39,49,l),
(50,25,l),
(43,15,l),
(61,6,l),
(68,3,l),
(99,-3,l),
(121,-5,l),
(135,1,l),
(139,-4,l),
(167,-5,l),
(175,2,l),
(193,4,l),
(200,-5,l),
(227,0,l),
(238,-4,l),
(251,-2,l),
(258,3,l),
(284,3,l),
(290,4,l),
(324,4,l),
(350,-1,l),
(380,11,l),
(386,15,l),
(387,52,l),
(385,57,l),
(384,73,l),
(364,74,l),
(329,74,l),
(326,80,l),
(312,75,l),
(289,72,l),
(281,72,l),
(253,66,l),
(241,67,l),
(231,65,l),
(212,63,l),
(198,66,l),
(174,65,l),
(171,64,l),
(145,64,l),
(123,64,l)
);
}
);
width = 441;
}
);
metricLeft = "=|H";
note = E;
unicode = 76;
userData = {
KernOnName = L;
};
}
{
glyphname = R;
kernLeft = KO_N;
kernRight = KO_R;
layers = (
{
anchors = (
{
name = bottom;
pos = (194,0);
},
{
name = top;
pos = (293,625);
}
);
hints = (
{
horizontal = 1;
place = (0,21);
target = up;
type = BottomGhost;
},
{
horizontal = 1;
place = (282,67);
type = Stem;
},
{
horizontal = 1;
place = (598,69);
type = Stem;
},
{
place = (16,100);
type = Stem;
},
{
place = (352,99);
type = Stem;
}
);
layerId = m005;
shapes = (
{
closed = 1;
nodes = (
(94,30,l),
(86,67,l),
(86,75,l),
(93,93,l),
(99,113,l),
(98,123,l),
(95,141,l),
(103,148,l),
(103,163,l),
(102,183,l),
(105,201,l),
(101,217,l),
(113,226,l),
(115,242,l),
(108,260,l),
(118,269,l),
(123,293,l),
(138,291,l),
(165,292,l),
(169,288,l),
(193,286,l),
(205,293,l),
(215,288,l),
(226,277,l),
(234,264,l),
(243,252,l),
(248,240,l),
(268,228,l),
(263,215,l),
(269,203,l),
(277,191,l),
(279,184,l),
(294,168,l),
(289,148,l),
(296,141,l),
(296,126,l),
(303,115,l),
(301,100,l),
(314,86,l),
(315,64,l),
(305,55,l),
(312,23,l),
(327,18,l),
(338,8,l),
(352,1,l),
(376,0,l),
(391,10,l),
(410,15,l),
(409,22,l),
(425,40,l),
(432,46,l),
(434,81,l),
(425,90,l),
(422,107,l),
(421,124,l),
(420,134,l),
(418,154,l),
(416,163,l),
(407,175,l),
(400,187,l),
(391,204,l),
(386,217,l),
(379,230,l),
(380,236,l),
(360,248,l),
(360,258,l),
(354,271,l),
(346,278,l),
(332,287,l),
(325,297,l),
(335,314,l),
(350,315,l),
(372,327,l),
(382,335,l),
(402,337,l),
(407,346,l),
(417,359,l),
(428,370,l),
(437,380,l),
(455,396,l),
(466,411,l),
(467,425,l),
(481,440,l),
(480,458,l),
(478,468,l),
(484,502,l),
(489,513,l),
(486,529,l),
(484,544,l),
(481,554,l),
(486,572,l),
(480,589,l),
(472,596,l),
(460,611,l),
(446,623,l),
(436,627,l),
(427,644,l),
(425,646,l),
(405,657,l),
(384,666,l),
(370,673,l),
(347,670,l),
(338,676,l),
(318,674,l),
(312,685,l),
(291,678,l),
(255,678,l),
(247,676,l),
(226,679,l),
(215,677,l),
(195,683,l),
(185,676,l),
(172,679,l),
(155,675,l),
(146,670,l),
(114,661,l),
(100,655,l),
(81,653,l),
(72,644,l),
(71,631,l),
(58,605,l),
(53,587,l),
(57,569,l),
(61,559,l),
(52,541,l),
(52,525,l),
(56,511,l),
(54,501,l),
(42,480,l),
(46,464,l),
(41,448,l),
(32,433,l),
(41,420,l),
(34,404,l),
(31,395,l),
(25,378,l),
(30,361,l),
(20,347,l),
(24,334,l),
(20,317,l),
(25,301,l),
(22,288,l),
(15,276,l),
(17,257,l),
(11,248,l),
(5,233,l),
(7,212,l),
(2,197,l),
(-8,187,l),
(-3,172,l),
(-3,152,l),
(-9,137,l),
(-15,124,l),
(-16,109,l),
(-24,90,l),
(-26,77,l),
(-27,68,l),
(-23,34,l),
(-18,19,l),
(-14,17,l),
(1,5,l),
(9,0,l),
(38,-1,l),
(53,5,l),
(62,8,l),
(80,26,l)
);
},
{
closed = 1;
nodes = (
(209,374,l),
(199,372,l),
(179,372,l),
(170,375,l),
(159,370,l),
(136,382,l),
(144,406,l),
(134,412,l),
(147,429,l),
(139,448,l),
(154,459,l),
(148,472,l),
(146,493,l),
(147,500,l),
(150,516,l),
(153,531,l),
(155,550,l),
(157,558,l),
(155,583,l),
(185,588,l),
(206,588,l),
(211,591,l),
(231,593,l),
(246,595,l),
(268,593,l),
(290,591,l),
(313,589,l),
(321,592,l),
(330,589,l),
(355,581,l),
(358,574,l),
(370,562,l),
(372,547,l),
(382,541,l),
(393,527,l),
(385,508,l),
(380,495,l),
(386,472,l),
(384,451,l),
(366,439,l),
(361,426,l),
(348,412,l),
(337,401,l),
(326,397,l),
(318,385,l),
(301,382,l),
(286,379,l),
(276,376,l),
(254,373,l),
(235,369,l)
);
}
);
width = 464;
},
{
anchors = (
{
name = bottom;
pos = (274,0);
},
{
name = top;
pos = (373,625);
}
);
hints = (
{
horizontal = 1;
place = (0,21);
target = up;
type = BottomGhost;
},
{
horizontal = 1;
place = (282,67);
type = Stem;
},
{
horizontal = 1;
place = (598,69);
type = Stem;
},
{
place = (17,100);
type = Stem;
},
{
place = (353,99);
type = Stem;
}
);
layerId = m002;
shapes = (
{
closed = 1;
nodes = (
(122,-23,l),
(135,-26,l),
(159,-15,l),
(169,-9,l),
(176,2,l),
(194,11,l),
(214,25,l),
(216,32,l),
(223,44,l),
(231,65,l),
(235,96,l),
(232,112,l),
(238,126,l),
(230,139,l),
(233,150,l),
(247,173,l),
(241,186,l),
(250,201,l),
(250,226,l),
(257,242,l),
(277,235,l),
(292,224,l),
(303,215,l),
(311,200,l),
(321,194,l),
(319,173,l),
(326,162,l),
(333,157,l),
(333,139,l),
(344,130,l),
(346,116,l),
(344,99,l),
(355,79,l),
(349,67,l),
(357,37,l),
(353,22,l),
(365,14,l),
(381,5,l),
(386,-7,l),
(397,-16,l),
(419,-20,l),
(426,-25,l),
(459,-25,l),
(482,-19,l),
(487,-21,l),
(506,-7,l),
(512,2,l),
(534,12,l),
(548,15,l),
(559,33,l),
(559,44,l),
(564,55,l),
(567,76,l),
(577,90,l),
(573,116,l),
(567,126,l),
(562,141,l),
(559,155,l),
(566,171,l),
(554,190,l),
(555,204,l),
(549,212,l),
(544,225,l),
(539,241,l),
(535,245,l),
(518,261,l),
(504,287,l),
(513,303,l),
(529,323,l),
(544,327,l),
(552,343,l),
(575,356,l),
(581,361,l),
(583,381,l),
(596,396,l),
(597,411,l),
(603,421,l),
(609,437,l),
(616,453,l),
(625,476,l),
(618,494,l),
(622,511,l),
(626,525,l),
(617,533,l),
(620,554,l),
(610,570,l),
(601,579,l),
(596,592,l),
(588,603,l),
(571,610,l),
(564,622,l),
(560,633,l),
(545,644,l),
(537,649,l),
(523,653,l),
(504,659,l),
(502,668,l),
(478,672,l),
(469,679,l),
(453,684,l),
(447,688,l),
(431,685,l),
(415,692,l),
(401,691,l),
(383,693,l),
(352,689,l),
(336,689,l),
(321,687,l),
(304,688,l),
(293,685,l),
(269,686,l),
(258,685,l),
(243,678,l),
(228,679,l),
(211,678,l),
(185,669,l),
(165,661,l),
(158,658,l),
(141,652,l),
(138,642,l),
(114,635,l),
(111,615,l),
(107,610,l),
(90,591,l),
(82,557,l),
(93,542,l),
(89,526,l),
(86,516,l),
(86,495,l),
(75,488,l),
(73,466,l),
(84,452,l),
(75,434,l),
(73,422,l),
(66,412,l),
(71,398,l),
(69,383,l),
(65,362,l),
(56,351,l),
(56,334,l),
(59,322,l),
(57,304,l),
(52,292,l),
(55,270,l),
(44,257,l),
(45,244,l),
(38,229,l),
(33,210,l),
(40,193,l),
(32,182,l),
(38,169,l),
(30,156,l),
(21,140,l),
(26,117,l),
(22,103,l),
(11,92,l),
(4,63,l),
(11,43,l),
(9,33,l),
(23,22,l),
(23,12,l),
(43,2,l),
(43,-8,l),
(67,-18,l),
(73,-25,l),
(90,-28,l)
);
},
{
closed = 1;
nodes = (
(300,423,l),
(292,429,l),
(288,432,l),
(285,440,l),
(283,446,l),
(282,451,l),
(279,459,l),
(283,469,l),
(285,476,l),
(288,487,l),
(293,491,l),
(299,497,l),
(305,503,l),
(310,505,l),
(319,508,l),
(325,506,l),
(330,505,l),
(337,504,l),
(345,502,l),
(357,503,l),
(367,503,l),
(373,503,l),
(381,503,l),
(385,504,l),
(395,505,l),
(403,500,l),
(409,496,l),
(413,492,l),
(415,486,l),
(417,482,l),
(419,474,l),
(418,468,l),
(417,462,l),
(414,452,l),
(410,445,l),
(407,440,l),
(405,436,l),
(400,431,l),
(395,427,l),
(388,428,l),
(382,428,l),
(373,428,l),
(371,420,l),
(363,420,l),
(352,419,l),
(346,419,l),
(339,422,l),
(328,421,l),
(318,420,l),
(307,419,l)
);
}
);
width = 619;
},
{
anchors = (
{
name = bottom;
pos = (265,0);
},
{
name = top;
pos = (364,625);
}
);
hints = (
{
horizontal = 1;
place = (0,21);
target = up;
type = BottomGhost;
},
{
horizontal = 1;
place = (282,67);
type = Stem;
},
{
horizontal = 1;
place = (598,69);
type = Stem;
},
{
place = (16,100);
type = Stem;
},
{
place = (352,99);
type = Stem;
}
);
layerId = m003;
shapes = (
{
closed = 1;
nodes = (
(92,-2,l),
(113,9,l),
(120,8,l),
(135,19,l),
(135,57,l),
(145,63,l),
(140,79,l),
(141,95,l),
(146,114,l),
(145,123,l),
(149,140,l),
(151,156,l),
(156,168,l),
(160,181,l),
(152,202,l),
(158,211,l),
(159,224,l),
(167,243,l),
(166,259,l),
(171,272,l),
(174,286,l),
(174,305,l),
(204,311,l),
(215,300,l),
(231,301,l),
(253,302,l),
(267,298,l),
(288,303,l),
(300,288,l),
(302,277,l),
(308,268,l),
(319,254,l),
(322,237,l),
(329,226,l),
(336,217,l),
(348,200,l),
(353,188,l),
(355,173,l),
(363,160,l),
(368,145,l),
(363,129,l),
(374,122,l),
(376,101,l),
(377,87,l),
(384,71,l),
(382,60,l),
(378,42,l),
(385,15,l),
(396,8,l),
(408,-1,l),
(440,2,l),
(453,11,l),
(465,15,l),
(478,29,l),
(483,36,l),
(486,63,l),
(473,82,l),
(482,101,l),
(472,115,l),
(470,130,l),
(466,138,l),
(467,159,l),
(458,170,l),
(445,186,l),
(448,199,l),
(442,212,l),
(424,217,l),
(419,237,l),
(420,246,l),
(413,259,l),
(404,264,l),
(385,272,l),
(379,289,l),
(379,296,l),
(361,303,l),
(385,314,l),
(387,313,l),
(414,320,l),
(428,326,l),
(441,334,l),
(450,346,l),
(457,358,l),
(477,362,l),
(479,376,l),
(490,392,l),
(510,402,l),
(514,412,l),
(514,435,l),
(520,446,l),
(528,463,l),
(531,476,l),
(532,506,l),
(541,518,l),
(547,533,l),
(533,545,l),
(544,566,l),
(536,579,l),
(523,587,l),
(526,601,l),
(511,613,l),
(502,619,l),
(494,631,l),
(488,647,l),
(479,649,l),
(459,655,l),
(452,665,l),
(437,672,l),
(419,667,l),
(415,675,l),
(399,676,l),
(384,681,l),
(367,683,l),
(358,678,l),
(328,682,l),
(312,685,l),
(297,685,l),
(282,680,l),
(262,676,l),
(255,677,l),
(233,672,l),
(224,668,l),
(202,665,l),
(178,664,l),
(158,661,l),
(157,654,l),
(140,639,l),
(129,614,l),
(126,593,l),
(131,583,l),
(131,568,l),
(125,555,l),
(126,541,l),
(127,524,l),
(125,510,l),
(118,488,l),
(119,475,l),
(119,458,l),
(106,447,l),
(117,435,l),
(100,417,l),
(110,406,l),
(102,383,l),
(96,370,l),
(95,359,l),
(99,345,l),
(87,329,l),
(98,315,l),
(92,293,l),
(88,284,l),
(81,261,l),
(78,235,l),
(77,218,l),
(69,206,l),
(63,185,l),
(66,170,l),
(67,148,l),
(65,131,l),
(56,109,l),
(58,97,l),
(51,85,l),
(49,70,l),
(41,51,l),
(38,24,l),
(52,17,l),
(55,4,l),
(71,-2,l)
);
},
{
closed = 1;
nodes = (
(223,367,l),
(207,366,l),
(192,375,l),
(188,390,l),
(196,403,l),
(184,420,l),
(198,433,l),
(192,450,l),
(204,476,l),
(198,498,l),
(200,510,l),
(213,522,l),
(201,539,l),
(209,557,l),
(215,572,l),
(203,579,l),
(217,607,l),
(235,609,l),
(245,615,l),
(271,612,l),
(283,617,l),
(291,613,l),
(309,613,l),
(348,620,l),
(352,614,l),
(371,616,l),
(390,606,l),
(410,610,l),
(407,597,l),
(434,596,l),
(440,572,l),
(458,556,l),
(460,543,l),
(456,530,l),
(467,520,l),
(456,500,l),
(448,461,l),
(439,447,l),
(443,434,l),
(430,416,l),
(411,397,l),
(385,382,l),
(359,375,l),
(351,365,l),
(330,365,l),
(322,357,l),
(303,363,l),
(269,362,l),
(259,365,l),
(247,357,l)
);
}
);
width = 553;
}
);
metricLeft = "=|H";
metricRight = "=H/2";
note = P;
unicode = 82;
userData = {
KernOnName = R;
};
}
{
glyphname = V;
kernLeft = KO_V;
kernRight = KO_V;
layers = (
{
anchors = (
{
name = bottom;
pos = (222,0);
},
{
name = top;
pos = (327,667);
}
);
hints = (
{
horizontal = 1;
place = (0,21);
target = up;
type = BottomGhost;
},
{
horizontal = 1;
place = (150,75);
type = Stem;
},
{
horizontal = 1;
place = (557,110);
type = Stem;
},
{
place = (-41,516);
type = Stem;
}
);
layerId = m005;
shapes = (
{
closed = 1;
nodes = (
(225,138,l),
(236,148,l),
(221,161,l),
(227,181,l),
(214,193,l),
(222,205,l),
(214,219,l),
(212,230,l),
(215,243,l),
(208,258,l),
(206,277,l),
(202,290,l),
(209,301,l),
(202,314,l),
(204,334,l),
(197,345,l),
(199,366,l),
(190,373,l),
(193,390,l),
(192,409,l),
(193,421,l),
(189,439,l),
(187,449,l),
(181,468,l),
(183,481,l),
(178,491,l),
(183,507,l),
(183,524,l),
(189,541,l),
(185,549,l),
(182,564,l),
(173,585,l),
(173,595,l),
(184,626,l),
(166,640,l),
(160,655,l),
(154,657,l),
(142,661,l),
(107,669,l),
(97,653,l),
(87,645,l),
(77,634,l),
(69,619,l),
(55,605,l),
(64,584,l),
(65,565,l),
(61,547,l),
(66,533,l),
(75,521,l),
(70,505,l),
(84,490,l),
(73,485,l),
(89,468,l),
(79,456,l),
(79,435,l),
(88,424,l),
(84,410,l),
(86,394,l),
(94,378,l),
(96,371,l),
(103,349,l),
(105,337,l),
(107,329,l),
(111,314,l),
(106,296,l),
(118,281,l),
(117,264,l),
(122,249,l),
(115,239,l),
(129,228,l),
(119,207,l),
(122,197,l),
(123,184,l),
(133,169,l),
(130,156,l),
(142,146,l),
(141,123,l),
(138,111,l),
(140,96,l),
(156,87,l),
(151,70,l),
(158,55,l),
(168,32,l),
(175,20,l),
(180,9,l),
(189,0,l),
(214,2,l),
(234,-2,l),
(250,6,l),
(269,7,l),
(281,20,l),
(280,29,l),
(302,58,l),
(311,76,l),
(320,81,l),
(332,97,l),
(335,115,l),
(340,123,l),
(341,144,l),
(359,153,l),
(360,165,l),
(371,185,l),
(381,194,l),
(388,208,l),
(390,227,l),
(399,244,l),
(409,254,l),
(414,272,l),
(417,278,l),
(430,300,l),
(437,309,l),
(432,327,l),
(442,340,l),
(450,350,l),
(457,369,l),
(470,382,l),
(474,392,l),
(475,413,l),
(485,421,l),
(493,442,l),
(503,452,l),
(509,464,l),
(517,483,l),
(523,492,l),
(532,505,l),
(536,521,l),
(542,533,l),
(549,554,l),
(549,563,l),
(555,579,l),
(573,610,l),
(573,628,l),
(580,639,l),
(564,649,l),
(560,659,l),
(554,676,l),
(538,676,l),
(509,677,l),
(495,671,l),
(479,657,l),
(468,645,l),
(454,640,l),
(446,612,l),
(446,592,l),
(429,581,l),
(432,562,l),
(422,546,l),
(420,533,l),
(414,516,l),
(406,505,l),
(412,494,l),
(398,480,l),
(395,465,l),
(384,451,l),
(380,435,l),
(379,420,l),
(381,407,l),
(365,387,l),
(365,371,l),
(364,363,l),
(351,350,l),
(350,328,l),
(335,314,l),
(340,304,l),
(332,284,l),
(323,276,l),
(311,261,l),
(312,247,l),
(298,231,l),
(286,216,l),
(285,207,l),
(285,186,l),
(267,178,l),
(264,160,l),
(264,150,l),
(246,135,l),
(243,116,l)
);
}
);
width = 549;
},
{
anchors = (
{
name = bottom;
pos = (222,0);
},
{
name = top;
pos = (327,667);
}
);
hints = (
{
horizontal = 1;
place = (0,21);
target = up;
type = BottomGhost;
},
{
horizontal = 1;
place = (150,75);
type = Stem;
},
{
horizontal = 1;
place = (557,110);
type = Stem;
},
{
place = (-41,516);
type = Stem;
}
);
layerId = m002;
shapes = (
{
closed = 1;
nodes = (
(261,314,l),
(251,330,l),
(257,350,l),
(255,358,l),
(250,376,l),
(251,393,l),
(244,404,l),
(243,416,l),
(236,435,l),
(229,446,l),
(227,462,l),
(225,473,l),
(230,496,l),
(225,507,l),
(236,522,l),
(226,533,l),
(220,549,l),
(221,565,l),
(222,581,l),
(217,605,l),
(218,623,l),
(211,641,l),
(214,648,l),
(205,664,l),
(197,670,l),
(189,681,l),
(164,684,l),
(153,691,l),
(145,695,l),
(116,690,l),
(92,688,l),
(87,685,l),
(62,674,l),
(61,664,l),
(47,648,l),
(38,642,l),
(24,632,l),
(16,616,l),
(11,594,l),
(15,584,l),
(1,566,l),
(19,543,l),
(9,526,l),
(19,511,l),
(11,494,l),
(26,484,l),
(15,472,l),
(21,451,l),
(28,444,l),
(35,429,l),
(35,414,l),
(41,402,l),
(35,380,l),
(44,374,l),
(47,358,l),
(38,346,l),
(45,325,l),
(46,318,l),
(48,301,l),
(62,287,l),
(64,273,l),
(61,261,l),
(59,247,l),
(65,227,l),
(71,212,l),
(66,200,l),
(76,188,l),
(79,176,l),
(87,157,l),
(91,143,l),
(88,132,l),
(89,117,l),
(96,104,l),
(107,94,l),
(100,74,l),
(114,69,l),
(119,53,l),
(122,39,l),
(130,26,l),
(136,19,l),
(139,6,l),
(153,-3,l),
(164,-7,l),
(180,-21,l),
(180,-27,l),
(197,-27,l),
(221,-26,l),
(237,-26,l),
(241,-21,l),
(266,-19,l),
(271,-16,l),
(291,-1,l),
(294,4,l),
(315,19,l),
(322,27,l),
(336,38,l),
(348,58,l),
(355,70,l),
(355,80,l),
(373,88,l),
(374,103,l),
(384,117,l),
(391,137,l),
(402,147,l),
(411,157,l),
(418,170,l),
(428,184,l),
(434,206,l),
(446,215,l),
(451,231,l),
(452,240,l),
(458,259,l),
(469,275,l),
(482,290,l),
(485,301,l),
(494,310,l),
(497,328,l),
(500,337,l),
(514,360,l),
(514,371,l),
(526,387,l),
(537,402,l),
(539,415,l),
(541,421,l),
(553,435,l),
(558,455,l),
(568,466,l),
(580,481,l),
(578,493,l),
(583,512,l),
(594,527,l),
(597,541,l),
(609,568,l),
(622,585,l),
(622,599,l),
(627,618,l),
(615,627,l),
(623,644,l),
(604,659,l),
(602,668,l),
(594,681,l),
(574,689,l),
(571,696,l),
(549,698,l),
(533,700,l),
(508,702,l),
(492,695,l),
(481,692,l),
(461,682,l),
(458,677,l),
(446,670,l),
(423,655,l),
(418,642,l),
(407,633,l),
(407,622,l),
(397,606,l),
(386,589,l),
(381,574,l),
(378,564,l),
(382,544,l),
(373,527,l),
(375,518,l),
(364,498,l),
(355,486,l),
(358,476,l),
(343,463,l),
(348,444,l),
(344,433,l),
(331,414,l),
(326,406,l),
(323,384,l),
(313,378,l),
(299,362,l),
(300,350,l),
(283,333,l),
(284,322,l),
(263,303,l)
);
}
);
width = 549;
},
{
anchors = (
{
name = bottom;
pos = (221,0);
},
{
name = top;
pos = (327,667);
}
);
hints = (
{
horizontal = 1;
place = (0,21);
target = up;
type = BottomGhost;
},
{
horizontal = 1;
place = (150,75);
type = Stem;
},
{
horizontal = 1;
place = (557,110);
type = Stem;
},
{
place = (-42,516);
type = Stem;
}
);
layerId = m003;
shapes = (
{
closed = 1;
nodes = (
(223,94,l),
(226,106,l),
(226,125,l),
(220,142,l),
(212,155,l),
(217,166,l),
(205,177,l),
(202,196,l),
(198,211,l),
(206,223,l),
(207,235,l),
(192,252,l),
(195,264,l),
(196,280,l),
(193,292,l),
(196,323,l),
(192,343,l),
(181,351,l),
(191,369,l),
(181,385,l),
(184,399,l),
(177,410,l),
(173,427,l),
(181,438,l),
(181,458,l),
(171,473,l),
(178,486,l),
(170,499,l),
(174,513,l),
(166,529,l),
(180,549,l),
(171,557,l),
(166,576,l),
(177,590,l),
(177,602,l),
(166,631,l),
(158,645,l),
(155,662,l),
(137,663,l),
(106,665,l),
(91,653,l),
(89,642,l),
(74,630,l),
(81,619,l),
(71,597,l),
(83,574,l),
(85,562,l),
(85,551,l),
(81,537,l),
(90,516,l),
(90,507,l),
(95,495,l),
(91,478,l),
(92,462,l),
(90,450,l),
(96,431,l),
(99,419,l),
(102,403,l),
(104,395,l),
(105,375,l),
(108,363,l),
(118,351,l),
(119,337,l),
(118,323,l),
(117,307,l),
(122,292,l),
(114,274,l),
(120,266,l),
(127,253,l),
(122,239,l),
(138,217,l),
(136,203,l),
(140,191,l),
(136,177,l),
(144,162,l),
(139,154,l),
(150,135,l),
(146,123,l),
(152,111,l),
(162,97,l),
(162,80,l),
(167,70,l),
(162,55,l),
(166,24,l),
(186,17,l),
(198,4,l),
(210,0,l),
(229,5,l),
(255,3,l),
(261,17,l),
(283,23,l),
(292,50,l),
(298,64,l),
(310,91,l),
(318,104,l),
(325,121,l),
(339,135,l),
(345,153,l),
(356,160,l),
(352,176,l),
(367,197,l),
(370,202,l),
(371,221,l),
(391,236,l),
(388,253,l),
(401,268,l),
(404,278,l),
(419,295,l),
(422,310,l),
(420,322,l),
(438,330,l),
(447,354,l),
(442,361,l),
(453,377,l),
(465,394,l),
(465,409,l),
(467,420,l),
(485,438,l),
(492,447,l),
(498,462,l),
(497,477,l),
(499,489,l),
(508,510,l),
(522,523,l),
(525,535,l),
(536,553,l),
(544,560,l),
(543,582,l),
(554,596,l),
(561,626,l),
(558,631,l),
(568,650,l),
(565,665,l),
(552,669,l),
(530,677,l),
(502,671,l),
(483,663,l),
(484,653,l),
(460,649,l),
(460,621,l),
(449,598,l),
(454,588,l),
(447,578,l),
(431,563,l),
(428,548,l),
(433,528,l),
(430,516,l),
(411,500,l),
(416,483,l),
(410,473,l),
(397,458,l),
(399,439,l),
(393,427,l),
(378,407,l),
(376,393,l),
(369,381,l),
(372,364,l),
(355,353,l),
(355,340,l),
(358,328,l),
(350,308,l),
(343,298,l),
(333,280,l),
(321,269,l),
(314,253,l),
(318,235,l),
(305,227,l),
(307,210,l),
(287,193,l),
(293,176,l),
(282,162,l),
(272,156,l),
(269,140,l),
(258,125,l),
(249,107,l),
(244,96,l),
(227,78,l)
);
}
);
width = 549;
}
);
note = A;
unicode = 86;
userData = {
KernOnName = V;
};
}
{
glyphname = Z;
kernLeft = KO_Z;
kernRight = KO_Z;
layers = (
{
anchors = (
{
name = bottom;
pos = (210,0);
},
{
name = center;
pos = (263,334);
},
{
name = top;
pos = (309,625);
}
);
hints = (
{
horizontal = 1;
place = (0,85);
type = Stem;
},
{
horizontal = 1;
place = (587,80);
type = Stem;
},
{
place = (-23,475);
type = Stem;
}
);
layerId = m005;
shapes = (
{
closed = 1;
nodes = (
(50,-4,l),
(60,4,l),
(86,2,l),
(95,2,l),
(116,-2,l),
(135,2,l),
(145,4,l),
(163,4,l),
(168,1,l),
(191,-4,l),
(199,3,l),
(215,-2,l),
(234,1,l),
(258,-6,l),
(274,-1,l),
(299,-1,l),
(313,-3,l),
(329,-4,l),
(346,-9,l),
(363,-5,l),
(369,-13,l),
(387,-12,l),
(411,-5,l),
(432,-6,l),
(448,7,l),
(458,24,l),
(456,53,l),
(460,72,l),
(449,82,l),
(431,92,l),
(419,100,l),
(387,95,l),
(380,101,l),
(364,91,l),
(344,99,l),
(329,94,l),
(311,96,l),
(306,90,l),
(288,96,l),
(268,86,l),
(251,92,l),
(246,88,l),
(230,89,l),
(214,94,l),
(198,86,l),
(178,87,l),
(172,93,l),
(144,89,l),
(132,90,l),
(119,89,l),
(130,113,l),
(131,131,l),
(150,141,l),
(156,150,l),
(174,167,l),
(172,181,l),
(185,189,l),
(203,203,l),
(206,213,l),
(225,231,l),
(228,237,l),
(236,254,l),
(251,269,l),
(264,283,l),
(270,289,l),
(283,300,l),
(290,321,l),
(308,326,l),
(314,340,l),
(324,354,l),
(339,364,l),
(349,383,l),
(360,395,l),
(361,407,l),
(371,415,l),
(394,432,l),
(395,438,l),
(403,458,l),
(421,464,l),
(428,483,l),
(443,489,l),
(442,506,l),
(454,516,l),
(466,526,l),
(480,545,l),
(489,552,l),
(504,564,l),
(519,586,l),
(528,593,l),
(540,618,l),
(543,638,l),
(551,651,l),
(532,660,l),
(511,671,l),
(488,665,l),
(482,667,l),
(457,672,l),
(447,667,l),
(433,663,l),
(413,672,l),
(394,665,l),
(379,672,l),
(370,663,l),
(350,667,l),
(337,670,l),
(322,668,l),
(314,668,l),
(291,666,l),
(265,671,l),
(240,668,l),
(232,675,l),
(217,668,l),
(196,673,l),
(192,670,l),
(173,670,l),
(166,680,l),
(134,677,l),
(115,668,l),
(99,651,l),
(97,645,l),
(88,607,l),
(94,592,l),
(117,590,l),
(124,581,l),
(144,574,l),
(170,579,l),
(183,583,l),
(197,580,l),
(209,584,l),
(222,584,l),
(246,582,l),
(260,581,l),
(265,586,l),
(282,589,l),
(308,590,l),
(321,582,l),
(325,585,l),
(349,582,l),
(358,584,l),
(377,587,l),
(401,584,l),
(386,559,l),
(384,554,l),
(371,542,l),
(355,525,l),
(347,512,l),
(330,497,l),
(323,493,l),
(316,476,l),
(300,466,l),
(301,451,l),
(279,439,l),
(271,423,l),
(261,415,l),
(248,402,l),
(238,391,l),
(240,377,l),
(219,366,l),
(213,355,l),
(195,338,l),
(197,333,l),
(186,320,l),
(171,303,l),
(154,287,l),
(153,282,l),
(146,264,l),
(133,257,l),
(126,242,l),
(114,228,l),
(98,215,l),
(95,204,l),
(76,198,l),
(65,184,l),
(61,167,l),
(47,161,l),
(42,145,l),
(25,133,l),
(16,116,l),
(-2,94,l),
(-14,81,l),
(-24,61,l),
(-27,35,l),
(-15,21,l),
(-14,3,l),
(5,3,l),
(41,-4,l)
);
}
);
width = 494;
},
{
anchors = (
{
name = bottom;
pos = (246,0);
},
{
name = center;
pos = (299,334);
},
{
name = top;
pos = (345,625);
}
);
hints = (
{
horizontal = 1;
place = (0,85);
type = Stem;
},
{
horizontal = 1;
place = (587,80);
type = Stem;
},
{
place = (-23,475);
type = Stem;
}
);
layerId = m002;
shapes = (
{
closed = 1;
nodes = (
(127,-14,l),
(139,-9,l),
(156,-11,l),
(176,-10,l),
(194,-13,l),
(214,-16,l),
(236,-15,l),
(251,-17,l),
(263,-13,l),
(282,-15,l),
(290,-18,l),
(309,-18,l),
(325,-19,l),
(341,-17,l),
(350,-22,l),
(366,-23,l),
(391,-22,l),
(398,-20,l),
(419,-25,l),
(453,-26,l),
(463,-19,l),
(478,-14,l),
(485,-4,l),
(504,1,l),
(510,17,l),
(531,33,l),
(537,44,l),
(542,62,l),
(556,78,l),
(552,102,l),
(552,114,l),
(552,133,l),
(542,144,l),
(533,158,l),
(538,168,l),
(527,175,l),
(519,191,l),
(504,189,l),
(486,200,l),
(469,199,l),
(441,195,l),
(421,195,l),
(408,193,l),
(398,198,l),
(379,198,l),
(368,194,l),
(339,188,l),
(327,196,l),
(312,195,l),
(295,189,l),
(287,187,l),
(268,198,l),
(273,209,l),
(290,227,l),
(302,233,l),
(316,247,l),
(319,261,l),
(331,266,l),
(343,278,l),
(363,291,l),
(364,300,l),
(384,315,l),
(388,325,l),
(418,353,l),
(427,361,l),
(433,374,l),
(449,380,l),
(456,398,l),
(478,404,l),
(477,417,l),
(488,429,l),
(505,434,l),
(516,452,l),
(537,465,l),
(541,468,l),
(555,483,l),
(564,498,l),
(579,504,l),
(585,519,l),
(614,541,l),
(615,554,l),
(620,566,l),
(621,584,l),
(629,595,l),
(632,612,l),
(622,624,l),
(621,641,l),
(616,649,l),
(614,659,l),
(597,665,l),
(587,671,l),
(567,675,l),
(542,684,l),
(520,676,l),
(518,683,l),
(479,676,l),
(467,682,l),
(446,685,l),
(440,680,l),
(422,681,l),
(410,679,l),
(397,683,l),
(375,679,l),
(347,682,l),
(336,680,l),
(315,683,l),
(302,680,l),
(282,680,l),
(273,682,l),
(263,688,l),
(248,684,l),
(222,689,l),
(217,690,l),
(189,686,l),
(171,692,l),
(142,683,l),
(121,662,l),
(111,650,l),
(96,634,l),
(83,618,l),
(88,603,l),
(80,592,l),
(70,562,l),
(78,545,l),
(77,530,l),
(82,518,l),
(90,506,l),
(96,500,l),
(114,490,l),
(114,484,l),
(130,479,l),
(155,476,l),
(182,476,l),
(195,479,l),
(207,483,l),
(225,478,l),
(242,484,l),
(261,483,l),
(269,486,l),
(285,481,l),
(301,487,l),
(330,484,l),
(314,457,l),
(295,453,l),
(288,441,l),
(268,423,l),
(257,419,l),
(242,400,l),
(236,396,l),
(232,377,l),
(210,367,l),
(206,358,l),
(184,342,l),
(174,331,l),
(172,326,l),
(154,312,l),
(140,299,l),
(137,288,l),
(119,280,l),
(111,262,l),
(97,255,l),
(90,239,l),
(79,235,l),
(60,220,l),
(56,210,l),
(31,183,l),
(14,178,l),
(0,166,l),
(-7,145,l),
(-16,138,l),
(-12,122,l),
(-18,107,l),
(-23,83,l),
(-24,68,l),
(-26,47,l),
(-24,39,l),
(-16,26,l),
(-12,14,l),
(-2,1,l),
(15,-5,l),
(29,-4,l),
(45,-14,l),
(65,-11,l),
(86,-18,l),
(100,-12,l),
(123,-11,l)
);
}
);
width = 591;
},
{
anchors = (
{
name = bottom;
pos = (191,0);
},
{
name = center;
pos = (244,334);
},
{
name = top;
pos = (290,625);
}
);
hints = (
{
horizontal = 1;
place = (0,85);
type = Stem;
},
{
horizontal = 1;
place = (587,80);
type = Stem;
},
{
place = (-23,475);
type = Stem;
}
);
layerId = m003;
shapes = (
{
closed = 1;
nodes = (
(26,-2,l),
(43,-8,l),
(59,1,l),
(71,-7,l),
(84,-2,l),
(106,-1,l),
(126,-3,l),
(141,-3,l),
(149,0,l),
(168,-3,l),
(188,-1,l),
(204,-3,l),
(218,-2,l),
(235,2,l),
(251,-4,l),
(278,-1,l),
(296,-3,l),
(307,0,l),
(329,-7,l),
(340,-8,l),
(356,-5,l),
(366,-5,l),
(404,-8,l),
(416,5,l),
(425,19,l),
(432,46,l),
(428,61,l),
(418,70,l),
(403,81,l),
(373,83,l),
(363,73,l),
(337,77,l),
(325,75,l),
(312,78,l),
(292,70,l),
(268,75,l),
(257,68,l),
(232,68,l),
(225,71,l),
(205,65,l),
(192,66,l),
(165,66,l),
(144,65,l),
(132,69,l),
(117,72,l),
(105,74,l),
(96,73,l),
(72,67,l),
(86,88,l),
(95,107,l),
(96,118,l),
(106,126,l),
(114,139,l),
(128,149,l),
(144,164,l),
(158,175,l),
(160,196,l),
(167,204,l),
(181,215,l),
(194,230,l),
(203,238,l),
(218,255,l),
(223,270,l),
(238,279,l),
(243,291,l),
(246,304,l),
(265,323,l),
(269,328,l),
(290,347,l),
(293,358,l),
(298,373,l),
(312,383,l),
(327,392,l),
(339,404,l),
(345,416,l),
(359,429,l),
(371,446,l),
(381,458,l),
(388,472,l),
(403,484,l),
(400,494,l),
(410,508,l),
(427,526,l),
(431,534,l),
(447,543,l),
(454,564,l),
(462,570,l),
(473,581,l),
(488,602,l),
(495,609,l),
(519,634,l),
(517,650,l),
(515,662,l),
(487,663,l),
(475,670,l),
(457,666,l),
(446,662,l),
(432,668,l),
(413,667,l),
(391,670,l),
(386,668,l),
(357,664,l),
(349,670,l),
(339,671,l),
(314,663,l),
(302,672,l),
(289,665,l),
(278,668,l),
(263,671,l),
(248,673,l),
(210,666,l),
(202,668,l),
(186,674,l),
(170,669,l),
(152,667,l),
(142,676,l),
(105,667,l),
(101,659,l),
(88,649,l),
(94,618,l),
(99,611,l),
(104,596,l),
(136,602,l),
(157,604,l),
(168,602,l),
(200,600,l),
(206,599,l),
(219,607,l),
(240,601,l),
(255,601,l),
(274,609,l),
(287,602,l),
(301,608,l),
(316,608,l),
(319,604,l),
(348,604,l),
(355,609,l),
(375,608,l),
(391,602,l),
(400,605,l),
(386,588,l),
(386,571,l),
(371,565,l),
(371,552,l),
(346,532,l),
(337,527,l),
(325,511,l),
(322,496,l),
(312,488,l),
(299,472,l),
(286,459,l),
(281,450,l),
(267,430,l),
(257,420,l),
(255,412,l),
(238,400,l),
(227,381,l),
(213,370,l),
(213,355,l),
(192,345,l),
(190,337,l),
(178,320,l),
(161,310,l),
(154,290,l),
(149,286,l),
(131,265,l),
(125,257,l),
(121,248,l),
(104,234,l),
(101,217,l),
(85,204,l),
(81,192,l),
(69,181,l),
(54,172,l),
(51,158,l),
(33,140,l),
(24,127,l),
(20,116,l),
(0,109,l),
(-16,76,l),
(-28,63,l),
(-23,49,l),
(-38,22,l),
(-22,11,l),
(-11,0,l),
(20,-8,l)
);
}
);
width = 482;
}
);
metricLeft = "=H/4";
metricRight = "=H/4";
note = Z;
unicode = 90;
}
{
glyphname = bracketright;
kernLeft = KO_bracketright;
layers = (
{
hints = (
{
horizontal = 1;
place = (-71,70);
type = Stem;
},
{
horizontal = 1;
place = (667,70);
type = Stem;
},
{
place = (27,80);
type = Stem;
},
{
horizontal = 1;
origin = (0,7);
place = (-91,70);
type = Stem;
},
{
horizontal = 1;
origin = (0,7);
place = (-91,70);
type = Stem;
},
{
origin = (0,9);
place = (152,80);
type = Stem;
}
);
layerId = m005;
shapes = (
{
closed = 1;
nodes = (
(0,-94,l),
(24,-87,l),
(33,-94,l),
(49,-96,l),
(75,-87,l),
(80,-96,l),
(94,-92,l),
(119,-91,l),
(122,-87,l),
(152,-86,l),
(179,-80,l),
(178,-76,l),
(186,-45,l),
(196,-33,l),
(192,-10,l),
(189,4,l),
(205,21,l),
(203,34,l),
(198,43,l),
(202,63,l),
(210,78,l),
(204,94,l),
(213,104,l),
(204,126,l),
(209,139,l),
(214,156,l),
(209,171,l),
(214,185,l),
(227,198,l),
(223,215,l),
(228,227,l),
(223,242,l),
(238,260,l),
(228,269,l),
(232,285,l),
(240,306,l),
(238,320,l),
(241,335,l),
(239,345,l),
(252,363,l),
(253,378,l),
(251,392,l),
(260,412,l),
(256,426,l),
(259,436,l),
(260,449,l),
(264,469,l),
(265,482,l),
(276,495,l),
(282,513,l),
(288,530,l),
(286,543,l),
(284,554,l),
(297,575,l),
(300,586,l),
(294,604,l),
(299,623,l),
(298,634,l),
(309,648,l),
(305,664,l),
(321,678,l),
(316,698,l),
(314,707,l),
(325,737,l),
(317,742,l),
(296,748,l),
(287,757,l),
(267,756,l),
(243,755,l),
(225,756,l),
(204,758,l),
(185,752,l),
(169,759,l),
(157,761,l),
(134,758,l),
(117,743,l),
(108,736,l),
(97,716,l),
(100,708,l),
(106,697,l),
(106,684,l),
(111,673,l),
(125,672,l),
(139,672,l),
(158,680,l),
(179,672,l),
(196,676,l),
(215,678,l),
(211,655,l),
(204,640,l),
(212,625,l),
(202,613,l),
(205,591,l),
(195,576,l),
(195,565,l),
(198,554,l),
(190,537,l),
(187,517,l),
(183,504,l),
(183,486,l),
(175,472,l),
(168,455,l),
(165,442,l),
(172,431,l),
(159,411,l),
(164,396,l),
(155,387,l),
(160,365,l),
(151,351,l),
(147,341,l),
(155,325,l),
(147,310,l),
(142,292,l),
(143,281,l),
(135,257,l),
(140,250,l),
(138,232,l),
(136,214,l),
(121,202,l),
(119,189,l),
(126,171,l),
(118,159,l),
(113,142,l),
(121,127,l),
(121,113,l),
(116,90,l),
(104,83,l),
(103,64,l),
(107,47,l),
(102,34,l),
(106,23,l),
(97,-8,l),
(72,-7,l),
(57,-3,l),
(31,-7,l),
(3,-11,l),
(-3,-15,l),
(-24,-18,l),
(-18,-34,l),
(-24,-58,l),
(-21,-73,l),
(-16,-86,l)
);
}
);
width = 309;
},
{
hints = (
{
horizontal = 1;
place = (-71,70);
type = Stem;
},
{
horizontal = 1;
place = (667,70);
type = Stem;
},
{
place = (27,80);
type = Stem;
},
{
horizontal = 1;
origin = (0,7);
place = (-142,70);
type = Stem;
},
{
horizontal = 1;
origin = (0,7);
place = (-142,70);
type = Stem;
},
{
origin = (0,7);
place = (181,80);
type = Stem;
}
);
layerId = m002;
shapes = (
{
closed = 1;
nodes = (
(12,-135,l),
(15,-141,l),
(65,-142,l),
(92,-142,l),
(115,-138,l),
(129,-143,l),
(148,-141,l),
(181,-142,l),
(206,-134,l),
(210,-129,l),
(232,-129,l),
(237,-119,l),
(261,-105,l),
(260,-96,l),
(266,-83,l),
(280,-67,l),
(286,-37,l),
(282,-27,l),
(288,-7,l),
(285,9,l),
(282,31,l),
(291,50,l),
(287,66,l),
(290,82,l),
(296,91,l),
(300,106,l),
(295,126,l),
(309,151,l),
(304,172,l),
(311,203,l),
(307,213,l),
(313,229,l),
(310,246,l),
(320,260,l),
(321,275,l),
(322,283,l),
(319,304,l),
(334,318,l),
(333,337,l),
(330,348,l),
(331,367,l),
(341,375,l),
(348,394,l),
(338,409,l),
(348,417,l),
(354,434,l),
(350,450,l),
(354,471,l),
(362,478,l),
(361,495,l),
(365,515,l),
(371,529,l),
(370,540,l),
(380,555,l),
(383,568,l),
(380,581,l),
(394,616,l),
(398,631,l),
(395,650,l),
(395,670,l),
(399,686,l),
(408,704,l),
(408,737,l),
(418,749,l),
(401,761,l),
(402,771,l),
(387,787,l),
(365,802,l),
(358,799,l),
(338,806,l),
(293,802,l),
(283,810,l),
(271,806,l),
(241,802,l),
(215,803,l),
(181,809,l),
(160,800,l),
(138,797,l),
(138,792,l),
(115,778,l),
(117,761,l),
(93,740,l),
(96,717,l),
(86,703,l),
(87,687,l),
(88,669,l),
(92,655,l),
(112,646,l),
(127,635,l),
(136,624,l),
(151,624,l),
(170,625,l),
(189,624,l),
(190,615,l),
(190,600,l),
(192,588,l),
(187,565,l),
(175,552,l),
(180,535,l),
(171,524,l),
(176,509,l),
(172,497,l),
(167,477,l),
(156,452,l),
(156,432,l),
(148,417,l),
(146,390,l),
(150,371,l),
(145,356,l),
(138,340,l),
(142,323,l),
(143,314,l),
(135,305,l),
(124,292,l),
(137,282,l),
(125,265,l),
(118,253,l),
(121,240,l),
(119,218,l),
(113,209,l),
(119,190,l),
(106,171,l),
(105,155,l),
(105,131,l),
(109,112,l),
(103,88,l),
(97,64,l),
(88,51,l),
(75,44,l),
(52,41,l),
(36,43,l),
(22,32,l),
(-2,23,l),
(-10,3,l),
(-31,-8,l),
(-30,-39,l),
(-43,-51,l),
(-40,-78,l),
(-34,-98,l),
(-34,-111,l),
(-11,-122,l),
(-12,-131,l)
);
}
);
width = 347;
},
{
hints = (
{
horizontal = 1;
place = (-71,70);
type = Stem;
},
{
horizontal = 1;
place = (667,70);
type = Stem;
},
{
place = (27,80);
type = Stem;
},
{
horizontal = 1;
origin = (0,7);
place = (-82,70);
type = Stem;
},
{
horizontal = 1;
origin = (0,7);
place = (-82,70);
type = Stem;
},
{
origin = (0,8);
place = (167,80);
type = Stem;
}
);
layerId = m003;
shapes = (
{
closed = 1;
nodes = (
(40,-85,l),
(47,-79,l),
(67,-84,l),
(83,-84,l),
(93,-80,l),
(119,-83,l),
(126,-80,l),
(140,-82,l),
(167,-78,l),
(181,-74,l),
(196,-40,l),
(194,-26,l),
(204,-11,l),
(205,3,l),
(197,11,l),
(196,33,l),
(201,45,l),
(203,62,l),
(209,80,l),
(208,87,l),
(207,103,l),
(211,120,l),
(217,133,l),
(217,147,l),
(217,164,l),
(228,185,l),
(229,197,l),
(224,210,l),
(231,230,l),
(230,243,l),
(228,261,l),
(241,269,l),
(241,284,l),
(244,305,l),
(241,319,l),
(247,334,l),
(247,344,l),
(243,358,l),
(257,373,l),
(249,389,l),
(259,411,l),
(259,427,l),
(262,441,l),
(272,458,l),
(277,468,l),
(273,483,l),
(273,495,l),
(283,518,l),
(288,527,l),
(280,543,l),
(292,559,l),
(293,578,l),
(292,587,l),
(297,603,l),
(305,616,l),
(304,638,l),
(307,649,l),
(315,664,l),
(320,675,l),
(321,698,l),
(316,705,l),
(316,734,l),
(312,749,l),
(291,749,l),
(266,750,l),
(264,750,l),
(250,747,l),
(231,748,l),
(215,748,l),
(196,746,l),
(176,749,l),
(173,747,l),
(154,746,l),
(140,745,l),
(132,733,l),
(126,721,l),
(121,700,l),
(136,692,l),
(146,689,l),
(165,684,l),
(177,688,l),
(192,687,l),
(207,692,l),
(226,690,l),
(236,693,l),
(231,669,l),
(240,656,l),
(237,643,l),
(230,622,l),
(223,607,l),
(224,592,l),
(219,575,l),
(219,564,l),
(218,552,l),
(217,531,l),
(212,520,l),
(210,501,l),
(207,487,l),
(195,476,l),
(188,455,l),
(188,441,l),
(195,429,l),
(187,409,l),
(187,394,l),
(180,379,l),
(185,367,l),
(179,354,l),
(176,340,l),
(171,321,l),
(164,311,l),
(166,292,l),
(166,274,l),
(158,259,l),
(156,244,l),
(154,234,l),
(153,221,l),
(147,199,l),
(141,190,l),
(144,168,l),
(144,159,l),
(138,145,l),
(132,122,l),
(134,115,l),
(140,101,l),
(126,83,l),
(127,70,l),
(121,53,l),
(127,39,l),
(126,24,l),
(114,1,l),
(122,-14,l),
(99,-13,l),
(86,-14,l),
(64,-19,l),
(54,-20,l),
(36,-20,l),
(15,-19,l),
(2,-26,l),
(1,-35,l),
(-13,-55,l),
(-7,-73,l),
(3,-80,l)
);
}
);
width = 324;
}
);
metricLeft = "=n/2";
metricRight = "=n";
note = bracketleft;
unicode = 93;
userData = {
KernOnSpecialSpacing = {
L = parenthesis;
R = NoKerning;
};
};
}
{
glyphname = underscore;
kernLeft = KO_underscore;
kernRight = KO_underscore;
layers = (
{
hints = (
{
horizontal = 1;
place = (-75,64);
type = Stem;
},
{
place = (93,400);
type = Stem;
}
);
layerId = m005;
shapes = (
{
closed = 1;
nodes = (
(380,-80,l),
(381,-68,l),
(375,-59,l),
(369,-49,l),
(373,-44,l),
(354,-28,l),
(332,-32,l),
(313,-34,l),
(293,-36,l),
(278,-37,l),
(274,-37,l),
(257,-36,l),
(242,-38,l),
(222,-34,l),
(209,-36,l),
(199,-41,l),
(178,-40,l),
(162,-37,l),
(142,-35,l),
(130,-41,l),
(121,-39,l),
(99,-33,l),
(84,-33,l),
(69,-39,l),
(58,-34,l),
(42,-29,l),
(22,-29,l),
(3,-44,l),
(-2,-57,l),
(-15,-63,l),
(-13,-85,l),
(-20,-101,l),
(-9,-108,l),
(-2,-114,l),
(15,-118,l),
(34,-122,l),
(41,-116,l),
(65,-118,l),
(82,-120,l),
(97,-124,l),
(101,-118,l),
(120,-122,l),
(137,-121,l),
(149,-118,l),
(170,-123,l),
(186,-117,l),
(189,-121,l),
(206,-125,l),
(230,-124,l),
(237,-123,l),
(251,-129,l),
(263,-122,l),
(284,-131,l),
(296,-125,l),
(307,-132,l),
(333,-129,l),
(344,-123,l),
(356,-117,l),
(367,-107,l),
(367,-99,l)
);
}
);
width = 488;
},
{
hints = (
{
horizontal = 1;
place = (-75,64);
type = Stem;
},
{
place = (93,400);
type = Stem;
}
);
layerId = m002;
shapes = (
{
closed = 1;
nodes = (
(447,-83,l),
(458,-63,l),
(449,-53,l),
(455,-36,l),
(443,-24,l),
(428,-3,l),
(408,15,l),
(363,19,l),
(349,14,l),
(317,13,l),
(306,18,l),
(289,12,l),
(244,9,l),
(225,17,l),
(210,15,l),
(194,9,l),
(182,15,l),
(132,13,l),
(120,18,l),
(96,20,l),
(49,17,l),
(43,19,l),
(18,14,l),
(14,4,l),
(-8,-20,l),
(-21,-39,l),
(-33,-54,l),
(-32,-66,l),
(-42,-77,l),
(-35,-93,l),
(-40,-117,l),
(-28,-127,l),
(-31,-142,l),
(-18,-155,l),
(0,-157,l),
(15,-174,l),
(53,-169,l),
(72,-169,l),
(79,-174,l),
(104,-168,l),
(122,-171,l),
(160,-172,l),
(166,-169,l),
(177,-176,l),
(199,-169,l),
(233,-172,l),
(261,-176,l),
(272,-171,l),
(280,-177,l),
(302,-178,l),
(307,-174,l),
(329,-176,l),
(364,-183,l),
(380,-179,l),
(384,-168,l),
(404,-165,l),
(408,-151,l),
(431,-123,l),
(445,-113,l),
(443,-95,l)
);
}
);
width = 516;
},
{
hints = (
{
horizontal = 1;
place = (-75,64);
type = Stem;
},
{
place = (93,400);
type = Stem;
}
);
layerId = m003;
shapes = (
{
closed = 1;
nodes = (
(381,-78,l),
(383,-62,l),
(387,-51,l),
(370,-47,l),
(350,-44,l),
(344,-39,l),
(323,-40,l),
(310,-50,l),
(294,-41,l),
(278,-51,l),
(264,-48,l),
(254,-45,l),
(250,-43,l),
(231,-45,l),
(215,-50,l),
(199,-47,l),
(187,-44,l),
(169,-45,l),
(157,-49,l),
(137,-47,l),
(133,-45,l),
(116,-49,l),
(99,-46,l),
(79,-43,l),
(69,-44,l),
(54,-43,l),
(41,-42,l),
(35,-57,l),
(19,-65,l),
(21,-82,l),
(15,-97,l),
(27,-106,l),
(38,-107,l),
(48,-108,l),
(61,-109,l),
(66,-108,l),
(82,-109,l),
(95,-106,l),
(114,-109,l),
(135,-106,l),
(143,-112,l),
(158,-115,l),
(184,-107,l),
(193,-111,l),
(212,-108,l),
(215,-114,l),
(233,-108,l),
(243,-117,l),
(255,-116,l),
(272,-114,l),
(277,-113,l),
(296,-114,l),
(308,-113,l),
(319,-117,l),
(334,-122,l),
(351,-119,l),
(362,-117,l),
(372,-109,l),
(377,-97,l),
(380,-90,l)
);
}
);
width = 506;
}
);
metricLeft = "=n";
metricRight = "=n";
note = underscore;
unicode = 95;
userData = {
KernOnSpecialSpacing = {
L = underscore;
R = underscore;
};
};
}
{
glyphname = a;
kernLeft = KO_a;
kernRight = KO_a;
layers = (
{
anchors = (
{
name = bottom;
pos = (212,0);
},
{
name = ogonek;
pos = (402,20);
},
{
name = top;
pos = (292,500);
}
);
hints = (
{
horizontal = 1;
place = (0,21);
target = up;
type = BottomGhost;
},
{
horizontal = 1;
place = (435,75);
type = Stem;
},
{
place = (0,100);
type = Stem;
},
{
place = (290,95);
type = Stem;
},
{
horizontal = 1;
place = (-10,80);
type = Stem;
}
);
layerId = m005;
shapes = (
{
closed = 1;
nodes = (
(196,0,l),
(216,-3,l),
(242,11,l),
(262,25,l),
(270,34,l),
(289,43,l),
(308,50,l),
(318,42,l),
(330,18,l),
(327,5,l),
(342,3,l),
(379,-2,l),
(387,12,l),
(402,20,l),
(412,49,l),
(411,63,l),
(417,75,l),
(409,90,l),
(417,104,l),
(422,127,l),
(412,135,l),
(427,156,l),
(417,171,l),
(430,180,l),
(432,203,l),
(430,215,l),
(436,234,l),
(429,250,l),
(438,258,l),
(437,281,l),
(449,291,l),
(443,307,l),
(446,323,l),
(448,337,l),
(457,356,l),
(464,387,l),
(464,398,l),
(471,413,l),
(470,447,l),
(462,463,l),
(452,471,l),
(447,481,l),
(414,492,l),
(403,493,l),
(388,501,l),
(376,499,l),
(362,508,l),
(346,504,l),
(341,512,l),
(319,511,l),
(302,505,l),
(268,512,l),
(253,506,l),
(222,501,l),
(205,495,l),
(186,481,l),
(166,473,l),
(162,467,l),
(149,460,l),
(138,449,l),
(119,428,l),
(115,418,l),
(106,409,l),
(94,398,l),
(94,382,l),
(77,367,l),
(69,356,l),
(73,334,l),
(52,312,l),
(48,298,l),
(52,274,l),
(40,268,l),
(42,242,l),
(39,212,l),
(37,197,l),
(38,177,l),
(38,167,l),
(24,145,l),
(38,136,l),
(27,122,l),
(31,100,l),
(41,87,l),
(43,75,l),
(46,60,l),
(55,50,l),
(54,37,l),
(70,21,l),
(77,8,l),
(93,-4,l),
(103,-6,l),
(126,-4,l),
(132,-8,l),
(162,-10,l),
(177,-12,l)
);
},
{
closed = 1;
nodes = (
(171,81,l),
(147,85,l),
(148,95,l),
(132,114,l),
(131,122,l),
(136,137,l),
(132,148,l),
(127,163,l),
(135,184,l),
(132,195,l),
(138,210,l),
(135,237,l),
(152,261,l),
(141,277,l),
(148,298,l),
(155,307,l),
(155,319,l),
(163,334,l),
(172,351,l),
(181,380,l),
(200,389,l),
(208,401,l),
(218,413,l),
(238,421,l),
(248,433,l),
(269,433,l),
(292,438,l),
(324,432,l),
(336,434,l),
(351,428,l),
(369,423,l),
(372,398,l),
(360,385,l),
(361,373,l),
(349,351,l),
(359,343,l),
(351,327,l),
(348,306,l),
(342,291,l),
(343,272,l),
(337,261,l),
(335,247,l),
(325,226,l),
(329,219,l),
(325,180,l),
(320,173,l),
(303,150,l),
(298,143,l),
(294,122,l),
(282,110,l),
(269,103,l),
(252,98,l),
(236,86,l),
(218,75,l),
(208,78,l),
(177,73,l)
);
}
);
width = 480;
},
{
anchors = (
{
name = bottom;
pos = (222,0);
},
{
name = ogonek;
pos = (445,10);
},
{
name = top;
pos = (301,500);
}
);
hints = (
{
horizontal = 1;
place = (0,21);
target = up;
type = BottomGhost;
},
{
horizontal = 1;
place = (435,75);
type = Stem;
},
{
place = (1,100);
type = Stem;
},
{
place = (291,95);
type = Stem;
},
{
horizontal = 1;
place = (-10,80);
type = Stem;
}
);
layerId = m002;
shapes = (
{
closed = 1;
nodes = (
(188,-23,l),
(220,-18,l),
(230,-21,l),
(240,-12,l),
(266,-5,l),
(273,7,l),
(305,25,l),
(321,32,l),
(327,33,l),
(342,21,l),
(354,-4,l),
(365,-15,l),
(390,-18,l),
(396,-16,l),
(411,-9,l),
(425,2,l),
(445,10,l),
(457,19,l),
(470,29,l),
(475,47,l),
(471,60,l),
(488,90,l),
(486,100,l),
(481,118,l),
(487,132,l),
(493,176,l),
(484,191,l),
(486,205,l),
(503,249,l),
(499,272,l),
(502,282,l),
(504,299,l),
(513,328,l),
(525,345,l),
(524,355,l),
(525,379,l),
(529,408,l),
(535,430,l),
(526,449,l),
(513,456,l),
(517,468,l),
(491,481,l),
(473,487,l),
(451,497,l),
(446,510,l),
(419,508,l),
(411,515,l),
(394,516,l),
(377,515,l),
(372,518,l),
(346,524,l),
(324,527,l),
(293,525,l),
(258,520,l),
(222,511,l),
(209,512,l),
(178,498,l),
(165,497,l),
(147,490,l),
(146,480,l),
(124,470,l),
(108,455,l),
(110,450,l),
(87,432,l),
(77,420,l),
(73,405,l),
(59,394,l),
(57,380,l),
(39,366,l),
(31,350,l),
(33,339,l),
(20,310,l),
(10,290,l),
(18,278,l),
(5,268,l),
(0,235,l),
(1,212,l),
(2,199,l),
(-2,178,l),
(3,162,l),
(-9,132,l),
(-1,118,l),
(-4,102,l),
(7,91,l),
(2,60,l),
(19,56,l),
(28,28,l),
(50,10,l),
(63,-3,l),
(76,-12,l),
(98,-16,l),
(104,-23,l),
(127,-23,l),
(154,-29,l)
);
},
{
closed = 1;
nodes = (
(222,162,l),
(215,163,l),
(208,164,l),
(203,168,l),
(200,172,l),
(195,177,l),
(191,181,l),
(194,192,l),
(200,203,l),
(205,213,l),
(203,226,l),
(201,233,l),
(200,239,l),
(205,250,l),
(211,261,l),
(214,268,l),
(217,279,l),
(217,287,l),
(218,294,l),
(219,304,l),
(220,312,l),
(225,321,l),
(231,330,l),
(238,333,l),
(251,338,l),
(259,344,l),
(268,350,l),
(275,350,l),
(289,351,l),
(295,346,l),
(305,340,l),
(314,332,l),
(317,324,l),
(319,314,l),
(316,302,l),
(315,297,l),
(312,288,l),
(308,283,l),
(304,277,l),
(299,270,l),
(299,260,l),
(296,244,l),
(298,235,l),
(299,226,l),
(296,212,l),
(293,203,l),
(289,195,l),
(285,185,l),
(277,180,l),
(267,176,l),
(262,174,l),
(257,167,l),
(252,161,l),
(243,161,l),
(235,161,l),
(229,161,l)
);
}
);
width = 523;
},
{
anchors = (
{
name = bottom;
pos = (221,0);
},
{
name = ogonek;
pos = (405,7);
},
{
name = top;
pos = (301,500);
}
);
hints = (
{
horizontal = 1;
place = (0,21);
target = up;
type = BottomGhost;
},
{
horizontal = 1;
place = (435,75);
type = Stem;
},
{
place = (0,100);
type = Stem;
},
{
place = (290,95);
type = Stem;
},
{
horizontal = 1;
place = (-10,80);
type = Stem;
}
);
layerId = m003;
shapes = (
{
closed = 1;
nodes = (
(211,-1,l),
(218,2,l),
(240,15,l),
(247,17,l),
(263,30,l),
(276,35,l),
(289,44,l),
(311,52,l),
(330,52,l),
(345,44,l),
(352,15,l),
(355,6,l),
(383,1,l),
(405,7,l),
(410,37,l),
(414,57,l),
(406,72,l),
(414,90,l),
(408,96,l),
(418,120,l),
(420,135,l),
(415,142,l),
(425,161,l),
(427,181,l),
(423,195,l),
(426,209,l),
(429,224,l),
(435,239,l),
(429,253,l),
(444,271,l),
(444,283,l),
(450,298,l),
(444,312,l),
(457,334,l),
(453,349,l),
(458,359,l),
(463,374,l),
(467,403,l),
(475,426,l),
(476,455,l),
(464,466,l),
(451,474,l),
(430,490,l),
(413,496,l),
(391,492,l),
(380,494,l),
(371,501,l),
(353,501,l),
(342,507,l),
(335,507,l),
(317,502,l),
(283,509,l),
(270,502,l),
(230,494,l),
(224,487,l),
(203,489,l),
(195,481,l),
(178,464,l),
(174,456,l),
(157,446,l),
(148,434,l),
(127,418,l),
(125,412,l),
(112,392,l),
(109,380,l),
(102,371,l),
(97,355,l),
(90,335,l),
(87,323,l),
(71,305,l),
(68,291,l),
(70,281,l),
(60,267,l),
(56,233,l),
(61,206,l),
(49,197,l),
(52,180,l),
(45,161,l),
(45,142,l),
(55,129,l),
(50,112,l),
(56,100,l),
(56,82,l),
(61,75,l),
(63,53,l),
(75,49,l),
(75,28,l),
(76,22,l),
(100,11,l),
(100,3,l),
(118,-1,l),
(129,-5,l),
(153,-6,l),
(175,-10,l)
);
},
{
closed = 1;
nodes = (
(173,65,l),
(160,65,l),
(142,82,l),
(132,101,l),
(136,120,l),
(134,150,l),
(128,169,l),
(133,178,l),
(131,190,l),
(140,207,l),
(139,233,l),
(142,269,l),
(146,283,l),
(156,294,l),
(151,315,l),
(155,321,l),
(165,345,l),
(170,358,l),
(185,370,l),
(186,383,l),
(199,401,l),
(199,415,l),
(213,421,l),
(228,434,l),
(247,446,l),
(263,444,l),
(277,453,l),
(310,454,l),
(319,453,l),
(342,448,l),
(391,440,l),
(381,408,l),
(389,394,l),
(385,382,l),
(373,361,l),
(380,348,l),
(376,330,l),
(361,319,l),
(362,299,l),
(363,287,l),
(356,273,l),
(349,261,l),
(353,242,l),
(349,225,l),
(351,210,l),
(336,188,l),
(330,166,l),
(328,145,l),
(307,128,l),
(305,116,l),
(287,104,l),
(277,93,l),
(262,88,l),
(248,71,l),
(207,63,l),
(180,54,l)
);
}
);
width = 516;
}
);
metricLeft = "=o";
metricRight = "=|n";
note = d;
unicode = 97;
userData = {
KernOnName = a;
};
}
{
glyphname = b;
kernLeft = KO_h;
kernRight = KO_b;
layers = (
{
hints = (
{
horizontal = 1;
place = (-10,70);
type = Stem;
},
{
horizontal = 1;
place = (430,80);
type = Stem;
},
{
place = (5,95);
type = Stem;
},
{
place = (290,100);
type = Stem;
},
{
horizontal = 1;
place = (0,21);
target = up;
type = BottomGhost;
}
);
layerId = m005;
shapes = (
{
closed = 1;
nodes = (
(212,-13,l),
(224,-6,l),
(237,-3,l),
(254,-7,l),
(272,4,l),
(290,13,l),
(317,21,l),
(325,38,l),
(332,42,l),
(355,64,l),
(374,83,l),
(373,94,l),
(385,109,l),
(396,118,l),
(402,137,l),
(403,152,l),
(413,175,l),
(422,193,l),
(422,204,l),
(428,217,l),
(441,236,l),
(445,266,l),
(451,286,l),
(445,307,l),
(450,324,l),
(450,340,l),
(445,354,l),
(451,365,l),
(448,378,l),
(445,397,l),
(439,406,l),
(438,424,l),
(433,441,l),
(427,450,l),
(428,463,l),
(411,472,l),
(409,486,l),
(396,492,l),
(383,499,l),
(376,501,l),
(357,512,l),
(345,507,l),
(311,505,l),
(291,503,l),
(274,502,l),
(260,498,l),
(252,492,l),
(232,482,l),
(217,480,l),
(203,470,l),
(182,468,l),
(185,488,l),
(193,511,l),
(191,533,l),
(203,545,l),
(196,558,l),
(196,574,l),
(202,585,l),
(206,605,l),
(209,615,l),
(209,627,l),
(220,647,l),
(229,678,l),
(219,692,l),
(208,700,l),
(198,703,l),
(191,704,l),
(161,705,l),
(146,706,l),
(133,689,l),
(112,680,l),
(111,643,l),
(108,635,l),
(100,619,l),
(99,597,l),
(94,582,l),
(92,567,l),
(99,560,l),
(97,545,l),
(85,528,l),
(85,507,l),
(93,494,l),
(79,485,l),
(75,466,l),
(85,448,l),
(74,438,l),
(78,425,l),
(71,393,l),
(71,378,l),
(65,364,l),
(61,342,l),
(66,335,l),
(55,321,l),
(54,299,l),
(57,289,l),
(44,269,l),
(50,255,l),
(49,244,l),
(44,224,l),
(40,215,l),
(37,201,l),
(28,183,l),
(24,168,l),
(23,152,l),
(21,135,l),
(15,121,l),
(21,104,l),
(20,94,l),
(10,73,l),
(6,67,l),
(11,30,l),
(5,16,l),
(12,12,l),
(25,5,l),
(38,0,l),
(67,-1,l),
(91,-4,l),
(99,-9,l),
(112,-12,l),
(126,-4,l),
(150,-5,l),
(166,-15,l),
(177,-11,l)
);
},
{
closed = 1;
nodes = (
(194,80,l),
(157,82,l),
(149,80,l),
(127,91,l),
(123,112,l),
(130,142,l),
(138,162,l),
(130,174,l),
(139,191,l),
(136,211,l),
(150,218,l),
(141,241,l),
(142,252,l),
(150,273,l),
(160,280,l),
(155,315,l),
(168,331,l),
(170,340,l),
(188,373,l),
(199,386,l),
(216,391,l),
(221,410,l),
(240,419,l),
(252,419,l),
(259,425,l),
(279,438,l),
(304,432,l),
(334,420,l),
(341,406,l),
(336,391,l),
(347,384,l),
(356,365,l),
(351,349,l),
(352,320,l),
(353,309,l),
(352,294,l),
(346,260,l),
(334,236,l),
(330,217,l),
(334,203,l),
(322,188,l),
(321,160,l),
(305,142,l),
(305,128,l),
(295,116,l),
(274,110,l),
(269,93,l),
(255,94,l),
(240,81,l),
(215,78,l)
);
}
);
width = 486;
},
{
hints = (
{
horizontal = 1;
place = (-10,70);
type = Stem;
},
{
horizontal = 1;
place = (430,80);
type = Stem;
},
{
place = (5,95);
type = Stem;
},
{
place = (290,100);
type = Stem;
},
{
horizontal = 1;
place = (0,21);
target = up;
type = BottomGhost;
}
);
layerId = m002;
shapes = (
{
closed = 1;
nodes = (
(224,-23,l),
(245,-27,l),
(263,-25,l),
(294,-15,l),
(312,-8,l),
(316,-2,l),
(338,-1,l),
(351,9,l),
(374,29,l),
(394,41,l),
(397,47,l),
(418,61,l),
(430,73,l),
(433,83,l),
(442,100,l),
(449,113,l),
(457,120,l),
(478,135,l),
(484,152,l),
(490,162,l),
(486,182,l),
(492,197,l),
(503,210,l),
(511,224,l),
(502,232,l),
(513,260,l),
(525,293,l),
(520,301,l),
(518,324,l),
(525,332,l),
(525,350,l),
(529,363,l),
(526,384,l),
(514,413,l),
(523,422,l),
(508,440,l),
(506,455,l),
(497,459,l),
(500,479,l),
(481,491,l),
(469,505,l),
(451,507,l),
(432,519,l),
(407,516,l),
(391,518,l),
(389,524,l),
(352,526,l),
(338,523,l),
(316,514,l),
(298,506,l),
(274,499,l),
(274,526,l),
(269,544,l),
(269,556,l),
(281,570,l),
(283,587,l),
(289,605,l),
(292,635,l),
(293,655,l),
(290,666,l),
(293,678,l),
(275,693,l),
(272,702,l),
(258,709,l),
(238,712,l),
(232,719,l),
(207,725,l),
(183,727,l),
(171,720,l),
(155,721,l),
(148,714,l),
(129,701,l),
(111,691,l),
(113,684,l),
(104,671,l),
(89,657,l),
(79,637,l),
(76,609,l),
(84,596,l),
(81,578,l),
(73,554,l),
(74,533,l),
(59,523,l),
(61,508,l),
(57,493,l),
(56,471,l),
(48,445,l),
(52,426,l),
(48,418,l),
(52,399,l),
(45,385,l),
(47,373,l),
(31,359,l),
(30,342,l),
(37,314,l),
(30,294,l),
(16,269,l),
(16,255,l),
(16,234,l),
(7,224,l),
(4,203,l),
(9,187,l),
(3,165,l),
(0,148,l),
(-9,129,l),
(-4,119,l),
(-7,97,l),
(-15,74,l),
(-8,47,l),
(-5,29,l),
(8,22,l),
(5,3,l),
(39,-10,l),
(44,-17,l),
(55,-13,l),
(90,-18,l),
(98,-23,l),
(125,-21,l),
(129,-27,l),
(158,-21,l),
(170,-26,l),
(182,-27,l),
(206,-22,l)
);
},
{
closed = 1;
nodes = (
(240,168,l),
(229,166,l),
(223,174,l),
(215,184,l),
(214,195,l),
(215,207,l),
(215,220,l),
(219,228,l),
(222,237,l),
(223,249,l),
(222,260,l),
(221,268,l),
(221,275,l),
(230,284,l),
(235,291,l),
(242,299,l),
(238,307,l),
(246,315,l),
(252,321,l),
(257,330,l),
(261,337,l),
(268,339,l),
(278,343,l),
(286,346,l),
(296,350,l),
(303,346,l),
(312,343,l),
(318,340,l),
(327,337,l),
(323,329,l),
(317,321,l),
(322,314,l),
(328,306,l),
(324,300,l),
(315,286,l),
(313,277,l),
(312,269,l),
(309,258,l),
(311,250,l),
(313,239,l),
(310,230,l),
(307,221,l),
(301,213,l),
(296,204,l),
(302,196,l),
(293,187,l),
(287,180,l),
(277,177,l),
(266,174,l),
(252,170,l)
);
}
);
width = 526;
},
{
hints = (
{
horizontal = 1;
place = (-10,70);
type = Stem;
},
{
horizontal = 1;
place = (430,80);
type = Stem;
},
{
place = (5,95);
type = Stem;
},
{
place = (290,100);
type = Stem;
},
{
horizontal = 1;
place = (0,21);
target = up;
type = BottomGhost;
}
);
layerId = m003;
shapes = (
{
closed = 1;
nodes = (
(238,-6,l),
(249,-4,l),
(256,-1,l),
(275,-2,l),
(291,6,l),
(311,17,l),
(326,22,l),
(333,34,l),
(355,43,l),
(356,52,l),
(371,64,l),
(385,74,l),
(394,89,l),
(398,107,l),
(409,120,l),
(414,128,l),
(427,146,l),
(434,165,l),
(429,174,l),
(441,186,l),
(437,202,l),
(441,223,l),
(444,231,l),
(450,266,l),
(465,288,l),
(459,307,l),
(461,316,l),
(458,338,l),
(458,348,l),
(466,364,l),
(459,382,l),
(464,397,l),
(455,409,l),
(458,418,l),
(464,439,l),
(455,450,l),
(443,459,l),
(439,476,l),
(434,483,l),
(421,490,l),
(414,494,l),
(398,504,l),
(381,506,l),
(368,505,l),
(339,509,l),
(313,502,l),
(298,504,l),
(289,494,l),
(277,492,l),
(251,481,l),
(242,472,l),
(226,458,l),
(208,458,l),
(204,478,l),
(199,488,l),
(210,524,l),
(202,538,l),
(214,549,l),
(215,564,l),
(224,581,l),
(217,590,l),
(229,605,l),
(227,620,l),
(237,638,l),
(228,655,l),
(236,686,l),
(234,691,l),
(220,700,l),
(209,702,l),
(185,701,l),
(169,695,l),
(149,688,l),
(138,652,l),
(150,636,l),
(143,622,l),
(141,606,l),
(136,596,l),
(137,577,l),
(124,558,l),
(126,545,l),
(129,537,l),
(117,516,l),
(117,501,l),
(113,488,l),
(125,476,l),
(109,463,l),
(115,443,l),
(108,395,l),
(97,385,l),
(103,371,l),
(95,349,l),
(102,343,l),
(98,321,l),
(89,306,l),
(82,293,l),
(86,278,l),
(86,261,l),
(78,246,l),
(80,237,l),
(72,216,l),
(73,201,l),
(68,188,l),
(63,178,l),
(56,154,l),
(53,142,l),
(62,129,l),
(47,110,l),
(58,103,l),
(54,84,l),
(44,72,l),
(38,57,l),
(42,26,l),
(38,14,l),
(50,5,l),
(69,7,l),
(90,2,l),
(108,2,l),
(132,-6,l),
(143,-7,l),
(154,-4,l),
(174,-10,l),
(179,-10,l),
(197,-9,l)
);
},
{
closed = 1;
nodes = (
(205,65,l),
(191,62,l),
(186,67,l),
(145,80,l),
(145,103,l),
(145,123,l),
(140,140,l),
(149,155,l),
(144,171,l),
(157,186,l),
(154,200,l),
(161,216,l),
(161,231,l),
(165,242,l),
(159,257,l),
(164,292,l),
(177,318,l),
(191,351,l),
(188,367,l),
(196,375,l),
(206,392,l),
(227,411,l),
(253,426,l),
(265,437,l),
(293,446,l),
(304,446,l),
(340,453,l),
(342,449,l),
(363,440,l),
(373,421,l),
(384,400,l),
(376,392,l),
(387,375,l),
(391,338,l),
(386,316,l),
(382,300,l),
(385,293,l),
(380,265,l),
(373,237,l),
(374,217,l),
(365,208,l),
(362,188,l),
(352,169,l),
(351,154,l),
(335,142,l),
(324,111,l),
(302,86,l),
(289,84,l),
(258,65,l),
(248,61,l)
);
}
);
width = 513;
}
);
metricLeft = "=n";
metricRight = "=o";
note = b;
unicode = 98;
userData = {
KernOnName = b;
};
}
{
glyphname = e;
kernLeft = KO_e;
kernRight = KO_e;
layers = (
{
anchors = (
{
name = bottom;
pos = (210,0);
},
{
name = ogonek;
pos = (352,19);
},
{
name = top;
pos = (289,500);
}
);
hints = (
{
horizontal = 1;
place = (-10,75);
type = Stem;
},
{
horizontal = 1;
place = (215,65);
type = Stem;
},
{
horizontal = 1;
place = (440,70);
type = Stem;
},
{
place = (1,100);
type = Stem;
},
{
place = (286,100);
type = Stem;
}
);
layerId = m005;
shapes = (
{
closed = 1;
nodes = (
(184,-11,l),
(187,-9,l),
(225,-12,l),
(232,-13,l),
(245,-4,l),
(266,-8,l),
(288,-2,l),
(317,3,l),
(321,11,l),
(335,16,l),
(366,31,l),
(367,42,l),
(360,78,l),
(354,89,l),
(356,99,l),
(333,97,l),
(308,96,l),
(298,86,l),
(273,82,l),
(269,72,l),
(243,68,l),
(238,62,l),
(201,64,l),
(182,68,l),
(168,67,l),
(164,72,l),
(158,89,l),
(146,94,l),
(135,103,l),
(136,116,l),
(132,132,l),
(122,149,l),
(126,162,l),
(121,175,l),
(124,193,l),
(135,214,l),
(148,218,l),
(161,213,l),
(181,216,l),
(204,215,l),
(217,216,l),
(234,220,l),
(251,225,l),
(256,221,l),
(278,224,l),
(288,227,l),
(313,237,l),
(318,232,l),
(332,238,l),
(348,249,l),
(364,259,l),
(380,257,l),
(393,267,l),
(401,282,l),
(416,289,l),
(427,303,l),
(440,318,l),
(442,338,l),
(441,367,l),
(447,384,l),
(443,394,l),
(447,411,l),
(430,419,l),
(438,432,l),
(428,444,l),
(423,458,l),
(409,467,l),
(402,482,l),
(392,490,l),
(369,493,l),
(360,499,l),
(355,501,l),
(337,502,l),
(319,507,l),
(303,506,l),
(271,510,l),
(252,509,l),
(240,501,l),
(232,498,l),
(211,497,l),
(201,487,l),
(182,487,l),
(170,476,l),
(165,468,l),
(144,455,l),
(135,446,l),
(132,436,l),
(118,422,l),
(103,406,l),
(90,396,l),
(86,383,l),
(76,364,l),
(82,355,l),
(66,337,l),
(63,328,l),
(65,309,l),
(50,298,l),
(51,282,l),
(39,263,l),
(46,234,l),
(43,205,l),
(28,177,l),
(35,164,l),
(32,147,l),
(41,134,l),
(45,125,l),
(41,109,l),
(49,93,l),
(56,86,l),
(63,75,l),
(57,60,l),
(69,50,l),
(73,41,l),
(82,25,l),
(100,16,l),
(118,16,l),
(119,6,l),
(128,-3,l),
(157,-2,l),
(158,-9,l)
);
},
{
closed = 1;
nodes = (
(148,293,l),
(144,314,l),
(141,323,l),
(152,347,l),
(164,357,l),
(173,380,l),
(180,398,l),
(189,408,l),
(199,419,l),
(223,428,l),
(232,428,l),
(261,438,l),
(286,439,l),
(305,433,l),
(316,431,l),
(326,422,l),
(339,408,l),
(345,390,l),
(339,381,l),
(338,369,l),
(345,336,l),
(328,319,l),
(319,310,l),
(302,300,l),
(280,301,l),
(265,296,l),
(249,291,l),
(222,295,l),
(207,290,l),
(199,292,l),
(174,286,l),
(165,286,l)
);
}
);
width = 470;
},
{
anchors = (
{
name = bottom;
pos = (220,0);
},
{
name = ogonek;
pos = (382,9);
},
{
name = top;
pos = (300,500);
}
);
hints = (
{
horizontal = 1;
place = (-10,75);
type = Stem;
},
{
horizontal = 1;
place = (215,65);
type = Stem;
},
{
horizontal = 1;
place = (440,70);
type = Stem;
},
{
place = (0,100);
type = Stem;
},
{
place = (285,100);
type = Stem;
}
);
layerId = m002;
shapes = (
{
closed = 1;
nodes = (
(235,-28,l),
(242,-21,l),
(255,-24,l),
(277,-21,l),
(307,-17,l),
(319,-6,l),
(334,-7,l),
(352,-4,l),
(372,5,l),
(401,19,l),
(402,29,l),
(414,33,l),
(434,52,l),
(438,81,l),
(436,98,l),
(430,118,l),
(415,145,l),
(417,164,l),
(409,165,l),
(387,182,l),
(375,178,l),
(365,184,l),
(347,185,l),
(312,181,l),
(302,173,l),
(292,161,l),
(267,155,l),
(262,149,l),
(236,150,l),
(224,150,l),
(216,158,l),
(213,160,l),
(210,173,l),
(207,185,l),
(226,197,l),
(237,202,l),
(276,206,l),
(289,208,l),
(307,211,l),
(317,211,l),
(334,211,l),
(358,224,l),
(379,227,l),
(393,225,l),
(422,238,l),
(456,256,l),
(468,261,l),
(481,293,l),
(494,309,l),
(493,325,l),
(505,341,l),
(509,365,l),
(512,376,l),
(505,394,l),
(506,406,l),
(493,437,l),
(484,444,l),
(478,457,l),
(472,468,l),
(457,477,l),
(452,485,l),
(430,497,l),
(418,504,l),
(393,516,l),
(369,518,l),
(355,520,l),
(348,526,l),
(332,525,l),
(315,522,l),
(289,529,l),
(269,525,l),
(261,518,l),
(237,519,l),
(224,511,l),
(199,511,l),
(176,501,l),
(159,495,l),
(154,485,l),
(136,474,l),
(115,455,l),
(96,446,l),
(86,430,l),
(83,422,l),
(60,408,l),
(53,397,l),
(55,384,l),
(49,367,l),
(35,352,l),
(34,335,l),
(18,321,l),
(23,310,l),
(17,290,l),
(9,278,l),
(4,262,l),
(7,236,l),
(-2,211,l),
(-4,199,l),
(0,186,l),
(-1,163,l),
(-3,155,l),
(2,137,l),
(13,122,l),
(15,110,l),
(7,101,l),
(24,90,l),
(31,72,l),
(37,60,l),
(47,53,l),
(45,35,l),
(65,23,l),
(80,10,l),
(89,1,l),
(99,2,l),
(112,-5,l),
(124,-16,l),
(142,-18,l),
(164,-16,l),
(170,-27,l),
(191,-28,l),
(208,-29,l)
);
},
{
closed = 1;
nodes = (
(245,342,l),
(239,343,l),
(238,350,l),
(237,356,l),
(236,364,l),
(235,370,l),
(241,374,l),
(246,378,l),
(251,381,l),
(257,385,l),
(264,389,l),
(273,388,l),
(277,387,l),
(283,386,l),
(290,385,l),
(298,385,l),
(303,384,l),
(308,384,l),
(306,378,l),
(304,373,l),
(304,368,l),
(303,361,l),
(300,354,l),
(296,350,l),
(292,347,l),
(287,345,l),
(280,342,l),
(272,341,l),
(268,341,l),
(262,340,l),
(258,340,l),
(250,340,l)
);
}
);
width = 500;
},
{
anchors = (
{
name = bottom;
pos = (219,0);
},
{
name = ogonek;
pos = (357,21);
},
{
name = top;
pos = (298,500);
}
);
hints = (
{
horizontal = 1;
place = (-10,75);
type = Stem;
},
{
horizontal = 1;
place = (215,65);
type = Stem;
},
{
horizontal = 1;
place = (440,70);
type = Stem;
},
{
place = (1,100);
type = Stem;
},
{
place = (286,100);
type = Stem;
}
);
layerId = m003;
shapes = (
{
closed = 1;
nodes = (
(219,-5,l),
(235,-4,l),
(252,-4,l),
(267,-4,l),
(278,0,l),
(301,4,l),
(312,2,l),
(322,13,l),
(342,19,l),
(362,36,l),
(366,51,l),
(368,65,l),
(364,76,l),
(346,85,l),
(324,78,l),
(311,74,l),
(307,73,l),
(288,66,l),
(274,56,l),
(254,55,l),
(239,48,l),
(213,45,l),
(195,46,l),
(184,55,l),
(164,57,l),
(154,69,l),
(151,80,l),
(137,88,l),
(126,100,l),
(122,113,l),
(122,132,l),
(119,148,l),
(123,163,l),
(124,173,l),
(129,193,l),
(134,210,l),
(138,222,l),
(151,227,l),
(162,231,l),
(183,225,l),
(201,232,l),
(206,226,l),
(220,229,l),
(237,230,l),
(255,230,l),
(278,236,l),
(278,232,l),
(296,239,l),
(319,239,l),
(337,242,l),
(350,256,l),
(358,255,l),
(374,265,l),
(384,274,l),
(401,282,l),
(420,293,l),
(428,312,l),
(438,323,l),
(441,340,l),
(439,369,l),
(448,378,l),
(440,399,l),
(442,407,l),
(443,420,l),
(428,439,l),
(425,450,l),
(412,475,l),
(391,480,l),
(391,490,l),
(378,492,l),
(352,497,l),
(348,500,l),
(326,507,l),
(307,505,l),
(277,502,l),
(260,503,l),
(259,498,l),
(234,498,l),
(226,488,l),
(202,487,l),
(193,481,l),
(187,469,l),
(161,459,l),
(154,444,l),
(137,430,l),
(130,427,l),
(123,407,l),
(110,398,l),
(107,380,l),
(95,372,l),
(92,357,l),
(88,341,l),
(85,328,l),
(71,306,l),
(76,294,l),
(65,283,l),
(65,262,l),
(59,233,l),
(60,211,l),
(49,197,l),
(55,179,l),
(50,167,l),
(49,146,l),
(59,141,l),
(65,125,l),
(65,113,l),
(67,92,l),
(63,81,l),
(80,65,l),
(77,56,l),
(90,48,l),
(96,32,l),
(108,30,l),
(119,14,l),
(138,14,l),
(149,8,l),
(160,5,l),
(170,-7,l),
(191,-10,l),
(200,-7,l)
);
},
{
closed = 1;
nodes = (
(143,279,l),
(142,310,l),
(151,329,l),
(159,347,l),
(167,373,l),
(178,392,l),
(174,401,l),
(185,416,l),
(207,420,l),
(231,440,l),
(237,452,l),
(254,452,l),
(304,458,l),
(340,443,l),
(339,430,l),
(348,419,l),
(356,414,l),
(354,392,l),
(361,378,l),
(356,363,l),
(361,337,l),
(354,317,l),
(341,311,l),
(324,296,l),
(308,294,l),
(282,285,l),
(265,286,l),
(246,278,l),
(239,281,l),
(203,283,l),
(189,277,l),
(173,281,l)
);
}
);
width = 482;
}
);
metricLeft = "=o";
metricRight = "=o";
note = e;
unicode = 101;
userData = {
KernOnName = e;
};
}
{
glyphname = f;
kernLeft = KO_f;
kernRight = KO_f;
layers = (
{
hints = (
{
horizontal = 1;
place = (0,21);
target = up;
type = BottomGhost;
},
{
horizontal = 1;
place = (435,65);
type = Stem;
},
{
horizontal = 1;
place = (640,61);
type = Stem;
},
{
place = (25,95.5);
type = Stem;
}
);
layerId = m005;
shapes = (
{
closed = 1;
nodes = (
(112,0,l),
(122,14,l),
(137,24,l),
(142,53,l),
(145,66,l),
(145,87,l),
(139,102,l),
(150,116,l),
(154,127,l),
(152,145,l),
(152,156,l),
(157,180,l),
(152,191,l),
(159,209,l),
(167,225,l),
(163,250,l),
(164,268,l),
(177,285,l),
(179,299,l),
(167,311,l),
(182,326,l),
(185,341,l),
(181,359,l),
(190,370,l),
(186,392,l),
(193,405,l),
(195,430,l),
(220,430,l),
(230,423,l),
(253,427,l),
(283,430,l),
(299,435,l),
(309,447,l),
(302,476,l),
(300,491,l),
(289,501,l),
(256,499,l),
(241,504,l),
(226,499,l),
(203,499,l),
(212,523,l),
(205,540,l),
(212,557,l),
(213,580,l),
(221,590,l),
(233,625,l),
(249,630,l),
(263,640,l),
(291,632,l),
(305,630,l),
(325,626,l),
(337,636,l),
(344,643,l),
(356,660,l),
(368,674,l),
(359,686,l),
(355,693,l),
(325,706,l),
(311,702,l),
(289,706,l),
(283,709,l),
(246,711,l),
(229,710,l),
(212,704,l),
(198,703,l),
(169,684,l),
(166,676,l),
(148,658,l),
(144,643,l),
(135,630,l),
(135,614,l),
(118,605,l),
(122,583,l),
(112,560,l),
(108,539,l),
(101,524,l),
(94,501,l),
(82,497,l),
(68,494,l),
(44,486,l),
(44,480,l),
(36,450,l),
(42,438,l),
(50,432,l),
(69,431,l),
(96,426,l),
(95,404,l),
(79,386,l),
(81,371,l),
(80,356,l),
(76,331,l),
(74,315,l),
(64,296,l),
(67,282,l),
(66,265,l),
(68,256,l),
(64,235,l),
(61,220,l),
(59,204,l),
(50,188,l),
(51,163,l),
(40,144,l),
(34,125,l),
(40,118,l),
(38,100,l),
(25,73,l),
(30,54,l),
(26,28,l),
(32,16,l),
(33,5,l),
(50,-4,l),
(59,-6,l),
(84,-14,l),
(98,-10,l)
);
}
);
width = 290;
},
{
hints = (
{
horizontal = 1;
place = (0,21);
target = up;
type = BottomGhost;
},
{
horizontal = 1;
place = (435,65);
type = Stem;
},
{
horizontal = 1;
place = (640,61);
type = Stem;
},
{
place = (25,95.5);
type = Stem;
}
);
layerId = m002;
shapes = (
{
closed = 1;
nodes = (
(118,-26,l),
(129,-21,l),
(154,-13,l),
(168,-14,l),
(186,3,l),
(207,23,l),
(209,32,l),
(217,42,l),
(224,65,l),
(229,90,l),
(222,109,l),
(226,126,l),
(233,149,l),
(232,170,l),
(237,183,l),
(243,199,l),
(234,210,l),
(243,226,l),
(240,244,l),
(250,256,l),
(245,267,l),
(255,288,l),
(247,295,l),
(253,334,l),
(277,339,l),
(314,347,l),
(341,360,l),
(358,374,l),
(357,380,l),
(371,402,l),
(376,414,l),
(383,443,l),
(383,460,l),
(370,485,l),
(358,503,l),
(345,506,l),
(322,512,l),
(304,510,l),
(288,517,l),
(290,528,l),
(300,543,l),
(313,542,l),
(328,541,l),
(345,547,l),
(361,549,l),
(372,551,l),
(380,560,l),
(399,570,l),
(414,577,l),
(418,590,l),
(430,609,l),
(440,625,l),
(443,637,l),
(430,655,l),
(436,672,l),
(420,678,l),
(413,702,l),
(404,713,l),
(371,720,l),
(355,718,l),
(347,720,l),
(307,724,l),
(288,720,l),
(267,726,l),
(252,719,l),
(239,714,l),
(225,715,l),
(200,707,l),
(180,689,l),
(161,681,l),
(151,667,l),
(130,653,l),
(121,642,l),
(122,631,l),
(112,611,l),
(99,601,l),
(97,581,l),
(95,556,l),
(85,529,l),
(60,506,l),
(47,499,l),
(33,483,l),
(35,468,l),
(19,448,l),
(15,414,l),
(11,404,l),
(19,387,l),
(25,368,l),
(36,350,l),
(56,331,l),
(46,304,l),
(54,283,l),
(40,269,l),
(39,251,l),
(46,234,l),
(39,221,l),
(43,211,l),
(35,194,l),
(31,179,l),
(30,163,l),
(19,150,l),
(25,141,l),
(17,123,l),
(14,103,l),
(15,94,l),
(-3,60,l),
(7,45,l),
(15,33,l),
(9,18,l),
(24,7,l),
(49,-7,l),
(55,-17,l),
(67,-21,l),
(86,-27,l)
);
}
);
width = 357;
},
{
hints = (
{
horizontal = 1;
place = (0,21);
target = up;
type = BottomGhost;
},
{
horizontal = 1;
place = (435,65);
type = Stem;
},
{
horizontal = 1;
place = (640,61);
type = Stem;
},
{
place = (24,95.5);
type = Stem;
}
);
layerId = m003;
shapes = (
{
closed = 1;
nodes = (
(95,-2,l),
(109,-4,l),
(114,8,l),
(131,18,l),
(124,41,l),
(132,60,l),
(130,77,l),
(142,92,l),
(139,116,l),
(144,130,l),
(145,149,l),
(142,166,l),
(144,182,l),
(153,190,l),
(146,210,l),
(145,228,l),
(160,251,l),
(161,267,l),
(162,302,l),
(165,314,l),
(173,332,l),
(165,347,l),
(177,355,l),
(172,372,l),
(172,386,l),
(173,406,l),
(184,412,l),
(191,435,l),
(195,448,l),
(217,448,l),
(234,446,l),
(257,450,l),
(277,447,l),
(290,457,l),
(294,495,l),
(288,502,l),
(263,502,l),
(240,500,l),
(230,506,l),
(204,505,l),
(198,520,l),
(191,534,l),
(205,556,l),
(200,574,l),
(208,585,l),
(211,606,l),
(214,616,l),
(231,634,l),
(231,646,l),
(252,654,l),
(255,652,l),
(295,652,l),
(330,643,l),
(334,655,l),
(348,686,l),
(342,696,l),
(323,704,l),
(306,707,l),
(298,706,l),
(276,709,l),
(249,707,l),
(228,700,l),
(215,697,l),
(199,700,l),
(188,689,l),
(181,679,l),
(158,668,l),
(154,657,l),
(148,639,l),
(144,627,l),
(139,613,l),
(138,595,l),
(122,585,l),
(129,566,l),
(127,550,l),
(123,538,l),
(111,512,l),
(95,506,l),
(78,500,l),
(69,503,l),
(48,488,l),
(45,458,l),
(58,451,l),
(68,450,l),
(86,448,l),
(100,447,l),
(103,412,l),
(92,405,l),
(88,388,l),
(92,369,l),
(88,359,l),
(87,347,l),
(82,330,l),
(82,317,l),
(86,297,l),
(71,280,l),
(71,264,l),
(76,256,l),
(63,237,l),
(65,212,l),
(62,193,l),
(65,177,l),
(59,162,l),
(48,151,l),
(52,136,l),
(45,118,l),
(45,103,l),
(35,70,l),
(30,56,l),
(38,41,l),
(32,21,l),
(32,7,l),
(46,2,l),
(64,-7,l)
);
}
);
width = 290;
}
);
note = f;
unicode = 102;
userData = {
KernOnName = f;
};
}
